<?xml version="1.0" standalone="no"?>
<!DOCTYPE svg PUBLIC "-//W3C//DTD SVG 1.1//EN" "http://www.w3.org/Graphics/SVG/1.1/DTD/svg11.dtd" >
<svg xmlns="http://www.w3.org/2000/svg" xmlns:xlink="http://www.w3.org/1999/xlink" version="1.1">
<metadata>
Created by FontForge 20170731 at Fri Jan 25 17:25:47 2013
 By Aleksey,,,
(c) Copyright: Gerard Unger, 1996, published by TypeTogether. This software is licensed, not sold. Unauthorised use strictly prohibited. Capitolium, Capitolium News are trademarks of Gerard Unger, that may be registered in some jurisdictions. ALL RIGHTS RESERVED.
</metadata>
<defs>
<font id="CapitoliumNews2-SemiBold" horiz-adv-x="550" >
  <font-face 
    font-family="CapitoliumNews 2 Sb"
    font-weight="600"
    font-variant="small-caps"
    font-stretch="normal"
    units-per-em="1000"
    panose-1="2 0 5 3 7 0 0 2 0 4"
    ascent="760"
    descent="-240"
    x-height="504"
    cap-height="678"
    bbox="-161 -272 956 1045"
    underline-thickness="50"
    underline-position="-200"
    unicode-range="U+000D-FB04"
  />
<missing-glyph horiz-adv-x="475" 
 />
    <glyph glyph-name="ff" unicode="ff" horiz-adv-x="675" 
d="M755 727l-46 -77h-13q-14 41 -27.5 56t-42.5 15q-23 0 -38 -11t-20.5 -32.5t-7 -37t-1.5 -39.5v-96h106v-50h-106v-294q0 -88 13 -109q19 -28 76 -28v-26q-80 4 -147 4q-92 0 -138 -4v25q30 0 51 25q13 15 16 42t3 104v261h-204v-295q0 -60 3 -80.5t13 -33.5
q16 -19 49 -23v-25q-80 4 -129 4q-86 0 -132 -4v25q30 0 51 25q13 15 16 42t3 104v261h-66v23q45 16 67 34q0 74 17 116q23 60 86 95.5t159 35.5q46 0 84.5 -7.5t53.5 -14.5l16 -7q40 30 116 30q38 0 68 -5t40 -11l11 -5v-12zM229 506h204q0 113 30 166q-3 5 -9 12t-32 19
t-61 12q-65 0 -98 -35q-20 -22 -27 -56.5t-7 -94.5v-23z" />
    <glyph glyph-name="fi" unicode="fi" horiz-adv-x="656" 
d="M626 -2q-55 4 -128 4l-134 -4v25q28 0 49 25q13 15 16.5 43t3.5 103v171q0 43 -2 57.5t-10 22.5q-9 10 -38 10h-154v-295q0 -60 3 -80.5t13 -33.5q16 -19 49 -23v-25q-61 4 -129 4l-132 -4v25q30 0 51 25q13 15 16 42t3 104v261h-66v23q45 16 67 34q0 74 17 116
q23 61 86 96t160 35q116 0 194 -39v-14l-50 -87h-15q0 1 -3.5 9t-5 11.5t-6.5 12t-8.5 13t-10.5 12t-13.5 12t-16.5 10t-20 8.5t-24 5t-29 2q-62 0 -96 -36q-20 -22 -27 -56t-7 -94v-23h251q42 0 73 11l7 -5q-2 -19 -2 -203v-147q0 -58 3.5 -80t14.5 -35q18 -21 50 -23v-25z
" />
    <glyph glyph-name="fl" unicode="fl" horiz-adv-x="651" 
d="M622 -2q-49 4 -125 4l-132 -4v25q28 0 49 25q13 15 16.5 43t3.5 103v394l-3 96q-27 30 -86 30q-57 0 -85 -29q-20 -21 -25.5 -55t-5.5 -97v-28h106v-50h-106v-295q0 -60 3 -80.5t13 -33.5q16 -19 49 -23v-25q-54 4 -129 4l-132 -4v25q30 0 51 25q13 15 16 42t3 104v261
h-66v23q45 16 67 34q0 73 16 117q47 130 227 130q32 0 61 -4t42 -8l13 -4q2 0 7.5 0.5t15 1.5t19.5 3l51 12l7 -5q-4 -72 -4 -195v-399q0 -58 3 -79t13 -35q18 -24 47 -24v-25z" />
    <glyph glyph-name="ffi" unicode="ffi" horiz-adv-x="986" 
d="M956 -2q-55 4 -128 4l-134 -4v25q28 0 49 25q13 15 16.5 43t3.5 103v171q0 43 -2 57.5t-10 22.5q-9 10 -38 10h-154v-295q0 -60 3 -80.5t13 -33.5q16 -19 49 -23l1 -25q-80 4 -130 4q-86 0 -132 -4v25q30 0 51 25q13 15 16 42t3 104v261h-204v-295q0 -60 3 -80.5
t13 -33.5q16 -19 49 -23v-25q-80 4 -129 4q-86 0 -132 -4v25q30 0 51 25q13 15 16 42t3 104v261h-65v24q45 16 66 33q0 74 17 116q23 60 86 95.5t159 35.5q49 0 92 -9t61 -18l18 -9q6 4 17.5 10t53 16t89.5 10q116 0 194 -39v-14l-50 -87h-15q0 1 -3.5 9t-5 11.5t-6.5 12
t-8.5 13t-10.5 12t-13.5 12t-16.5 10t-20 8.5t-24 5t-29 2q-62 0 -96 -36q-20 -22 -27 -56t-7 -94v-23h251q42 0 73 11l7 -5q-2 -19 -2 -203v-147q0 -58 3.5 -80t14.5 -35q18 -21 50 -23v-25zM471 665q-3 6 -10 14t-35.5 22t-64.5 14q-65 0 -98 -35q-20 -22 -27 -56.5
t-7 -94.5v-24h205q0 108 37 160z" />
    <glyph glyph-name="ffl" unicode="ffl" horiz-adv-x="981" 
d="M952 -2q-80 4 -125 4q-86 0 -132 -4v25q28 0 49 25q13 15 16.5 43t3.5 103v394l-3 96q-27 30 -86 30q-57 0 -85 -29q-20 -21 -25.5 -55t-5.5 -97v-28h106v-50h-106v-295q0 -60 3 -80.5t13 -33.5q16 -19 49 -23v-25q-80 4 -129 4q-86 0 -132 -4v25q30 0 51 25q13 15 16 42
t3 104v261h-204v-295q0 -60 3 -80.5t13 -33.5q16 -19 49 -23v-25q-80 4 -129 4q-86 0 -132 -4v25q30 0 51 25q13 15 16 42t3 104v261h-66v23q45 16 67 34q0 74 17 116q23 60 86 95.5t159 35.5q48 0 89.5 -8.5t58.5 -16.5l18 -8q48 33 143 33q34 0 63.5 -4t42.5 -8l13 -4
q2 0 7.5 0.5t15 1.5t19.5 3l50 12l7 -5q-4 -72 -4 -195v-399q0 -58 3 -79t13 -35q18 -24 47 -24v-25zM468 666q-3 5 -9.5 13.5t-34 22t-63.5 13.5q-65 0 -98 -35q-20 -22 -27 -56.5t-7 -94.5v-24h205q0 108 34 161z" />
    <glyph glyph-name="f_j" unicode="fj" horiz-adv-x="635" 
d="M561 706l-50 -87h-15q0 1 -3.5 9t-5 11.5t-6.5 12t-8.5 13t-10.5 12t-13.5 12t-16.5 10t-20 8.5t-24 5t-29 2q-62 0 -96 -36q-20 -22 -27 -56t-7 -94v-23h251q42 0 73 11l7 -5q-2 -19 -2 -203v-309q0 -107 -33 -154q-60 -85 -195 -85l-3 26q84 17 100 110q5 27 5 186v283
q0 43 -2 57.5t-10 22.5q-9 10 -38 10h-153v-295q0 -60 3 -80.5t13 -33.5q16 -19 49 -23v-25q-61 4 -129 4l-132 -4v25q30 0 51 25q13 15 16 42t3 104v261h-66v23q45 16 67 34q0 74 17 116q23 61 86 96t160 35q116 0 194 -39v-14z" />
    <glyph glyph-name="t_t" unicode="tt" horiz-adv-x="712" 
d="M705 43q-48 -52 -147 -52q-115 0 -139 92q-8 33 -8 105q0 167 2 267h-198v-277q0 -31 2.5 -50t11 -38.5t28 -29t50.5 -9.5q17 0 33 3.5t24 7.5l7 4l12 -23q-48 -52 -147 -52q-115 0 -139 92q-8 33 -8 105q0 167 2 267h-67v25q41 14 77 45q35 30 87 106h27v-126h181
q18 12 27 20q35 30 87 106h27v-126h165v-50h-165v-277q0 -31 2.5 -50t11 -38.5t28 -29t50.5 -9.5q17 0 33 3.5t24 7.5l7 4z" />
    <glyph glyph-name=".notdef" horiz-adv-x="475" 
 />
    <glyph glyph-name=".null" horiz-adv-x="500" 
 />
    <glyph glyph-name=".null" horiz-adv-x="500" 
 />
    <glyph glyph-name="nonmarkingreturn" horiz-adv-x="333" 
 />
    <glyph glyph-name="CR" unicode="&#xd;" horiz-adv-x="494" 
 />
    <glyph glyph-name="space" unicode=" " horiz-adv-x="200" 
 />
    <glyph glyph-name="exclam" unicode="!" horiz-adv-x="368" 
d="M268 619q0 -15 -3 -54l-46 -382h-51q-42 326 -46 382q-3 39 -3 54q0 71 75 71q74 0 74 -71zM265 59q0 -34 -20.5 -52.5t-50.5 -18.5q-31 0 -52 18t-21 53q0 34 21 52t52 18q30 0 50.5 -17.5t20.5 -52.5z" />
    <glyph glyph-name="quotedbl" unicode="&#x22;" horiz-adv-x="352" 
d="M305 669q0 -19 -3 -43l-33 -219h-31l-32 219q-4 32 -4 43q0 43 52 43q51 0 51 -43zM150 669q0 -19 -3 -43l-33 -219h-31l-32 219q-4 32 -4 43q0 43 52 43q51 0 51 -43z" />
    <glyph glyph-name="numbersign" unicode="#" horiz-adv-x="619" 
d="M590 486l-12 -66h-107l-31 -169h107l-13 -66h-107l-34 -185h-74l34 185h-141l-35 -185h-74l34 185h-108l13 66h107l31 169h-107l12 66h107l34 186h76l-36 -186h142l35 186h74l-34 -186h107zM396 420h-141l-32 -169h142z" />
    <glyph glyph-name="dollar" unicode="$" horiz-adv-x="484" 
d="M225 389v163q-62 -17 -62 -76q0 -29 15 -48t47 -39zM325 133q0 49 -60 85v-170q60 22 60 85zM225 43v200l-54 34q-60 39 -87 73t-27 94q0 23 6.5 45t23 47t52 42.5t86.5 23.5v53h40v-50h8q38 0 76.5 -3t58.5 -6l19 -3q-2 -27 -2 -61l2 -68h-28q-1 38 -27 63
q-30 30 -96 30h-11v-191l51 -32q33 -21 47.5 -31.5t36 -32t30.5 -47t9 -58.5q0 -45 -16 -78.5t-43.5 -52t-55 -28t-59.5 -13.5v-57h-40v58q-4 0 -12 -0.5t-12 -0.5q-99 0 -159 21v23l-4 105h29q2 -36 23 -62q31 -39 103 -39q12 0 32 2z" />
    <glyph glyph-name="percent" unicode="%" horiz-adv-x="612" 
d="M326 534q0 -70 -40.5 -111.5t-107.5 -41.5q-66 0 -106.5 39.5t-40.5 106.5q0 70 40 111t107 41q66 0 107 -39t41 -106zM593 670l-505 -670h-69l505 670h69zM581 143q0 -70 -40 -111t-107 -41q-66 0 -107 39t-41 106q0 70 40.5 111t107.5 41q66 0 106.5 -39t40.5 -106z
M261 532q0 48 -24 72t-58 24q-35 0 -59.5 -24t-24.5 -75q0 -48 24.5 -72t58.5 -24t58.5 24t24.5 75zM517 141q0 48 -24.5 72t-58.5 24t-58.5 -24t-24.5 -75q0 -48 24 -72t58 -24q35 0 59.5 24t24.5 75z" />
    <glyph glyph-name="ampersand" unicode="&#x26;" horiz-adv-x="691" 
d="M687 392q-34 0 -53 -22q-15 -19 -22 -75q-14 -118 -73 -177l31 -36q47 -54 87 -59v-25q-56 4 -101 4q-18 0 -49 -1t-32 -1l-36 41q-6 -5 -18.5 -13t-57 -21t-96.5 -13q-24 0 -45.5 1.5t-59 11.5t-63.5 28t-46 54t-20 86q0 39 14 71t34.5 50.5t41 31.5t34.5 18l14 4
l-23 27q-34 40 -51 73.5t-17 74.5q0 70 45 113t141 43q90 0 136.5 -37t46.5 -105q0 -37 -13.5 -68t-32.5 -48.5t-38.5 -30t-32.5 -16.5l-14 -5l190 -218q4 5 10.5 14t17 43.5t10.5 75.5q0 59 -24 84q-22 22 -54 22v25q53 -4 107 -4l112 4v-25zM352 534q0 53 -17 78t-58 25
q-73 0 -73 -84q0 -24 12 -50t22.5 -39.5t35.5 -42.5l23 -27q6 5 15 14.5t24.5 45.5t15.5 80zM409 76l-216 249q-5 -4 -13 -11.5t-21 -38.5t-13 -71q0 -24 6 -47.5t21.5 -49.5t48.5 -42.5t80 -16.5q31 0 57.5 7t38.5 14z" />
    <glyph glyph-name="quotesingle" unicode="'" horiz-adv-x="197" 
d="M150 669q0 -19 -3 -43l-33 -219h-31l-32 219q-4 32 -4 43q0 43 52 43q51 0 51 -43z" />
    <glyph glyph-name="parenleft" unicode="(" horiz-adv-x="360" 
d="M287 -188l-48 -53q-106 81 -156 216t-50 285t49.5 284.5t156.5 216.5l48 -52q-90 -73 -132 -195.5t-42 -253.5t41.5 -252.5t132.5 -195.5z" />
    <glyph glyph-name="parenright" unicode=")" horiz-adv-x="360" 
d="M327 260q0 -150 -49.5 -284.5t-156.5 -216.5l-48 53q90 73 131.5 195t41.5 253q0 132 -41 254t-132 195l48 52q106 -82 156 -216.5t50 -284.5z" />
    <glyph glyph-name="asterisk" unicode="*" horiz-adv-x="376" 
d="M369 514l-41 -66l-102 87l29 -135h-85l28 135l-102 -87l-41 66l130 44l-130 45l41 66l102 -87l-28 135h85l-29 -135l102 87l41 -66l-130 -45z" />
    <glyph glyph-name="plus" unicode="+" 
d="M527 276h-220v-231h-65v231h-219v62h219v231h65v-231h220v-62z" />
    <glyph glyph-name="comma" unicode="," horiz-adv-x="244" 
d="M204 38q0 -75 -40.5 -133t-86.5 -81l-20 21q51 51 51 116q0 29 -25 46q-33 21 -33 63q0 32 21 50.5t52 18.5q32 0 56.5 -23.5t24.5 -77.5z" />
    <glyph glyph-name="hyphen" unicode="-" horiz-adv-x="241" 
d="M229 216h-217v80h217v-80z" />
    <glyph glyph-name="period" unicode="." horiz-adv-x="245" 
d="M205 64q0 -33 -20.5 -55t-57.5 -22q-36 0 -56.5 21.5t-20.5 55.5q0 33 20.5 54.5t57.5 21.5q36 0 56.5 -21.5t20.5 -54.5z" />
    <glyph glyph-name="slash" unicode="/" horiz-adv-x="272" 
d="M256 760l-168 -1000h-72l169 1000h71z" />
    <glyph glyph-name="zero" unicode="0" horiz-adv-x="588" 
d="M547 307q0 -23 -1 -44t-7 -54.5t-16 -61.5t-29.5 -58.5t-46 -51.5t-68 -34.5t-92.5 -13.5q-62 0 -108.5 22t-72 53.5t-41 76t-20 80t-4.5 73.5q0 23 1 44t7 54.5t16 61.5t29.5 58.5t46 51.5t68 34.5t92.5 13.5q62 0 108.5 -22t72 -53.5t41 -76t20 -80t4.5 -73.5zM410 298
q0 151 -26.5 209t-87.5 58q-36 0 -59.5 -17.5t-37.5 -61.5q-21 -64 -21 -182q0 -151 26.5 -210t86.5 -59q71 0 97 80q22 67 22 183z" />
    <glyph glyph-name="one" unicode="1" horiz-adv-x="378" 
d="M351 -2q-69 4 -147 4l-148 -4v25q44 0 67 26q12 14 15.5 41t3.5 98v291q0 19 -19 19q-14 0 -104 -15v35q75 17 158 52q57 25 85 46l13 -5q-7 -108 -7 -236v-219q0 -54 3.5 -76t14.5 -34q20 -22 65 -22v-26z" />
    <glyph glyph-name="two" unicode="2" horiz-adv-x="498" 
d="M448 177q-6 -74 -6 -146v-31h-422v64q154 116 215 196q59 76 59 161q0 125 -117 125q-78 0 -127 -71l-26 19q54 118 207 118q93 0 147 -45.5t54 -123.5q0 -79 -37.5 -131t-125.5 -118l-139 -98h156q89 0 114 28q17 20 19 53h29z" />
    <glyph glyph-name="three" unicode="3" horiz-adv-x="484" 
d="M439 136q0 -23 -4.5 -45.5t-20 -50.5t-40.5 -48.5t-70 -34.5t-105 -14q-127 0 -199 67l19 27q54 -37 133 -37q76 0 114 38t38 106q0 126 -135 126q-15 0 -37 -2v51h15q142 0 142 124q0 45 -25.5 74t-83.5 29q-79 0 -124 -67l-27 19q17 42 65.5 78t133.5 36q84 0 138 -38
t54 -114q0 -38 -15 -68t-35.5 -46t-46.5 -27t-42.5 -14t-29.5 -4q16 0 33.5 -2.5t47.5 -12.5t51.5 -26t38.5 -48.5t17 -75.5z" />
    <glyph glyph-name="four" unicode="4" horiz-adv-x="549" 
d="M508 -2q-63 4 -141 4l-148 -4v25q44 0 67 26q19 22 19 93v7h-280v78q33 49 149 192t164 187l87 -3v-362h78v-92h-78v-7q0 -75 18 -96q20 -22 65 -22v-26zM305 241v265l-4 -7q-4 -7 -14.5 -22t-23.5 -33l-154 -203h196z" />
    <glyph glyph-name="five" unicode="5" horiz-adv-x="485" 
d="M449 165q0 -98 -59 -160t-181 -62t-194 67l19 27q54 -37 127 -37q77 0 115 41.5t38 110.5q0 68 -34 105t-115 37q-26 0 -48 -3.5t-31 -6.5l-8 -4l-14 11l28 314h324v-99h-277l-14 -153q34 14 99 14t111.5 -18.5t70 -50t33.5 -64t10 -69.5z" />
    <glyph glyph-name="six" unicode="6" horiz-adv-x="558" 
d="M517 203q0 -92 -57 -153t-171 -61q-70 0 -118 23.5t-74 68.5t-36.5 99.5t-10.5 127.5q0 127 45 211q75 143 256 143q48 0 87 -9.5t54 -18.5l15 -10l-12 -31q-33 16 -105 16q-98 0 -152 -59.5t-54 -198.5q5 6 14.5 15t47 23.5t83.5 14.5q82 0 135 -50t53 -151zM382 193
q0 73 -24.5 112t-83.5 39q-28 0 -50.5 -7t-31.5 -13l-8 -7q0 -160 19.5 -222t82.5 -62q51 0 73.5 40.5t22.5 119.5z" />
    <glyph glyph-name="seven" unicode="7" horiz-adv-x="460" 
d="M445 544l-223 -600h-119v15q47 68 131.5 236.5t136.5 313.5h-186q-90 0 -115 -28q-17 -20 -19 -53h-28q6 74 6 146v31h416v-61z" />
    <glyph glyph-name="eight" unicode="8" horiz-adv-x="535" 
d="M505 172q0 -92 -65.5 -137.5t-170.5 -45.5q-116 0 -174 43t-58 115q0 114 157 174l-23 14q-57 37 -84 75t-27 90q0 79 58.5 120.5t154.5 41.5q109 0 158 -43t49 -101q0 -116 -137 -151l43 -25q119 -71 119 -170zM373 509q0 55 -29.5 80.5t-69.5 25.5q-54 0 -77.5 -25.5
t-23.5 -62.5q0 -38 22.5 -63t82.5 -61l33 -19q62 51 62 125zM389 138q0 37 -20.5 63t-79.5 63l-64 39q-74 -56 -74 -146q0 -120 119 -120q62 0 90.5 29.5t28.5 71.5z" />
    <glyph glyph-name="nine" unicode="9" horiz-adv-x="558" 
d="M508 296q0 -161 -76.5 -257t-227.5 -96q-45 0 -83.5 9.5t-54.5 19.5l-16 9l13 31q34 -16 106 -16q98 0 151 58.5t53 195.5q-5 -6 -14.5 -15t-47.5 -23.5t-85 -14.5q-80 0 -132.5 50.5t-52.5 151.5q0 92 57 152.5t173 60.5q69 0 117 -23.5t73.5 -68t36 -98.5t10.5 -126z
M373 285q0 159 -18 220.5t-80 61.5q-54 0 -77 -40t-23 -119q0 -151 107 -151q28 0 51 7t31 14z" />
    <glyph glyph-name="colon" unicode=":" horiz-adv-x="255" 
d="M217 443q0 -33 -20.5 -54.5t-57.5 -21.5q-36 0 -56.5 21.5t-20.5 54.5t20.5 55t57.5 22q36 0 56.5 -21.5t20.5 -55.5zM217 64q0 -33 -20.5 -55t-57.5 -22q-36 0 -56.5 21.5t-20.5 55.5q0 33 20.5 54.5t57.5 21.5q36 0 56.5 -21.5t20.5 -54.5z" />
    <glyph glyph-name="semicolon" unicode=";" horiz-adv-x="255" 
d="M217 443q0 -33 -20.5 -54.5t-57.5 -21.5q-36 0 -56.5 21.5t-20.5 54.5t20.5 55t57.5 22q36 0 56.5 -21.5t20.5 -55.5zM216 38q0 -75 -40.5 -133t-86.5 -81l-20 21q51 51 51 116q0 29 -25 46q-33 21 -33 63q0 32 21 50.5t52 18.5q32 0 56.5 -23.5t24.5 -77.5z" />
    <glyph glyph-name="less" unicode="&#x3c;" 
d="M532 52l-515 245v31l515 246v-70l-411 -191l411 -190v-71z" />
    <glyph glyph-name="equal" unicode="=" 
d="M527 396h-504v63h504v-63zM527 183h-504v63h504v-63z" />
    <glyph glyph-name="greater" unicode="&#x3e;" 
d="M532 297l-515 -245v71l411 190l-411 191v70l515 -246v-31z" />
    <glyph glyph-name="question" unicode="?" horiz-adv-x="461" 
d="M423 530q0 -32 -9 -60t-28 -54t-35.5 -44t-45 -45.5t-43.5 -43.5q-22 -23 -29 -43.5t-7 -56.5h-55q0 1 -0.5 6t-0.5 14.5v20.5q0 34 8 54q9 25 38 64.5t50.5 83.5t21.5 94q0 117 -104 117q-56 0 -83 -33q-19 -23 -22 -61h-28q2 44 2 70l-2 60q68 11 153 11
q219 0 219 -154zM272 58q0 -31 -19 -50.5t-53 -19.5t-53 19.5t-19 51.5q0 31 19 50.5t53 19.5t53 -19.5t19 -51.5z" />
    <glyph glyph-name="at" unicode="@" horiz-adv-x="980" 
d="M942 335q0 -168 -90 -255.5t-228 -87.5q-47 0 -70.5 12.5t-23.5 47.5q0 13 2 27.5t4 22.5l2 8q-75 -118 -166 -118q-129 0 -129 174q0 60 16.5 119.5t28.5 84t20 36.5q72 110 189 110q33 0 60.5 -8.5t38.5 -17.5l11 -8l100 38l10 -7q-17 -81 -43.5 -241t-26.5 -197
q0 -6 1 -9.5t3.5 -8t10 -7t19.5 -2.5q69 0 116 80.5t47 198.5q0 145 -84.5 229t-246.5 84q-96 0 -170 -35t-118 -94.5t-66 -133.5t-22 -158q0 -95 29.5 -166.5t82.5 -113t120 -61.5t148 -20q76 0 143.5 19.5t97.5 38.5l30 20l19 -25q-4 -5 -12 -13.5t-38 -31t-65 -39
t-93 -30.5t-123 -14q-217 0 -327.5 116.5t-110.5 315.5q0 69 16.5 136t55 131.5t93.5 113.5t139 78.5t186 29.5q184 0 299 -95t115 -274zM589 454q-18 11 -55 11q-79 0 -121 -79q-46 -86 -46 -220q0 -21 2 -35.5t7.5 -30t18 -24t31.5 -8.5q48 0 113 79z" />
    <glyph glyph-name="A" unicode="A" horiz-adv-x="602" 
d="M617 -2q-60 4 -119 4l-126 -4v25q28 0 43 14q10 10 10 27t-16 61l-44 130h-197l-46 -130q-16 -45 -16 -62q0 -16 10 -26q14 -13 43 -13v-26q-45 4 -97 4l-92 -4v25q15 1 25.5 6.5t20.5 21.5t15 28t17 42l215 554l85 15l205 -593q14 -37 22 -50q15 -23 42 -24v-25z
M348 306l-54 161q-25 74 -25 92l-1 -5q-1 -4 -3 -11.5t-5 -18t-8 -26t-11 -32.5l-56 -160h163z" />
    <glyph glyph-name="B" unicode="B" horiz-adv-x="600" 
d="M560 188q0 -80 -54 -132q-60 -58 -207 -58q-28 0 -77.5 2t-69.5 2l-116 -4v25q29 0 50 24q12 14 15.5 41.5t3.5 98.5v334q0 55 -3.5 76.5t-14.5 34.5q-16 19 -49 21v25q59 -3 113 -3q19 0 65 1t74 1q29 0 48 -1t51 -5t53.5 -14t43.5 -26t33 -43t11 -63q0 -43 -17.5 -76
t-40 -49t-50 -26t-41.5 -12t-19 -2q21 -2 34.5 -3.5t40.5 -7.5t45.5 -17.5t38 -29.5t29.5 -47t10 -67zM395 509q0 42 -11 69t-30.5 38t-35.5 14.5t-38 3.5l-50 -3v-250q16 -1 45 -1q44 0 63 10q24 12 40.5 43t16.5 76zM425 189q0 146 -145 146l-50 -2v-242q0 -23 6.5 -33.5
t22.5 -13.5q12 -2 41 -2q125 0 125 147z" />
    <glyph glyph-name="C" unicode="C" horiz-adv-x="600" 
d="M564 543h-28q0 34 -27 61q-30 30 -111 30q-30 0 -53.5 -3t-58 -20t-57 -46.5t-39.5 -88.5t-17 -141q0 -292 230 -292q77 0 107 38q21 28 21 62h29q-4 -56 -4 -112v-15q-69 -22 -172 -22q-199 0 -287 116q-62 81 -62 212q0 129 59.5 216.5t159.5 122.5q63 23 158 23
q35 0 73 -3t59 -5l20 -3q-2 -28 -2 -65z" />
    <glyph glyph-name="D" unicode="D" horiz-adv-x="696" 
d="M661 356q0 -146 -62.5 -229t-160.5 -113q-49 -16 -164 -16q-30 0 -71 1.5t-63 1.5l-104 -3v25q29 0 50 24q12 14 15.5 41.5t3.5 98.5v334q0 55 -3.5 76.5t-14.5 34.5q-16 19 -49 21v25q46 -3 103 -3q17 0 69.5 1t85.5 1q365 0 365 -321zM523 342q0 287 -218 287
q-24 0 -42 -1.5t-24 -2.5l-6 -1v-522q0 -25 4.5 -35.5t18.5 -14.5q12 -4 54 -4q113 0 163 72.5t50 221.5z" />
    <glyph glyph-name="E" unicode="E" horiz-adv-x="529" 
d="M480 141q-4 -49 -4 -112v-29h-282l-158 -2v25q29 0 50 24q12 14 15.5 41.5t3.5 98.5v334q0 55 -3.5 76.5t-14.5 34.5q-16 19 -49 21v25q81 -3 150 -3h284v-30l3 -100h-28q0 40 -27 62q-23 19 -88 19h-99v-251h89q57 0 77 22q15 17 18 52h28q-2 -37 -2 -98l3 -96h-29
q-3 34 -19 51q-20 21 -77 21h-88v-226q0 -34 11 -43t51 -9h45q62 0 84 22q24 24 27 70h29z" />
    <glyph glyph-name="F" unicode="F" horiz-adv-x="488" 
d="M473 545h-28q0 40 -27 62q-23 19 -88 19h-97v-251h87q57 0 77 22q15 17 18 52h28q-2 -37 -2 -98l3 -96h-29q-3 34 -19 51q-20 21 -77 21h-86v-172q0 -85 13 -104q18 -27 72 -27v-26q-88 4 -148 4l-134 -4v25q29 0 50 24q12 14 15.5 41.5t3.5 98.5v334q0 55 -3.5 76.5
t-14.5 34.5q-16 19 -49 21v25q74 -3 150 -3h282v-30z" />
    <glyph glyph-name="G" unicode="G" horiz-adv-x="667" 
d="M649 266q-29 0 -50 -24q-12 -14 -15.5 -41.5t-3.5 -98.5v-85q-76 -23 -185 -23q-199 0 -289 107q-71 86 -71 222q0 102 42.5 182t123.5 128q87 51 222 51q41 0 80.5 -3t58.5 -5l20 -3q-2 -27 -2 -64l2 -66h-28q0 33 -27 60q-31 31 -125 31q-34 0 -62 -5.5t-60.5 -24
t-54.5 -50t-37 -87.5t-15 -132q0 -73 14 -127t35.5 -85.5t54.5 -50.5t64.5 -25t71.5 -6l42 2v91q0 56 -3 77t-14 33q-17 20 -50 22v25q73 -4 129 -4l132 4v-25z" />
    <glyph glyph-name="H" unicode="H" horiz-adv-x="750" 
d="M714 653q-29 0 -50 -24q-12 -14 -15.5 -41t-3.5 -98v-335q0 -55 3.5 -76t14.5 -34q17 -20 49 -22v-25q-70 4 -130 4l-134 -4v25q30 0 51 24q12 14 15 40.5t3 99.5v133h-284v-165q0 -56 3 -77t14 -33q17 -20 50 -22v-25q-70 4 -130 4l-134 -4v25q29 0 50 24
q12 14 15.5 41.5t3.5 98.5v334q0 55 -3.5 76.5t-14.5 34.5q-16 19 -49 21v25q70 -4 130 -4l134 4v-25q-30 0 -51 -24q-12 -14 -15 -40t-3 -99v-113h284v144q0 57 -3 78t-14 33q-16 19 -50 21v25q70 -4 130 -4l134 4v-25z" />
    <glyph glyph-name="I" unicode="I" horiz-adv-x="338" 
d="M302 653q-30 0 -51 -24q-12 -14 -15 -40t-3 -99v-335q0 -56 3 -77t14 -33q17 -20 50 -22v-25q-70 4 -130 4l-134 -4v25q29 0 50 24q12 14 15.5 41.5t3.5 98.5v334q0 55 -3.5 76.5t-14.5 34.5q-16 19 -49 21v25q70 -4 130 -4l134 4v-25z" />
    <glyph glyph-name="J" unicode="J" horiz-adv-x="328" 
d="M299 653q-29 0 -50 -24q-12 -14 -15.5 -41t-3.5 -98v-478q0 -94 -25 -148q-50 -107 -203 -104l-3 27q93 17 101 128q2 33 2 184v422q0 57 -3 78t-14 33q-16 19 -50 21v25q70 -4 130 -4l134 4v-25z" />
    <glyph glyph-name="K" unicode="K" horiz-adv-x="633" 
d="M647 -2q-42 3 -103 3l-79 -1l-217 340l191 230q28 32 28 53q0 26 -44 30v25q47 -4 117 -4l106 4v-25q-45 -3 -101 -62l-183 -194l194 -296q27 -42 45 -58.5t46 -19.5v-25zM302 653q-30 0 -51 -24q-12 -14 -15 -40t-3 -99v-335q0 -56 3 -77t14 -33q17 -20 50 -22v-25
q-70 4 -130 4l-134 -4v25q29 0 50 24q12 14 15.5 41.5t3.5 98.5v334q0 55 -3.5 76.5t-14.5 34.5q-16 19 -49 21v25q70 -4 130 -4l134 4v-25z" />
    <glyph glyph-name="L" unicode="L" horiz-adv-x="494" 
d="M473 141q-4 -50 -4 -113v-28h-274l-159 -2v25q29 0 50 24q12 14 15.5 41.5t3.5 98.5v334q0 55 -3.5 76.5t-14.5 34.5q-16 19 -49 21v25q66 -4 136 -4l146 4v-25q-54 -2 -71 -25q-10 -14 -13 -37t-3 -84v-406q0 -34 11 -43t51 -9h38q62 0 84 22q24 24 27 70h29z" />
    <glyph glyph-name="M" unicode="M" horiz-adv-x="861" 
d="M831 -2q-62 4 -126 4l-126 -4v25q32 3 49 23q14 17 14 75l-16 462q-5 -27 -18 -65l-180 -522h-63l-175 522q-12 36 -18 64q-1 -7 -9 -228t-8 -232q0 -62 15 -78q16 -18 48 -21v-25q-49 4 -101 4l-98 -4v25q32 3 50 23q11 13 14.5 37t6.5 97l16 324q2 28 2 72q0 38 -9 52
q-17 22 -53 25v25q56 -4 118 -4l99 3l151 -445q4 -11 7 -23t4.5 -19.5t2.5 -13.5t1 -7q0 13 17 62l155 446q46 -3 99 -3l111 4v-25q-34 -2 -48 -21q-14 -18 -14 -62q0 -21 2 -65l14 -345q4 -95 16 -112q15 -22 50 -25v-25z" />
    <glyph glyph-name="N" unicode="N" horiz-adv-x="718" 
d="M690 653q-29 0 -50 -24q-12 -14 -15.5 -41t-3.5 -98v-494h-81l-342 508q-13 18 -27 47v-396q0 -55 3.5 -76t14.5 -34q17 -20 49 -22v-25q-48 4 -100 4l-102 -4v25q29 0 50 24q12 14 15.5 41.5t3.5 98.5v334q0 55 -3.5 76.5t-14.5 34.5q-16 19 -49 21v25q54 -3 113 -3
l83 3l287 -428q11 -16 19.5 -30.5t11.5 -20.5l2 -6v328q0 57 -3 78t-14 33q-16 19 -50 21v25q50 -4 104 -4l99 4v-25z" />
    <glyph glyph-name="O" unicode="O" horiz-adv-x="711" 
d="M676 347q0 -158 -87.5 -257t-237.5 -99q-148 0 -232 92t-84 246q0 158 88 257t238 99q148 0 231.5 -92t83.5 -246zM539 336q0 60 -10 112t-31 95t-57 67.5t-84 24.5q-52 0 -89.5 -26.5t-57 -72t-28.5 -94t-9 -103.5q0 -82 17 -146.5t59.5 -108t105.5 -43.5
q52 0 89.5 26.5t57 71.5t28.5 93.5t9 103.5z" />
    <glyph glyph-name="P" unicode="P" horiz-adv-x="547" 
d="M540 496q0 -59 -22 -101t-57.5 -62.5t-69.5 -29t-69 -8.5q-17 0 -32.5 1.5t-22.5 3.5l-7 2v29q9 -1 21 -1q53 0 86 31q39 37 39 124q0 81 -32 115t-103 34q-7 0 -22 -1.5t-17 -1.5v-476q0 -85 13 -104q18 -27 72 -27v-26q-87 4 -147 4l-134 -4v25q29 0 50 24
q12 14 15.5 41.5t3.5 98.5v334q0 55 -3.5 76.5t-14.5 34.5q-16 19 -49 21v25q52 -3 109 -3q19 0 66.5 1t75.5 1q73 0 113 -10q138 -33 138 -171z" />
    <glyph glyph-name="Q" unicode="Q" horiz-adv-x="712" 
d="M677 -68l-12 -11q-12 -11 -24.5 -19.5t-32 -19.5t-45 -17.5t-53.5 -6.5q-71 0 -127.5 36.5t-118.5 106.5q-108 26 -168.5 112t-60.5 216q0 158 88 257t238 99q148 0 231.5 -92t83.5 -246q0 -140 -68.5 -232t-186.5 -115q91 -63 170 -63q19 0 37.5 3.5t27.5 7.5l9 4z
M539 336q0 60 -10 112t-31 95t-57 67.5t-84 24.5q-52 0 -89.5 -26.5t-57 -72t-28.5 -94t-9 -103.5q0 -82 17 -147t59.5 -108.5t105.5 -43.5q52 0 89.5 26.5t57 72t28.5 94t9 103.5z" />
    <glyph glyph-name="R" unicode="R" horiz-adv-x="622" 
d="M666 0q-32 -5 -102 -5q-59 0 -86 17.5t-64 66.5q-31 40 -143 208h-41v-132q0 -56 3 -77t14 -33q17 -20 50 -22v-25q-69 4 -127 4l-134 -4v25q29 0 50 24q12 14 15.5 41.5t3.5 98.5v334q0 55 -3.5 76.5t-14.5 34.5q-16 19 -49 21v25q55 -3 103 -3q35 0 78.5 1t66.5 1
q100 0 153 -22q55 -22 78 -64t23 -89q0 -73 -45 -122.5t-101 -64.5q97 -130 155 -202q36 -45 61 -66.5t56 -22.5v-24zM404 489q0 39 -9.5 67t-22.5 42.5t-32 23t-33.5 10.5t-32.5 2l-44 -3v-296q22 -3 56 -3q20 0 33 3q85 19 85 154z" />
    <glyph glyph-name="S" unicode="S" horiz-adv-x="483" 
d="M441 185q0 -58 -22.5 -98t-61 -59t-76 -26.5t-80.5 -7.5q-99 0 -159 21v23l-4 105h29q2 -36 23 -62q31 -39 101 -39q67 0 101 28.5t34 77.5q0 34 -14.5 59t-29.5 36.5t-55 38.5l-58 39q-63 41 -89.5 80.5t-26.5 106.5q0 78 55 127t167 49q38 0 76.5 -3t57.5 -6l19 -3
q-2 -27 -2 -61l2 -68h-28q-2 37 -27 63q-30 30 -94 30q-116 0 -116 -94q0 -41 19 -63t69 -55l64 -42q33 -22 48 -34t37 -36t31.5 -55t9.5 -72z" />
    <glyph glyph-name="T" unicode="T" horiz-adv-x="524" 
d="M530 542h-28q0 43 -25 65q-23 21 -86 21h-65v-468q0 -57 4 -79t15 -35q19 -22 67 -22v-26q-79 4 -150 4l-150 -4v25q43 0 66 24q14 16 17.5 44t3.5 96v441h-65q-63 0 -86 -21q-25 -22 -25 -65h-28q3 39 3 103v30h529v-30z" />
    <glyph glyph-name="U" unicode="U" horiz-adv-x="691" 
d="M679 653q-30 0 -51 -24q-12 -14 -15 -40t-3 -99v-201q0 -121 -17 -167q-49 -131 -250 -131q-113 0 -169 34t-78 93q-16 44 -16 156v247q0 57 -3 78t-14 33q-16 19 -50 21v25q70 -4 130 -4l134 4v-25q-29 0 -50 -24q-12 -14 -15.5 -41t-3.5 -98v-243q0 -33 1.5 -54t6 -48
t14.5 -43t26.5 -31.5t43.5 -22.5t63 -7q44 0 74 12t46 28.5t24.5 48t10 55.5t1.5 65v271q0 55 -3.5 76.5t-14.5 34.5q-16 19 -49 21v25q57 -4 110 -4l117 4v-25z" />
    <glyph glyph-name="V" unicode="V" horiz-adv-x="592" 
d="M634 653q-30 -1 -49 -29q-6 -11 -21 -46l-224 -576l-87 -12l-204 589q-12 34 -23 50q-15 23 -42 24v26q61 -5 120 -5l127 4v-25q-30 0 -44 -14q-10 -10 -10 -26q0 -15 16 -61l115 -338q9 -28 25 -92q0 14 28 93l119 336q16 45 16 62q0 18 -10 27q-16 13 -43 13v25
q46 -4 98 -4l93 4v-25z" />
    <glyph glyph-name="W" unicode="W" horiz-adv-x="906" 
d="M938 653q-32 0 -49 -34q-7 -12 -18 -48l-184 -569l-93 -11l-119 438q-12 43 -16 67l-1 -7q-2 -7 -4 -15.5t-5.5 -22t-7.5 -27.5l-124 -421l-98 -13l-167 583q-12 38 -19 53q-13 26 -42 27v26q53 -5 114 -5l128 4v-25q-29 0 -43 -14q-9 -9 -9 -26q0 -20 12 -62l87 -330
l18 -80q6 33 19 76l135 459l78 7l127 -465l18 -77q6 34 18 74l98 336q12 45 12 63q0 16 -10 26q-12 11 -41 13v25q44 -4 95 -4l91 4v-25z" />
    <glyph glyph-name="X" unicode="X" horiz-adv-x="637" 
d="M635 -2q-64 4 -125 4q-81 0 -133 -4v25q47 0 47 33q0 16 -23 53l-113 177l-111 -178q-21 -33 -21 -52q0 -33 47 -33v-25q-48 4 -101 4q-67 0 -99 -4v25q27 3 47 25q16 17 59 78l147 208l-140 217q-45 70 -60 85q-17 17 -38 17v25q64 -4 125 -4q82 0 134 4v-25
q-47 0 -47 -33q0 -16 23 -53l91 -142l89 143q21 33 21 52q0 33 -47 33v25q48 -4 98 -4q66 0 98 4v-25q-28 -3 -47 -24q-16 -17 -59 -78l-122 -173l162 -253q40 -64 60 -84q18 -18 38 -18v-25z" />
    <glyph glyph-name="Y" unicode="Y" horiz-adv-x="554" 
d="M585 653q-23 -2 -37 -17q-14 -14 -54 -87l-141 -253v-136q0 -57 4 -79t15 -35q19 -22 67 -22v-26q-71 4 -150 4l-150 -4v25q42 0 65 24q14 16 17.5 44t3.5 96v91l-148 272q-38 70 -53 86q-16 16 -36 17v25q56 -4 122 -4l131 4v-25q-27 0 -40 -12q-9 -9 -9 -24t17 -49
l88 -165l27 -54l106 216q18 36 18 54q0 14 -9 23q-12 11 -38 11v25q44 -4 96 -4l88 4v-25z" />
    <glyph glyph-name="Z" unicode="Z" horiz-adv-x="559" 
d="M533 645l-357 -595h212q63 0 85 21q24 24 27 71h28q-4 -57 -4 -123v-19h-500v36l356 590h-180q-66 0 -89 -20q-26 -21 -26 -64h-28q3 46 3 93v40h473v-30z" />
    <glyph glyph-name="bracketleft" unicode="[" horiz-adv-x="331" 
d="M246 -240h-168v1000h168v-56h-72v-887h72v-57z" />
    <glyph glyph-name="backslash" unicode="\" horiz-adv-x="272" 
d="M256 -240h-72l-168 1000h71z" />
    <glyph glyph-name="bracketright" unicode="]" horiz-adv-x="332" 
d="M254 -240h-169v57h73v887h-73v56h169v-1000z" />
    <glyph glyph-name="asciicircum" unicode="^" horiz-adv-x="430" 
d="M411 281h-64l-131 336l-132 -336h-65l182 451h27z" />
    <glyph glyph-name="underscore" unicode="_" horiz-adv-x="516" 
d="M507 -129h-497v50h497v-50z" />
    <glyph glyph-name="grave" unicode="`" horiz-adv-x="500" 
d="M144 704l-1 17l79 29l8 -3l106 -177l-18 -13z" />
    <glyph glyph-name="a" unicode="a" horiz-adv-x="536" 
d="M521 56q-24 -33 -50.5 -48.5t-66.5 -15.5q-76 0 -84 68l-5 -7.5t-15 -16t-26.5 -20.5t-39.5 -16.5t-53 -7.5q-44 0 -75 13t-46 35t-21.5 43.5t-6.5 44.5q0 98 84 129q56 21 200 21v25q0 76 -11 100q-21 47 -87 47q-71 0 -106 -61l-33 21q5 12 13.5 25t28.5 34t56.5 34
t84.5 13q122 0 161 -76q18 -35 18 -137q0 -11 -1.5 -68.5t-1.5 -106.5q0 -60 39 -60q13 0 31 9zM316 87v150q-76 0 -111 -15q-48 -22 -48 -79q0 -40 21.5 -60.5t60.5 -20.5q38 0 77 25z" />
    <glyph glyph-name="b" unicode="b" horiz-adv-x="613" 
d="M576 270q0 -86 -39 -156q-71 -124 -224 -124q-46 0 -84 9t-53 19l-15 9l-64 -38l-13 8q5 49 5 204v370q0 96 -12 113q-13 20 -57 23v27q63 0 127 10q19 3 35.5 7t23.5 7l6 2l7 -5q-4 -72 -4 -195v-105q5 7 15 17t47.5 27t82.5 17q99 0 157.5 -67t58.5 -179zM443 253
q0 198 -143 198q-25 0 -46.5 -6.5t-29.5 -13.5l-9 -7v-347q3 -4 9.5 -10t30.5 -16.5t54 -10.5q134 0 134 213z" />
    <glyph glyph-name="c" unicode="c" horiz-adv-x="477" 
d="M460 470l-48 -80h-15q-16 44 -40 62t-63 18q-61 0 -92.5 -52t-31.5 -144q0 -44 8 -80t26.5 -67.5t53 -49t82.5 -17.5q26 0 51 6.5t37 13.5l12 6l15 -21q-2 -3 -6.5 -8t-21.5 -18t-36.5 -22.5t-52.5 -17.5t-69 -8q-44 0 -83.5 14t-73.5 42t-54.5 78t-20.5 115
q0 123 68.5 199.5t194.5 76.5q49 0 89 -8.5t55 -17.5l16 -8v-12z" />
    <glyph glyph-name="d" unicode="d" horiz-adv-x="618" 
d="M591 15q-58 1 -122 -9l-61 -14l-7 5v58q-2 -3 -5.5 -7t-16.5 -15.5t-29 -20t-42 -15.5t-55 -7q-99 0 -157.5 67.5t-58.5 179.5q0 85 39 155q33 59 90.5 91.5t133.5 32.5q28 0 52.5 -3.5t35.5 -6.5l10 -4v69q0 96 -12 113q-13 20 -57 23v27q63 0 127 10q19 3 35.5 7
t22.5 7l7 2l7 -5q-4 -72 -4 -195v-382q0 -96 12 -113q16 -23 55 -23v-27zM398 82v347q-3 4 -9.5 10t-30.5 16.5t-54 10.5q-134 0 -134 -213q0 -198 143 -198q25 0 46.5 6.5t30.5 13.5z" />
    <glyph glyph-name="e" unicode="e" horiz-adv-x="511" 
d="M476 279h-311v-5q0 -47 8 -83q10 -43 29 -71t44.5 -40t46.5 -16t48 -4q64 0 111 26l15 -22q-20 -25 -68 -49.5t-119 -24.5q-45 0 -86 13t-77.5 40.5t-58 78.5t-21.5 119q0 32 5.5 65t22 72t41.5 68.5t70 49.5t102 20q113 0 164 -77q34 -54 34 -154v-6zM347 328v10
q0 27 -2.5 45t-10 41t-27 35t-49.5 12t-49.5 -13t-28 -36.5t-11.5 -44.5t-3 -49h181z" />
    <glyph glyph-name="f" unicode="f" horiz-adv-x="345" 
d="M425 727l-46 -77h-13q-14 41 -27.5 56t-42.5 15q-23 0 -38 -11t-20.5 -32.5t-7 -37t-1.5 -39.5v-96h106v-50h-106v-294q0 -88 13 -109q19 -28 76 -28v-26q-71 4 -148 4l-137 -4v25q30 0 51 25q13 15 16 42t3 104v261h-66v23q43 15 66 34q0 75 12 118q18 64 69.5 97
t121.5 33q38 0 68 -5t40 -11l11 -5v-12z" />
    <glyph glyph-name="g" unicode="g" horiz-adv-x="578" 
d="M571 442l-147 16l6 -4q6 -5 11.5 -10t13 -15.5t13.5 -22t10 -29.5t4 -38q0 -75 -57 -121.5t-161 -46.5l-52 3q-25 -15 -25 -45q0 -23 15.5 -30.5t42.5 -7.5t63 1t72 1q24 0 42.5 -1.5t44.5 -9t42.5 -20.5t29 -39t12.5 -62q0 -84 -81 -142.5t-221 -58.5q-104 0 -169 29.5
t-65 95.5q0 26 12.5 47.5t27.5 32.5t36 19.5t29.5 10.5t15.5 3q-44 22 -44 76q0 70 86 109q-18 4 -36.5 12.5t-40 26t-35.5 48t-14 70.5q0 72 53.5 123.5t164.5 51.5q52 0 101 -17l200 19v-75zM451 -76q0 21 -7.5 34.5t-24 18.5t-29 6.5t-35.5 1.5h-181q-2 -1 -6.5 -3
t-14.5 -9t-18 -15.5t-14.5 -23t-6.5 -30.5q0 -93 145 -93q87 0 139.5 29t52.5 84zM355 342q0 133 -88 133t-88 -132t87 -132q89 0 89 131z" />
    <glyph glyph-name="h" unicode="h" horiz-adv-x="646" 
d="M620 -2q-51 4 -127 4l-129 -4v25q34 6 51 39q13 26 13 162q0 90 -4 129q-5 43 -28 70t-78 27q-28 0 -50.5 -7t-31.5 -14l-9 -7v-261q0 -59 3 -79.5t13 -34.5q14 -20 45 -24v-25q-55 4 -124 4l-133 -4v25q30 0 51 25q13 15 16 42t3 104v377q0 96 -12 113q-13 20 -57 23v27
q63 0 127 10q19 3 35.5 7t23.5 7l6 2l7 -5q-4 -72 -4 -195v-108q2 3 5 7t16 15t29 19.5t45 15.5t62 7q66 0 105 -28.5t53 -72.5q11 -34 11 -110v-144q0 -58 3.5 -79.5t14.5 -35.5q16 -20 49 -23v-25z" />
    <glyph glyph-name="i" unicode="i" horiz-adv-x="328" 
d="M241 640q0 -65 -75 -65q-33 0 -53 16t-20 46q0 65 75 65q33 0 53 -16t20 -46zM298 -2q-53 4 -128 4l-135 -4v25q29 0 50 25q13 15 16.5 43t3.5 103v135q0 96 -12 113q-16 23 -56 23v26q4 -1 23 0t49 3.5t55 6.5q50 9 61 14l7 -5q-2 -19 -2 -203v-146q0 -58 3.5 -80
t14.5 -35q18 -21 50 -23v-25z" />
    <glyph glyph-name="j" unicode="j" horiz-adv-x="309" 
d="M234 640q0 -65 -74 -65q-33 0 -53.5 16t-20.5 46q0 65 75 65q33 0 53 -16t20 -46zM226 510q-2 -19 -2 -199v-312q0 -107 -33 -154q-60 -85 -195 -85l-3 26q84 17 100 110q5 27 5 186v250q0 93 -12 110q-16 23 -55 23v26q4 -1 23 0t49 3.5t55 6.5q50 9 61 14z" />
    <glyph glyph-name="k" unicode="k" horiz-adv-x="575" 
d="M585 -2q-54 3 -100 3l-73 -1l-169 262l131 136q32 33 32 54q0 12 -7 19q-11 11 -35 11v26q45 -5 114 -5q32 0 57.5 1.5t34.5 2.5l10 1v-26q-37 -1 -99 -58l-127 -114l147 -219q22 -32 40 -47.5t44 -19.5v-26zM288 -2q-49 4 -124 4l-133 -4v25q30 0 51 25q13 15 16 42
t3 104v377q0 96 -12 113q-13 20 -57 23v27q63 0 127 10q19 3 35.5 7t23.5 7l6 2l7 -5q-4 -72 -4 -195v-399q0 -59 3 -79.5t13 -34.5q14 -20 45 -24v-25z" />
    <glyph glyph-name="l" unicode="l" horiz-adv-x="319" 
d="M290 -2q-55 4 -125 4l-134 -4v25q30 0 51 25q13 15 16 42t3 104v377q0 96 -12 113q-13 20 -57 23v27q63 0 127 10q19 3 35.5 7t23.5 7l6 2l7 -5q-4 -72 -4 -195v-399q0 -58 3 -79t13 -35q18 -24 47 -24v-25z" />
    <glyph glyph-name="m" unicode="m" horiz-adv-x="969" 
d="M943 -2q-54 4 -127 4l-129 -4v25q34 6 51 39q13 26 13 161q0 91 -4 130q-9 96 -106 96q-31 0 -56.5 -8t-34.5 -16l-10 -8q13 -28 13 -112v-144q0 -59 3 -79.5t13 -34.5q15 -20 44 -24v-25q-48 4 -120 4l-129 -4v25q33 5 50 39q13 26 13 162q0 101 -3 130q-9 96 -105 96
q-27 0 -49.5 -7t-31.5 -14l-8 -7v-261q0 -59 3 -79.5t13 -34.5q14 -20 45 -24v-25q-52 4 -123 4l-133 -4v25q29 0 50 25q13 15 16.5 43t3.5 103v135q0 96 -12 113q-16 23 -56 23v26q58 0 122 10l61 14l7 -5v-59q5 7 15.5 18t51.5 29t93 18q31 0 57 -7.5t41 -18t25.5 -21.5
t14.5 -19l4 -7q2 3 6 8t19 18t33 22.5t49 17.5t66 8q130 0 163 -102q11 -34 11 -109v-145q0 -58 3.5 -79.5t14.5 -35.5q16 -20 49 -23v-25z" />
    <glyph glyph-name="n" unicode="n" horiz-adv-x="650" 
d="M624 -2q-56 4 -128 4l-129 -4v25q34 6 51 39q13 26 13 162q0 90 -4 129q-5 43 -28 70t-78 27q-28 0 -50.5 -7t-31.5 -14l-9 -7v-261q0 -59 3 -79.5t13 -34.5q14 -20 45 -24v-25q-49 4 -123 4l-133 -4v25q29 0 50 25q13 15 16.5 43t3.5 103v135q0 96 -12 113
q-16 23 -56 23v26q58 0 122 10l61 14l7 -5v-59q5 7 15 18t51 29t94 18q66 0 105 -28.5t53 -72.5q12 -37 12 -110v-144q0 -58 3.5 -79.5t14.5 -35.5q16 -20 49 -23v-25z" />
    <glyph glyph-name="o" unicode="o" horiz-adv-x="586" 
d="M549 258q0 -35 -6.5 -69t-24.5 -71.5t-46 -65t-75.5 -45.5t-109.5 -18q-122 0 -186 69.5t-64 188.5q0 35 6.5 69t24.5 71.5t46 65t75.5 45.5t109.5 18q122 0 186 -69.5t64 -188.5zM415 253q0 37 -5 71t-16.5 69t-37 56t-61.5 21q-23 0 -41.5 -7t-39 -27.5t-32 -67
t-11.5 -116.5q0 -37 5 -71t16.5 -69t37 -56t61.5 -21q23 0 41.5 7t39 27.5t32 67t11.5 116.5z" />
    <glyph glyph-name="p" unicode="p" horiz-adv-x="620" 
d="M583 270q0 -86 -39 -156q-33 -59 -90.5 -91.5t-133.5 -32.5q-28 0 -52.5 3.5t-35.5 6.5l-10 4v-81q0 -88 14 -108q18 -29 75 -29v-26q-76 4 -148 4l-137 -4v25q30 0 51 25q13 15 16 42t3 103v374q0 96 -12 113q-16 23 -55 23v26q57 -1 121 9l62 14l7 -5v-58q2 3 5.5 7
t16.5 15.5t29 20t42 15.5t55 7q99 0 157.5 -67t58.5 -179zM450 253q0 198 -143 198q-25 0 -46.5 -6.5t-30.5 -13.5l-8 -7v-347q3 -4 9.5 -10t30.5 -16.5t54 -10.5q134 0 134 213z" />
    <glyph glyph-name="q" unicode="q" horiz-adv-x="608" 
d="M587 -240q-51 4 -125 4l-134 -4v25q30 0 51 25q13 15 16 42t3 104v95q-5 -7 -15 -17t-47.5 -27t-82.5 -17q-99 0 -157.5 67.5t-58.5 179.5q0 85 39 155q71 124 224 124q45 0 82 -9t51 -17l14 -9l69 36l13 -8q-5 -49 -5 -204v-382q0 -58 3 -79t13 -35q18 -24 47 -24v-25z
M398 82v347q-3 4 -9.5 10t-30.5 16.5t-54 10.5q-134 0 -134 -213q0 -198 143 -198q25 0 46.5 6.5t30.5 13.5z" />
    <glyph glyph-name="r" unicode="r" horiz-adv-x="447" 
d="M453 471l-50 -96h-12l-3 4q-2 4 -4 7t-5.5 8.5t-8 9.5t-10 9.5t-12.5 9.5t-14.5 7t-17 5t-19.5 2q-34 0 -67 -20v-256q0 -88 14 -108q18 -29 76 -29v-26q-73 4 -147 4l-138 -4v25q29 0 50 25q13 15 16.5 42.5t3.5 102.5v136q0 96 -12 113q-16 23 -56 23v26q58 0 122 10
l61 14l7 -5v-66q50 70 137 70q52 0 89 -31v-12z" />
    <glyph glyph-name="s" unicode="s" horiz-adv-x="434" 
d="M389 146q0 -18 -3.5 -35.5t-15.5 -40t-32.5 -39t-58.5 -28t-88 -11.5q-82 0 -142 22v25q0 32 -1.5 57t-2.5 34l-1 9h29q4 -48 34 -74t78 -26q94 0 94 71q0 28 -15 44.5t-48 36.5l-73 44q-40 24 -63 54t-23 82q0 78 60 117q42 28 120 28q36 0 70 -3t49 -7l16 -3
q-3 -22 -3 -60l2 -58h-28q-1 31 -23.5 58.5t-76.5 27.5q-40 0 -60.5 -19t-20.5 -47t13.5 -42.5t44.5 -32.5l69 -39q19 -10 30 -18t30.5 -25.5t29.5 -43.5t10 -58z" />
    <glyph glyph-name="t" unicode="t" horiz-adv-x="390" 
d="M383 43q-48 -52 -147 -52q-115 0 -139 92q-8 33 -8 105q0 167 2 267h-67v25q41 14 77 45q35 30 87 106h27v-126h165v-50h-165v-277q0 -31 2.5 -50t11 -38.5t28 -29t50.5 -9.5q17 0 33 3.5t24 7.5l7 4z" />
    <glyph glyph-name="u" unicode="u" horiz-adv-x="643" 
d="M613 15q-57 1 -121 -9q-19 -3 -34.5 -7t-21.5 -6l-6 -2l-7 5v60l-5 -7.5t-16.5 -15.5t-30.5 -20t-46.5 -16t-63.5 -7q-107 0 -146 79q-21 42 -21 151v109q0 95 -12 112q-15 23 -56 23v26q25 -4 128 11q50 9 61 14l8 -5q-4 -38 -4 -227q0 -91 4 -130q5 -43 27 -69.5
t78 -26.5q28 0 51 6.5t32 13.5l9 7v247q0 95 -12 112q-15 23 -55 23v26q4 -1 23.5 0t49.5 3t55 6q49 8 60 14l8 -5q-3 -29 -3 -197v-135q0 -96 12 -113q16 -23 55 -23v-27z" />
    <glyph glyph-name="v" unicode="v" horiz-adv-x="515" 
d="M530 482q-24 0 -37.5 -19t-30.5 -63l-158 -398l-92 -11l-149 410q-11 31 -17 44t-17.5 24t-28.5 12v26q51 -4 111 -4l125 4v-25q-29 0 -43 -14q-9 -9 -9 -27q0 -15 16 -60l63 -183q10 -30 17 -54t9 -33l2 -9q7 28 29 92l64 186q17 51 17 65q0 15 -10 25q-10 9 -41 11v26
q40 -4 91 -4l89 4v-25z" />
    <glyph glyph-name="w" unicode="w" horiz-adv-x="806" 
d="M814 481q-25 -1 -37 -19.5t-34 -82.5q-3 -6 -4 -9.5t-3 -9.5t-4 -11l-124 -349l-89 -9l-93 297q-12 34 -18 66q0 -1 -2 -8.5t-5.5 -21.5t-8.5 -29l-95 -294l-95 -9l-118 366q-30 90 -42 106q-13 16 -36 17v26q55 -4 114 -4q43 0 119 4v-25q-33 -4 -43 -15q-8 -10 -8 -24
q0 -13 15 -66l58 -191q5 -16 19 -73q0 1 1 4.5t2.5 10t4 14.5t6.5 20.5t8 25.5l103 316h71l101 -322q3 -9 19 -74q0 7 20 73l57 197q15 52 15 66q0 16 -8 24q-11 11 -42 13v26q72 -4 89 -4q53 0 87 4v-26z" />
    <glyph glyph-name="x" unicode="x" horiz-adv-x="532" 
d="M540 -2q-58 4 -131 4l-127 -4v25q28 5 34 12q9 9 9 26q0 18 -27 56l-67 94l-60 -94q-27 -42 -27 -59q0 -18 8 -25q11 -10 35 -10v-25q-48 4 -94 4l-93 -4v25q22 1 48 29q7 8 53 67l101 133l-93 131q-50 71 -65 84q-16 13 -35 15v25q47 -4 120 -4l130 4v-25
q-19 -2 -29 -12q-9 -9 -9 -26t27 -56l49 -68l45 68q27 40 27 59q0 16 -8 24q-9 9 -31 11v25q39 -4 89 -4l88 4v-25q-22 -1 -49 -30q-8 -9 -51 -66l-81 -106l114 -160q48 -68 63 -82q15 -13 37 -15v-25z" />
    <glyph glyph-name="y" unicode="y" horiz-adv-x="518" 
d="M531 481q-25 0 -38 -18t-29 -63l-172 -477q-12 -33 -20 -52t-23.5 -43t-33.5 -37t-47 -22t-66 -9q-74 0 -103 27v12l46 71h13q17 -51 68 -51q39 0 60.5 28t41.5 84l9 26l-174 444q-23 58 -33 68q-11 11 -30 12v26q57 -4 113 -4l123 4v-26q-30 0 -43 -13q-9 -9 -9 -25
q0 -19 17 -62l69 -179q10 -25 17.5 -49.5t10.5 -36.5l2 -11l86 276q15 46 15 64q0 15 -9 24q-10 10 -42 12v26q42 -4 88 -4l93 4v-26z" />
    <glyph glyph-name="z" unicode="z" horiz-adv-x="482" 
d="M442 145q-3 -44 -3 -114v-31h-409v38l267 419h-98q-73 0 -97 -25q-19 -20 -20 -55h-29q4 48 4 99v28h384v-32l-265 -424h115q71 0 97 29q22 26 25 68h29z" />
    <glyph glyph-name="braceleft" unicode="{" horiz-adv-x="414" 
d="M372 -240q-121 2 -169 49q-27 27 -37.5 63.5t-10.5 104.5v125q0 72 -22 100t-93 44v29q71 15 93 42.5t22 100.5v125q0 68 10.5 104.5t37.5 63.5q48 47 169 49v-39q-66 -1 -92 -43q-19 -32 -19 -118v-85q0 -112 -25 -154q-28 -50 -115 -61q87 -11 115 -61q25 -42 25 -153
v-86q0 -86 19 -118q25 -40 92 -43v-39z" />
    <glyph glyph-name="bar" unicode="|" horiz-adv-x="249" 
d="M160 -240h-71v1000h71v-1000z" />
    <glyph glyph-name="braceright" unicode="}" horiz-adv-x="414" 
d="M374 246q-71 -15 -93 -43t-22 -101v-125q0 -68 -10.5 -104.5t-37.5 -63.5q-48 -47 -169 -49v39q66 1 92 43q20 33 20 118v86q0 113 24 153q28 50 115 61q-87 11 -115 61q-24 40 -24 154v85q0 85 -20 118q-25 40 -92 43v39q121 -2 169 -49q27 -27 37.5 -63.5t10.5 -104.5
v-125q0 -72 22 -99.5t93 -43.5v-29z" />
    <glyph glyph-name="asciitilde" unicode="~" horiz-adv-x="626" 
d="M606 420q-18 -84 -52.5 -121.5t-89.5 -37.5q-48 0 -127 31l-67 26q-75 29 -118 29q-77 0 -112 -98l-20 7q18 84 52 121.5t89 37.5q47 0 128 -31l67 -26q74 -29 118 -29q76 0 111 98z" />
    <glyph glyph-name="nbspace" unicode="&#xa0;" horiz-adv-x="200" 
 />
    <glyph glyph-name="exclamdown" unicode="&#xa1;" horiz-adv-x="368" 
d="M247 445q0 -34 -21 -52t-52 -18q-30 0 -50.5 17.5t-20.5 52.5q0 34 20.5 52.5t50.5 18.5q31 0 52 -18t21 -53zM249 -115q0 -71 -75 -71q-74 0 -74 71q0 15 3 54l46 382h51q42 -327 46 -382q3 -39 3 -54z" />
    <glyph glyph-name="cent" unicode="&#xa2;" horiz-adv-x="492" 
d="M468 513l-48 -80h-15q-15 39 -35.5 57.5t-53.5 21.5v-407q20 -2 32 -2q26 0 51 6.5t37 12.5l12 7l15 -21q-5 -7 -15.5 -17t-48.5 -29.5t-83 -25.5v-63h-44v61q-93 2 -160 63.5t-67 185.5q0 114 59 188.5t168 85.5v65h44v-63q47 -1 85 -9.5t53 -16.5l14 -8v-12zM272 115
v396q-97 -26 -97 -194q0 -158 97 -202z" />
    <glyph glyph-name="sterling" unicode="&#xa3;" horiz-adv-x="541" 
d="M521 105q-18 -61 -43 -94q-31 -41 -85 -41q-40 0 -105 22l-124 42q-20 8 -38 8q-36 -60 -81 -60q-30 0 -30 27q0 22 23.5 40t59.5 25q14 44 14 149v62h-73v52h73v24q0 108 32 160q56 91 198 91q100 0 159 -34v-13l-45 -70h-14q-3 12 -11 25.5t-33 29.5t-59 16
q-57 0 -80 -35q-20 -29 -20 -101v-93h176v-52h-176v-11q0 -96 -55 -158q-23 -25 -38 -34q38 16 74 16q33 0 73 -9l87 -21q30 -7 47 -7q24 0 38.5 12t29.5 44z" />
    <glyph glyph-name="currency" unicode="&#xa4;" horiz-adv-x="543" 
d="M515 165l-35 -34l-66 63q-37 -25 -66 -34.5t-68 -9.5t-67.5 9.5t-65.5 35.5l-67 -64l-35 34l68 65q-27 37 -37 64.5t-10 66.5q0 36 10 64.5t37 66.5l-68 65l35 33l67 -64q38 26 66 35.5t67 9.5t67.5 -10t66.5 -36l66 65l35 -33l-67 -65q27 -37 37 -65.5t10 -65.5
q0 -39 -10 -66.5t-37 -64.5zM428 361q0 59 -43.5 101t-103.5 42q-62 0 -105 -42t-43 -101q0 -60 43 -102.5t105 -42.5q60 0 103.5 42.5t43.5 102.5z" />
    <glyph glyph-name="yen" unicode="&#xa5;" horiz-adv-x="563" 
d="M463 174h-118v-16q0 -87 15 -107q17 -25 74 -27v-28q-75 4 -161 4l-143 -4v28q47 0 67 22q22 24 22 109v19h-119v40h119v63h-119v41h98l-97 160q-39 64 -55.5 82t-40.5 19v25q48 -4 120 -4q102 0 130 4v-25q-50 0 -50 -36q0 -20 31 -71l49 -80q3 -5 14.5 -23t16.5 -27
q2 4 7 12t9.5 16t8.5 15l60 103q23 37 23 56q0 35 -46 35v25q52 -4 104 -4q36 0 84 4v-25q-24 -2 -43 -19.5t-56 -75.5l-107 -166h103v-41h-118v-63h118v-40z" />
    <glyph glyph-name="brokenbar" unicode="&#xa6;" horiz-adv-x="202" 
d="M132 377h-62v251h62v-251zM132 -126h-62v252h62v-252z" />
    <glyph glyph-name="section" unicode="&#xa7;" horiz-adv-x="520" 
d="M481 295q0 -129 -151 -178q99 -64 99 -159q0 -70 -47.5 -115t-150.5 -45q-49 0 -88.5 8.5t-54.5 17.5l-16 8v12l48 80h15q24 -80 106 -80q47 0 66.5 23.5t19.5 51.5t-12.5 47.5t-46.5 43.5l-127 87q-22 15 -34.5 25.5t-31 31t-27.5 48t-9 61.5q0 129 151 178
q-99 64 -99 159q0 70 47.5 114.5t150.5 44.5q49 0 88.5 -8.5t54.5 -16.5l16 -8v-13l-48 -79h-15q-24 79 -106 79q-47 0 -66.5 -23.5t-19.5 -51.5q0 -27 12.5 -46.5t46.5 -43.5l127 -88q18 -13 26.5 -19t26 -23t26 -32t16 -39.5t7.5 -51.5zM370 251q0 35 -16 60.5t-58 54.5
l-77 54q-26 -14 -47.5 -42.5t-21.5 -71.5q0 -35 16 -60.5t58 -54.5l77 -54q26 14 47.5 42.5t21.5 71.5z" />
    <glyph glyph-name="dieresis" unicode="&#xa8;" horiz-adv-x="500" 
d="M408 649q0 -28 -17 -44.5t-45 -16.5q-27 0 -43.5 16.5t-16.5 43.5q0 28 17.5 44.5t44.5 16.5t43.5 -16t16.5 -44zM213 649q0 -29 -16.5 -45t-45.5 -16q-26 0 -42.5 16.5t-16.5 43.5q0 28 16.5 44.5t45.5 16.5q27 0 43 -16t16 -44z" />
    <glyph glyph-name="copyright" unicode="&#xa9;" horiz-adv-x="822" 
d="M786 220q0 -166 -106.5 -273.5t-270.5 -107.5t-268.5 107t-104.5 274q0 166 107 274t271 108t268 -107.5t104 -274.5zM721 220q0 140 -87 233.5t-220 93.5q-136 0 -224 -93t-88 -234q0 -140 87 -233.5t220 -93.5q136 0 224 93t88 234zM548 349h-20q0 25 -16 39
q-25 21 -69 21q-19 0 -34.5 -2.5t-36 -14t-34 -30.5t-23.5 -55t-10 -85q0 -83 34.5 -132t105.5 -49q47 0 66 24q13 16 13 41h20q-2 -38 -2 -69v-15q-41 -15 -105 -15q-121 0 -178 74q-40 53 -40 134q0 80 38 134.5t101 78.5q37 14 93 14q23 0 47.5 -2t37.5 -4l12 -1
q-1 -13 -1 -45t1 -41z" />
    <glyph glyph-name="ordfeminine" unicode="&#xaa;" horiz-adv-x="315" 
d="M289 466q-23 -36 -63 -36q-35 0 -44 33q-28 -34 -74 -34q-39 0 -57 22t-18 52q0 23 14 43t40 28t92 8v15q0 39 -3 48q-9 31 -49 31q-30 0 -54 -30l-15 10q6 20 29 40t65 20q65 0 84 -40q10 -21 10 -59q0 -20 -1 -57.5t-1 -49.5q0 -38 21 -38q7 0 15 5zM179 481v77
q-42 -2 -56 -9q-23 -11 -23 -39q0 -42 40 -42q23 0 39 13z" />
    <glyph glyph-name="guillemotleft" unicode="&#xab;" horiz-adv-x="441" 
d="M395 41h-87l-101 220l101 221h87l-89 -221zM214 41h-86l-102 220l102 221h86l-88 -221z" />
    <glyph glyph-name="logicalnot" unicode="&#xac;" 
d="M527 194h-63v136h-441v62h504v-198z" />
    <glyph glyph-name="sfthyphen" unicode="&#xad;" horiz-adv-x="241" 
d="M229 216h-217v80h217v-80z" />
    <glyph glyph-name="registered" unicode="&#xae;" horiz-adv-x="822" 
d="M786 220q0 -166 -106.5 -273.5t-270.5 -107.5t-268.5 107t-104.5 274q0 166 107 274t271 108t268 -107.5t104 -274.5zM721 220q0 140 -87 233.5t-220 93.5q-136 0 -224 -93t-88 -234q0 -140 87 -233.5t220 -93.5q136 0 224 93t88 234zM637 15q-13 -3 -55 -3q-31 0 -51 9
t-28 17.5t-29 35.5q-36 47 -87 121h-31v-81q0 -53 7 -65q15 -15 34 -17v-18q-50 2 -79 2q-27 0 -77 -2v18q18 2 30 15q11 13 11 86v210q0 53 -7 65q-7 15 -33 17v18q50 -2 63 -2q23 0 46.5 1t42.5 1q39 0 68 -7q27 -7 45.5 -21.5t25.5 -31.5t9 -28t2 -21q0 -44 -25.5 -75.5
t-67.5 -46.5l106 -126q43 -52 80 -53v-18zM464 322q0 31 -8 51t-23 28t-24.5 10t-23.5 3q-11 0 -29 -2v-187q8 -2 31 -2q18 0 26 2q51 11 51 97z" />
    <glyph glyph-name="macron" unicode="&#xaf;" horiz-adv-x="500" 
d="M389 603h-279v71h279v-71z" />
    <glyph glyph-name="degree" unicode="&#xb0;" horiz-adv-x="415" 
d="M365 602q0 -65 -46 -110t-113 -45q-65 0 -110.5 45t-45.5 110t45.5 110t110.5 45q67 0 113 -45t46 -110zM304 602q0 43 -28 71.5t-69 28.5t-69 -28.5t-28 -71.5q0 -42 28 -71.5t69 -29.5t69 29.5t28 71.5z" />
    <glyph glyph-name="plusminus" unicode="&#xb1;" 
d="M527 337h-220v-226h-65v226h-219v63h219v226h65v-226h220v-63zM527 0h-504v62h504v-62z" />
    <glyph glyph-name="twosuperior" unicode="&#xb2;" horiz-adv-x="349" 
d="M295 474q-6 -42 -6 -108h-243v32q4 4 21.5 19.5t24.5 21.5t22 20t23.5 23.5t19.5 23.5t19 27q29 47 29 98q0 76 -70 76q-44 0 -69 -41l-18 10q30 76 122 76q60 0 89.5 -33t29.5 -74q0 -83 -75 -144q-34 -28 -101 -79h88q46 0 58 12q10 10 13 40h23z" />
    <glyph glyph-name="threesuperior" unicode="&#xb3;" horiz-adv-x="350" 
d="M300 473q0 -50 -33.5 -83.5t-106.5 -33.5q-40 0 -71 14.5t-44 30.5l13 18q34 -25 73 -25q49 0 68.5 26t19.5 57q0 35 -20.5 54.5t-54.5 19.5q-5 0 -13.5 -1t-11.5 -1v29h15q75 0 75 70q0 60 -59 60q-44 0 -69 -43l-19 11q30 76 117 76q107 0 107 -91q0 -26 -11 -45.5
t-28 -28.5t-27 -12.5t-19 -5.5q5 0 13 -1t24.5 -6.5t29 -15t22.5 -28.5t10 -45z" />
    <glyph glyph-name="acute" unicode="&#xb4;" horiz-adv-x="500" 
d="M357 721l-1 -17l-174 -147l-18 13l106 177l8 3z" />
    <glyph glyph-name="mu" unicode="&#xb5;" horiz-adv-x="549" 
d="M519 41q-36 -47 -82 -47q-32 0 -45 18.5t-13 41.5q-7 -11 -18.5 -23t-39.5 -25t-62 -13q-26 0 -46.5 6.5t-29 13.5t-16 16t-8.5 9v-186q-49 -8 -59 -11q-33 -8 -62 -21l-6 14q22 11 30.5 19.5t18.5 24.5q13 21 13 107v320q0 85 -10 102q-11 18 -41 21v16q24 -2 73 7
q35 6 50 14l4 -3q-5 -44 -5 -185q0 -107 5 -147q12 -97 115 -97q49 0 92 31v241q0 83 -6 96q-1 3 -3 6q-12 18 -41 21v16q25 -2 74 7q33 6 49 14l4 -3q-3 -35 -3 -186v-166q0 -20 1 -31t10 -23t27 -12q13 0 21 7z" />
    <glyph glyph-name="paragraph" unicode="&#xb6;" horiz-adv-x="440" 
d="M418 735q-29 0 -50 -26q-13 -15 -15.5 -43t-2.5 -110v-524q0 -87 -10.5 -133t-40.5 -79q-58 -61 -164 -61q-38 0 -71 5.5t-48 11t-21 10.5v14l43 72h14q28 -70 92 -70q28 0 47.5 9.5t29 21.5t14.5 38t5.5 42.5t0.5 52.5v15v356q-91 4 -153.5 55.5t-62.5 154.5
q0 72 34 119.5t85 70.5q47 20 164 20l110 3v-25z" />
    <glyph glyph-name="periodcentered" unicode="&#xb7;" horiz-adv-x="290" 
d="M217 269q0 -30 -19.5 -51t-52.5 -21t-52.5 20.5t-19.5 51.5q0 30 19.5 51t52.5 21t52.5 -20.5t19.5 -51.5z" />
    <glyph glyph-name="cedilla" unicode="&#xb8;" horiz-adv-x="500" 
d="M231 2l36 1l-26 -48q102 -14 102 -84q0 -41 -30.5 -64t-79.5 -23q-41 0 -72 12l8 25q21 -6 37 -6q26 0 41.5 11.5t15.5 32.5q0 46 -77 50l-2 4z" />
    <glyph glyph-name="onesuperior" unicode="&#xb9;" horiz-adv-x="277" 
d="M247 359q-4 0 -37 1t-55 1q-19 0 -52 -1t-38 -1v22q27 3 40 16q9 9 11 28.5t2 71.5v170q0 11 -10 11q-5 0 -25 -4l-34 -6v27q65 20 87 30q22 9 50 30l11 -6q-3 -135 -3 -140v-134q0 -58 8 -74q11 -16 45 -20v-22z" />
    <glyph glyph-name="ordmasculine" unicode="&#xba;" horiz-adv-x="336" 
d="M304 575q0 -58 -33.5 -102.5t-105.5 -44.5q-63 0 -97.5 37.5t-34.5 103.5q0 58 33.5 102.5t105.5 44.5q63 0 97.5 -37.5t34.5 -103.5zM233 573q0 115 -66 115q-16 0 -31 -11q-32 -24 -32 -106q0 -115 66 -115q16 0 31 11q32 24 32 106z" />
    <glyph glyph-name="guillemotright" unicode="&#xbb;" horiz-adv-x="441" 
d="M415 261l-102 -220h-86l88 220l-88 221h86zM234 261l-101 -220h-87l89 220l-89 221h87z" />
    <glyph glyph-name="onequarter" unicode="&#xbc;" horiz-adv-x="696" 
d="M247 299q-5 0 -38 1t-55 1q-20 0 -53.5 -1t-38.5 -1v22q27 3 40 17q14 15 14 99v170q0 10 -11 10q-9 0 -33.5 -5t-26.5 -5v28q4 1 24 7t29 9t26.5 9.5t32 15t28.5 19.5l12 -6q-3 -69 -3 -141v-133q0 -62 8.5 -76t44.5 -18v-22zM653 -1h-2q-2 0 -6 0.5t-10 1t-13.5 0.5
t-16 0.5t-18.5 0.5h-20h-19.5t-19.5 -0.5t-17.5 -1t-15 -0.5t-11.5 -0.5t-7 -0.5h-2v23q17 1 26 4t17.5 20.5t8.5 51.5h-167v34q41 63 110.5 152.5t98.5 110.5l36 -3q-2 -46 -2 -140v-101h50v-53h-50q0 -44 8 -59t42 -17v-23zM527 151v159q-32 -52 -113 -159h113zM585 733
l-405 -788h-60l405 788h60z" />
    <glyph glyph-name="onehalf" unicode="&#xbd;" horiz-adv-x="696" 
d="M229 299q-5 0 -38 1t-55 1q-20 0 -53.5 -1t-38.5 -1v22q27 3 40 17q14 15 14 99v170q0 10 -11 10q-9 0 -33.5 -5t-26.5 -5v28q4 1 24 7t29 9t26.5 9.5t32 15t28.5 19.5l12 -6q-3 -69 -3 -141v-133q0 -62 8.5 -76t44.5 -18v-22zM654 113q-6 -42 -6 -113h-248v35q2 2 25 22
t29 26t25.5 25t27 29t21 28.5t19 32.5t10.5 32.5t5 36.5q0 44 -22 60t-50 16q-43 0 -69 -42l-19 11q31 75 124 75q62 0 92 -32.5t30 -74.5q0 -41 -17.5 -73t-61.5 -71q-38 -34 -89 -69l-19 -7h97q40 0 54.5 9.5t18.5 43.5h23zM564 733l-405 -788h-60l405 788h60z" />
    <glyph glyph-name="threequarters" unicode="&#xbe;" horiz-adv-x="696" 
d="M666 -1h-2q-2 0 -6 0.5t-10 1t-13.5 0.5t-16 0.5t-18.5 0.5h-20h-19.5t-19.5 -0.5t-17.5 -1t-15 -0.5t-11.5 -0.5t-7 -0.5h-2v23q17 1 26 4t17.5 20.5t8.5 51.5h-167v34q41 63 110.5 152.5t98.5 110.5l36 -3q-2 -46 -2 -140v-101h50v-53h-50q0 -44 8 -59t42 -17v-23z
M283 413q0 -50 -34.5 -83.5t-110.5 -33.5q-42 0 -74 14.5t-44 31.5l13 17q38 -25 75 -25q51 0 71 25.5t20 57.5q0 35 -21 54.5t-56 19.5q-7 0 -15 -0.5t-11 -0.5v28h11q81 0 81 70q0 7 -1.5 14t-6.5 19t-18.5 19.5t-34.5 7.5q-46 0 -70 -43l-20 11q32 76 121 76q15 0 28 -2
t34.5 -9.5t34.5 -28t13 -51.5q0 -26 -11.5 -45.5t-29 -29t-29 -13t-19.5 -4.5q8 0 20 -2.5t33.5 -10.5t36 -29.5t14.5 -53.5zM540 151v159q-32 -52 -113 -159h113zM598 733l-405 -788h-60l405 788h60z" />
    <glyph glyph-name="questiondown" unicode="&#xbf;" horiz-adv-x="462" 
d="M333 445q0 -31 -19 -50.5t-53 -19.5t-53 19.5t-19 51.5q0 31 19 50.5t53 19.5t53 -19.5t19 -51.5zM411 -169q-69 -11 -154 -11q-219 0 -219 155q0 32 9 60t28 54t36 44t45.5 45.5t43.5 43.5q22 23 29 43t7 56h54v-6t0.5 -14t0.5 -20q0 -34 -8 -54q-9 -25 -38 -65
t-50.5 -84t-21.5 -94q0 -116 104 -116q57 0 84 33q19 23 22 61h28q-2 -44 -2 -71z" />
    <glyph glyph-name="Agrave" unicode="&#xc0;" horiz-adv-x="602" 
d="M617 -2q-60 4 -119 4l-126 -4v25q28 0 43 14q10 10 10 27t-16 61l-44 130h-197l-46 -130q-16 -45 -16 -62q0 -16 10 -26q14 -13 43 -13v-26q-45 4 -97 4l-92 -4v25q15 1 25.5 6.5t20.5 21.5t15 28t17 42l215 554l85 15l205 -593q14 -37 22 -50q15 -23 42 -24v-25z
M348 306l-54 161q-25 74 -25 92l-1 -5q-1 -4 -3 -11.5t-5 -18t-8 -26t-11 -32.5l-56 -160h163zM190 816l-5 17l70 47l9 -1l148 -148l-14 -16z" />
    <glyph glyph-name="Aacute" unicode="&#xc1;" horiz-adv-x="602" 
d="M617 -2q-60 4 -119 4l-126 -4v25q28 0 43 14q10 10 10 27t-16 61l-44 130h-197l-46 -130q-16 -45 -16 -62q0 -16 10 -26q14 -13 43 -13v-26q-45 4 -97 4l-92 -4v25q15 1 25.5 6.5t20.5 21.5t15 28t17 42l215 554l85 15l205 -593q14 -37 22 -50q15 -23 42 -24v-25z
M348 306l-54 161q-25 74 -25 92l-1 -5q-1 -4 -3 -11.5t-5 -18t-8 -26t-11 -32.5l-56 -160h163zM429 832l-6 -17l-207 -101l-14 17l148 147l9 2z" />
    <glyph glyph-name="Acircumflex" unicode="&#xc2;" horiz-adv-x="602" 
d="M617 -2q-60 4 -119 4l-126 -4v25q28 0 43 14q10 10 10 27t-16 61l-44 130h-197l-46 -130q-16 -45 -16 -62q0 -16 10 -26q14 -13 43 -13v-26q-45 4 -97 4l-92 -4v25q15 1 25.5 6.5t20.5 21.5t15 28t17 42l215 554l85 15l205 -593q14 -37 22 -50q15 -23 42 -24v-25z
M348 306l-54 161q-25 74 -25 92l-1 -5q-1 -4 -3 -11.5t-5 -18t-8 -26t-11 -32.5l-56 -160h163zM329 874l127 -145l-15 -15l-138 74l-134 -74l-15 15l126 145l7 3h36z" />
    <glyph glyph-name="Atilde" unicode="&#xc3;" horiz-adv-x="602" 
d="M617 -2q-60 4 -119 4l-126 -4v25q28 0 43 14q10 10 10 27t-16 61l-44 130h-197l-46 -130q-16 -45 -16 -62q0 -16 10 -26q14 -13 43 -13v-26q-45 4 -97 4l-92 -4v25q15 1 25.5 6.5t20.5 21.5t15 28t17 42l215 554l85 15l205 -593q14 -37 22 -50q15 -23 42 -24v-25z
M348 306l-54 161q-25 74 -25 92l-1 -5q-1 -4 -3 -11.5t-5 -18t-8 -26t-11 -32.5l-56 -160h163zM451 867l19 -8q-40 -112 -103 -112q-26 0 -62 15l-35 15q-33 12 -50 12q-31 0 -55 -42l-19 9q39 108 103 108q20 0 61 -15l35 -14q34 -13 50 -12q31 0 56 44z" />
    <glyph glyph-name="Adieresis" unicode="&#xc4;" horiz-adv-x="602" 
d="M617 -2q-60 4 -119 4l-126 -4v25q28 0 43 14q10 10 10 27t-16 61l-44 130h-197l-46 -130q-16 -45 -16 -62q0 -16 10 -26q14 -13 43 -13v-26q-45 4 -97 4l-92 -4v25q15 1 25.5 6.5t20.5 21.5t15 28t17 42l215 554l85 15l205 -593q14 -37 22 -50q15 -23 42 -24v-25z
M348 306l-54 161q-25 74 -25 92l-1 -5q-1 -4 -3 -11.5t-5 -18t-8 -26t-11 -32.5l-56 -160h163zM463 795q0 -28 -17 -44.5t-45 -16.5q-27 0 -43.5 16.5t-16.5 43.5q0 28 17.5 44.5t44.5 16.5t43.5 -16t16.5 -44zM268 795q0 -29 -16.5 -45t-45.5 -16q-26 0 -42.5 16.5
t-16.5 43.5q0 28 16.5 44.5t45.5 16.5q27 0 43 -16t16 -44z" />
    <glyph glyph-name="Aring" unicode="&#xc5;" horiz-adv-x="602" 
d="M617 -2q-60 4 -119 4l-126 -4v25q28 0 43 14q10 10 10 27t-16 61l-44 130h-197l-46 -130q-16 -45 -16 -62q0 -16 10 -26q14 -13 43 -13v-26q-45 4 -97 4l-92 -4v25q15 1 25.5 6.5t20.5 21.5t15 28t17 42l215 554l85 15l205 -593q14 -37 22 -50q15 -23 42 -24v-25z
M348 306l-54 161q-25 74 -25 92l-1 -5q-1 -4 -3 -11.5t-5 -18t-8 -26t-11 -32.5l-56 -160h163zM417 818q0 -48 -32 -77.5t-83 -29.5q-54 0 -85 29.5t-31 77.5q0 47 32.5 76t85.5 29q49 0 81 -29t32 -76zM350 818q0 71 -48 71q-49 0 -49 -71q0 -73 51 -73q46 0 46 73z" />
    <glyph glyph-name="AE" unicode="&#xc6;" horiz-adv-x="767" 
d="M718 141q-3 -49 -3 -112v-29h-272q-137 0 -165 -2v25q30 0 51 24q12 14 15 40.5t3 99.5v129h-141l-102 -206q-18 -36 -18 -53q0 -32 49 -34v-25q-52 4 -101 4q-45 0 -93 -4v25q19 1 36 16q23 19 57 84l295 554q24 -2 90 -2h292v-30l3 -100h-28q0 40 -27 62q-23 19 -88 19
h-99v-262h88q57 0 77 22q16 19 19 52h28q-2 -37 -2 -98l2 -96h-28q-3 34 -19 51q-20 21 -78 21h-87v-215q0 -34 11 -43t51 -9h45q62 0 84 22q24 24 27 70h28zM347 362v250q-1 -1 -3.5 -8.5t-8.5 -22.5t-14 -32l-93 -187h119z" />
    <glyph glyph-name="Ccedilla" unicode="&#xc7;" horiz-adv-x="600" 
d="M564 543h-28q0 34 -27 61q-30 30 -111 30q-30 0 -53.5 -3t-58 -20t-57 -46.5t-39.5 -88.5t-17 -141q0 -292 230 -292q77 0 107 38q21 28 21 62h29q-4 -56 -4 -112v-15q-69 -22 -172 -22h-6l-21 -39q102 -14 102 -84q0 -41 -30.5 -64t-79.5 -23q-41 0 -72 12l8 25
q21 -6 37 -6q26 0 41.5 11.5t15.5 32.5q0 46 -77 50l-2 4l43 82q-168 11 -246 115q-62 81 -62 212q0 129 59.5 216.5t159.5 122.5q63 23 158 23q35 0 73 -3t59 -5l20 -3q-2 -28 -2 -65z" />
    <glyph glyph-name="Egrave" unicode="&#xc8;" horiz-adv-x="529" 
d="M480 141q-4 -49 -4 -112v-29h-282l-158 -2v25q29 0 50 24q12 14 15.5 41.5t3.5 98.5v334q0 55 -3.5 76.5t-14.5 34.5q-16 19 -49 21v25q81 -3 150 -3h284v-30l3 -100h-28q0 40 -27 62q-23 19 -88 19h-99v-251h89q57 0 77 22q15 17 18 52h28q-2 -37 -2 -98l3 -96h-29
q-3 34 -19 51q-20 21 -77 21h-88v-226q0 -34 11 -43t51 -9h45q62 0 84 22q24 24 27 70h29zM155 816l-5 17l70 47l9 -1l148 -148l-14 -16z" />
    <glyph glyph-name="Eacute" unicode="&#xc9;" horiz-adv-x="529" 
d="M480 141q-4 -49 -4 -112v-29h-282l-158 -2v25q29 0 50 24q12 14 15.5 41.5t3.5 98.5v334q0 55 -3.5 76.5t-14.5 34.5q-16 19 -49 21v25q81 -3 150 -3h284v-30l3 -100h-28q0 40 -27 62q-23 19 -88 19h-99v-251h89q57 0 77 22q15 17 18 52h28q-2 -37 -2 -98l3 -96h-29
q-3 34 -19 51q-20 21 -77 21h-88v-226q0 -34 11 -43t51 -9h45q62 0 84 22q24 24 27 70h29zM405 832l-6 -17l-207 -101l-14 17l148 147l9 2z" />
    <glyph glyph-name="Ecircumflex" unicode="&#xca;" horiz-adv-x="529" 
d="M480 141q-4 -49 -4 -112v-29h-282l-158 -2v25q29 0 50 24q12 14 15.5 41.5t3.5 98.5v334q0 55 -3.5 76.5t-14.5 34.5q-16 19 -49 21v25q81 -3 150 -3h284v-30l3 -100h-28q0 40 -27 62q-23 19 -88 19h-99v-251h89q57 0 77 22q15 17 18 52h28q-2 -37 -2 -98l3 -96h-29
q-3 34 -19 51q-20 21 -77 21h-88v-226q0 -34 11 -43t51 -9h45q62 0 84 22q24 24 27 70h29zM294 874l127 -145l-15 -15l-138 74l-134 -74l-15 15l126 145l7 3h36z" />
    <glyph glyph-name="Edieresis" unicode="&#xcb;" horiz-adv-x="529" 
d="M480 141q-4 -49 -4 -112v-29h-282l-158 -2v25q29 0 50 24q12 14 15.5 41.5t3.5 98.5v334q0 55 -3.5 76.5t-14.5 34.5q-16 19 -49 21v25q81 -3 150 -3h284v-30l3 -100h-28q0 40 -27 62q-23 19 -88 19h-99v-251h89q57 0 77 22q15 17 18 52h28q-2 -37 -2 -98l3 -96h-29
q-3 34 -19 51q-20 21 -77 21h-88v-226q0 -34 11 -43t51 -9h45q62 0 84 22q24 24 27 70h29zM426 795q0 -28 -17 -44.5t-45 -16.5q-27 0 -43.5 16.5t-16.5 43.5q0 28 17.5 44.5t44.5 16.5t43.5 -16t16.5 -44zM231 795q0 -29 -16.5 -45t-45.5 -16q-26 0 -42.5 16.5t-16.5 43.5
q0 28 16.5 44.5t45.5 16.5q27 0 43 -16t16 -44z" />
    <glyph glyph-name="Igrave" unicode="&#xcc;" horiz-adv-x="338" 
d="M302 653q-30 0 -51 -24q-12 -14 -15 -40t-3 -99v-335q0 -56 3 -77t14 -33q17 -20 50 -22v-25q-70 4 -130 4l-134 -4v25q29 0 50 24q12 14 15.5 41.5t3.5 98.5v334q0 55 -3.5 76.5t-14.5 34.5q-16 19 -49 21v25q70 -4 130 -4l134 4v-25zM56 816l-5 17l70 47l9 -1l148 -148
l-14 -16z" />
    <glyph glyph-name="Iacute" unicode="&#xcd;" horiz-adv-x="338" 
d="M302 653q-30 0 -51 -24q-12 -14 -15 -40t-3 -99v-335q0 -56 3 -77t14 -33q17 -20 50 -22v-25q-70 4 -130 4l-134 -4v25q29 0 50 24q12 14 15.5 41.5t3.5 98.5v334q0 55 -3.5 76.5t-14.5 34.5q-16 19 -49 21v25q70 -4 130 -4l134 4v-25zM306 832l-6 -17l-207 -101l-14 17
l148 147l9 2z" />
    <glyph glyph-name="Icircumflex" unicode="&#xce;" horiz-adv-x="338" 
d="M302 653q-30 0 -51 -24q-12 -14 -15 -40t-3 -99v-335q0 -56 3 -77t14 -33q17 -20 50 -22v-25q-70 4 -130 4l-134 -4v25q29 0 50 24q12 14 15.5 41.5t3.5 98.5v334q0 55 -3.5 76.5t-14.5 34.5q-16 19 -49 21v25q70 -4 130 -4l134 4v-25zM195 874l127 -145l-15 -15l-138 74
l-134 -74l-15 15l126 145l7 3h36z" />
    <glyph glyph-name="Idieresis" unicode="&#xcf;" horiz-adv-x="338" 
d="M302 653q-30 0 -51 -24q-12 -14 -15 -40t-3 -99v-335q0 -56 3 -77t14 -33q17 -20 50 -22v-25q-70 4 -130 4l-134 -4v25q29 0 50 24q12 14 15.5 41.5t3.5 98.5v334q0 55 -3.5 76.5t-14.5 34.5q-16 19 -49 21v25q70 -4 130 -4l134 4v-25zM327 795q0 -28 -17 -44.5
t-45 -16.5q-27 0 -43.5 16.5t-16.5 43.5q0 28 17.5 44.5t44.5 16.5t43.5 -16t16.5 -44zM132 795q0 -29 -16.5 -45t-45.5 -16q-26 0 -42.5 16.5t-16.5 43.5q0 28 16.5 44.5t45.5 16.5q27 0 43 -16t16 -44z" />
    <glyph glyph-name="Eth" unicode="&#xd0;" horiz-adv-x="696" 
d="M661 356q0 -146 -62.5 -229t-160.5 -113q-49 -16 -164 -16q-30 0 -71 1.5t-63 1.5l-104 -3v25q29 0 50 24q12 14 15.5 41.5t3.5 98.5v134h-83v53h83v147q0 55 -3.5 76.5t-14.5 34.5q-16 19 -49 21v25q46 -3 103 -3q17 0 69.5 1t85.5 1q365 0 365 -321zM523 342
q0 287 -218 287q-24 0 -42 -1.5t-24 -2.5l-6 -1v-250h167v-53h-167v-219q0 -25 4.5 -35.5t18.5 -14.5q12 -4 54 -4q113 0 163 72.5t50 221.5z" />
    <glyph glyph-name="Ntilde" unicode="&#xd1;" horiz-adv-x="718" 
d="M690 653q-29 0 -50 -24q-12 -14 -15.5 -41t-3.5 -98v-494h-81l-342 508q-13 18 -27 47v-396q0 -55 3.5 -76t14.5 -34q17 -20 49 -22v-25q-48 4 -100 4l-102 -4v25q29 0 50 24q12 14 15.5 41.5t3.5 98.5v334q0 55 -3.5 76.5t-14.5 34.5q-16 19 -49 21v25q54 -3 113 -3
l83 3l287 -428q11 -16 19.5 -30.5t11.5 -20.5l2 -6v328q0 57 -3 78t-14 33q-16 19 -50 21v25q50 -4 104 -4l99 4v-25zM515 867l19 -8q-40 -112 -103 -112q-26 0 -62 15l-35 15q-33 12 -50 12q-31 0 -55 -42l-19 9q39 108 103 108q20 0 61 -15l35 -14q34 -13 50 -12
q31 0 56 44z" />
    <glyph glyph-name="Ograve" unicode="&#xd2;" horiz-adv-x="711" 
d="M676 347q0 -158 -87.5 -257t-237.5 -99q-148 0 -232 92t-84 246q0 158 88 257t238 99q148 0 231.5 -92t83.5 -246zM539 336q0 60 -10 112t-31 95t-57 67.5t-84 24.5q-52 0 -89.5 -26.5t-57 -72t-28.5 -94t-9 -103.5q0 -82 17 -146.5t59.5 -108t105.5 -43.5
q52 0 89.5 26.5t57 71.5t28.5 93.5t9 103.5zM242 816l-5 17l70 47l9 -1l148 -148l-14 -16z" />
    <glyph glyph-name="Oacute" unicode="&#xd3;" horiz-adv-x="711" 
d="M676 347q0 -158 -87.5 -257t-237.5 -99q-148 0 -232 92t-84 246q0 158 88 257t238 99q148 0 231.5 -92t83.5 -246zM539 336q0 60 -10 112t-31 95t-57 67.5t-84 24.5q-52 0 -89.5 -26.5t-57 -72t-28.5 -94t-9 -103.5q0 -82 17 -146.5t59.5 -108t105.5 -43.5
q52 0 89.5 26.5t57 71.5t28.5 93.5t9 103.5zM492 832l-6 -17l-207 -101l-14 17l148 147l9 2z" />
    <glyph glyph-name="Ocircumflex" unicode="&#xd4;" horiz-adv-x="711" 
d="M676 347q0 -158 -87.5 -257t-237.5 -99q-148 0 -232 92t-84 246q0 158 88 257t238 99q148 0 231.5 -92t83.5 -246zM539 336q0 60 -10 112t-31 95t-57 67.5t-84 24.5q-52 0 -89.5 -26.5t-57 -72t-28.5 -94t-9 -103.5q0 -82 17 -146.5t59.5 -108t105.5 -43.5
q52 0 89.5 26.5t57 71.5t28.5 93.5t9 103.5zM381 874l127 -145l-15 -15l-138 74l-134 -74l-15 15l126 145l7 3h36z" />
    <glyph glyph-name="Otilde" unicode="&#xd5;" horiz-adv-x="711" 
d="M676 347q0 -158 -87.5 -257t-237.5 -99q-148 0 -232 92t-84 246q0 158 88 257t238 99q148 0 231.5 -92t83.5 -246zM539 336q0 60 -10 112t-31 95t-57 67.5t-84 24.5q-52 0 -89.5 -26.5t-57 -72t-28.5 -94t-9 -103.5q0 -82 17 -146.5t59.5 -108t105.5 -43.5
q52 0 89.5 26.5t57 71.5t28.5 93.5t9 103.5zM507 867l19 -8q-40 -112 -103 -112q-26 0 -62 15l-35 15q-33 12 -50 12q-31 0 -55 -42l-19 9q39 108 103 108q20 0 61 -15l35 -14q34 -13 50 -12q31 0 56 44z" />
    <glyph glyph-name="Odieresis" unicode="&#xd6;" horiz-adv-x="711" 
d="M676 347q0 -158 -87.5 -257t-237.5 -99q-148 0 -232 92t-84 246q0 158 88 257t238 99q148 0 231.5 -92t83.5 -246zM539 336q0 60 -10 112t-31 95t-57 67.5t-84 24.5q-52 0 -89.5 -26.5t-57 -72t-28.5 -94t-9 -103.5q0 -82 17 -146.5t59.5 -108t105.5 -43.5
q52 0 89.5 26.5t57 71.5t28.5 93.5t9 103.5zM513 795q0 -28 -17 -44.5t-45 -16.5q-27 0 -43.5 16.5t-16.5 43.5q0 28 17.5 44.5t44.5 16.5t43.5 -16t16.5 -44zM318 795q0 -29 -16.5 -45t-45.5 -16q-26 0 -42.5 16.5t-16.5 43.5q0 28 16.5 44.5t45.5 16.5q27 0 43 -16t16 -44
z" />
    <glyph glyph-name="multiply" unicode="&#xd7;" 
d="M505 98l-46 -45l-185 185l-184 -185l-45 45l185 185l-185 184l45 46l184 -185l186 185l45 -45l-186 -185z" />
    <glyph glyph-name="Oslash" unicode="&#xd8;" horiz-adv-x="711" 
d="M676 347q0 -158 -87.5 -257t-237.5 -99q-68 0 -128 22l-40 -83l-42 22l40 81q-71 41 -108.5 117.5t-37.5 178.5q0 158 88 257t238 99q69 0 127 -22l40 83l42 -22l-39 -81q70 -41 107.5 -117.5t37.5 -178.5zM540 337q0 141 -51 223l-234 -483q41 -36 100 -36q52 0 90 26.5
t57.5 71.5t28.5 94t9 104zM456 599q-41 36 -100 36q-52 0 -90 -26.5t-57.5 -71.5t-28.5 -94t-9 -104q0 -141 51 -223z" />
    <glyph glyph-name="Ugrave" unicode="&#xd9;" horiz-adv-x="691" 
d="M679 653q-30 0 -51 -24q-12 -14 -15 -40t-3 -99v-201q0 -121 -17 -167q-49 -131 -250 -131q-113 0 -169 34t-78 93q-16 44 -16 156v247q0 57 -3 78t-14 33q-16 19 -50 21v25q70 -4 130 -4l134 4v-25q-29 0 -50 -24q-12 -14 -15.5 -41t-3.5 -98v-243q0 -33 1.5 -54t6 -48
t14.5 -43t26.5 -31.5t43.5 -22.5t63 -7q44 0 74 12t46 28.5t24.5 48t10 55.5t1.5 65v271q0 55 -3.5 76.5t-14.5 34.5q-16 19 -49 21v25q57 -4 110 -4l117 4v-25zM239 816l-5 17l70 47l9 -1l148 -148l-14 -16z" />
    <glyph glyph-name="Uacute" unicode="&#xda;" horiz-adv-x="691" 
d="M679 653q-30 0 -51 -24q-12 -14 -15 -40t-3 -99v-201q0 -121 -17 -167q-49 -131 -250 -131q-113 0 -169 34t-78 93q-16 44 -16 156v247q0 57 -3 78t-14 33q-16 19 -50 21v25q70 -4 130 -4l134 4v-25q-29 0 -50 -24q-12 -14 -15.5 -41t-3.5 -98v-243q0 -33 1.5 -54t6 -48
t14.5 -43t26.5 -31.5t43.5 -22.5t63 -7q44 0 74 12t46 28.5t24.5 48t10 55.5t1.5 65v271q0 55 -3.5 76.5t-14.5 34.5q-16 19 -49 21v25q57 -4 110 -4l117 4v-25zM489 832l-6 -17l-207 -101l-14 17l148 147l9 2z" />
    <glyph glyph-name="Ucircumflex" unicode="&#xdb;" horiz-adv-x="691" 
d="M679 653q-30 0 -51 -24q-12 -14 -15 -40t-3 -99v-201q0 -121 -17 -167q-49 -131 -250 -131q-113 0 -169 34t-78 93q-16 44 -16 156v247q0 57 -3 78t-14 33q-16 19 -50 21v25q70 -4 130 -4l134 4v-25q-29 0 -50 -24q-12 -14 -15.5 -41t-3.5 -98v-243q0 -33 1.5 -54t6 -48
t14.5 -43t26.5 -31.5t43.5 -22.5t63 -7q44 0 74 12t46 28.5t24.5 48t10 55.5t1.5 65v271q0 55 -3.5 76.5t-14.5 34.5q-16 19 -49 21v25q57 -4 110 -4l117 4v-25zM378 874l127 -145l-15 -15l-138 74l-134 -74l-15 15l126 145l7 3h36z" />
    <glyph glyph-name="Udieresis" unicode="&#xdc;" horiz-adv-x="691" 
d="M679 653q-30 0 -51 -24q-12 -14 -15 -40t-3 -99v-201q0 -121 -17 -167q-49 -131 -250 -131q-113 0 -169 34t-78 93q-16 44 -16 156v247q0 57 -3 78t-14 33q-16 19 -50 21v25q70 -4 130 -4l134 4v-25q-29 0 -50 -24q-12 -14 -15.5 -41t-3.5 -98v-243q0 -33 1.5 -54t6 -48
t14.5 -43t26.5 -31.5t43.5 -22.5t63 -7q44 0 74 12t46 28.5t24.5 48t10 55.5t1.5 65v271q0 55 -3.5 76.5t-14.5 34.5q-16 19 -49 21v25q57 -4 110 -4l117 4v-25zM510 795q0 -28 -17 -44.5t-45 -16.5q-27 0 -43.5 16.5t-16.5 43.5q0 28 17.5 44.5t44.5 16.5t43.5 -16
t16.5 -44zM315 795q0 -29 -16.5 -45t-45.5 -16q-26 0 -42.5 16.5t-16.5 43.5q0 28 16.5 44.5t45.5 16.5q27 0 43 -16t16 -44z" />
    <glyph glyph-name="Yacute" unicode="&#xdd;" horiz-adv-x="554" 
d="M585 653q-23 -2 -37 -17q-14 -14 -54 -87l-141 -253v-136q0 -57 4 -79t15 -35q19 -22 67 -22v-26q-71 4 -150 4l-150 -4v25q42 0 65 24q14 16 17.5 44t3.5 96v91l-148 272q-38 70 -53 86q-16 16 -36 17v25q56 -4 122 -4l131 4v-25q-27 0 -40 -12q-9 -9 -9 -24t17 -49
l88 -165l27 -54l106 216q18 36 18 54q0 14 -9 23q-12 11 -38 11v25q44 -4 96 -4l88 4v-25zM423 832l-6 -17l-207 -101l-14 17l148 147l9 2z" />
    <glyph glyph-name="Thorn" unicode="&#xde;" horiz-adv-x="546" 
d="M539 401q0 -59 -22 -101t-57.5 -62.5t-69.5 -29t-69 -8.5q-17 0 -32.5 2t-22.5 4l-7 1v30q9 -1 21 -1q53 0 86 31q39 37 39 124q0 81 -32 114.5t-103 33.5l-39 -2v-382q0 -85 13 -104q18 -27 72 -27v-26q-87 4 -147 4l-133 -4v25q29 0 50 24q12 14 15.5 41.5t3.5 98.5
v334q0 55 -3.5 76.5t-14.5 34.5q-16 19 -49 21v25q80 -4 128 -4q82 0 128 4v-25q-34 -2 -50 -23q-13 -17 -15 -49q32 2 57 2q71 0 115 -11q138 -33 138 -171z" />
    <glyph glyph-name="germandbls" unicode="&#xdf;" horiz-adv-x="639" 
d="M564 634q0 -41 -19.5 -67t-65.5 -57q-38 -26 -57 -48t-19 -56q0 -28 18 -48t53 -40l35 -20q104 -60 104 -152q0 -64 -45 -109t-151 -45q-81 0 -141 22v25q0 32 -1 57t-3 34l-1 9h29q4 -47 33.5 -73.5t76.5 -26.5q93 0 93 71q0 7 -1.5 14t-3.5 13t-6.5 12l-7.5 10t-9.5 10
t-10 9t-11.5 8.5t-11.5 7.5t-12.5 7.5t-12 7.5l-32 20q-41 27 -60.5 56t-19.5 74q0 39 17 66t49 57q35 32 51.5 61t16.5 73q0 95 -100 95q-41 0 -67 -12.5t-36.5 -37.5t-13 -45t-2.5 -54v-307q0 -170 3 -257q-52 4 -71 4q-82 0 -128 -4v25q30 0 51 25q13 15 16 42t3 104v254
q0 145 21 196q46 115 237 115q37 0 69.5 -5t67 -17.5t55 -38.5t20.5 -64z" />
    <glyph glyph-name="agrave" unicode="&#xe0;" horiz-adv-x="536" 
d="M521 56q-24 -33 -50.5 -48.5t-66.5 -15.5q-76 0 -84 68l-5 -7.5t-15 -16t-26.5 -20.5t-39.5 -16.5t-53 -7.5q-44 0 -75 13t-46 35t-21.5 43.5t-6.5 44.5q0 98 84 129q56 21 200 21v25q0 76 -11 100q-21 47 -87 47q-71 0 -106 -61l-33 21q5 12 13.5 25t28.5 34t56.5 34
t84.5 13q122 0 161 -76q18 -35 18 -137q0 -11 -1.5 -68.5t-1.5 -106.5q0 -60 39 -60q13 0 31 9zM316 87v150q-76 0 -111 -15q-48 -22 -48 -79q0 -40 21.5 -60.5t60.5 -20.5q38 0 77 25zM158 704l-1 17l79 29l8 -3l106 -177l-18 -13z" />
    <glyph glyph-name="aacute" unicode="&#xe1;" horiz-adv-x="536" 
d="M521 56q-24 -33 -50.5 -48.5t-66.5 -15.5q-76 0 -84 68l-5 -7.5t-15 -16t-26.5 -20.5t-39.5 -16.5t-53 -7.5q-44 0 -75 13t-46 35t-21.5 43.5t-6.5 44.5q0 98 84 129q56 21 200 21v25q0 76 -11 100q-21 47 -87 47q-71 0 -106 -61l-33 21q5 12 13.5 25t28.5 34t56.5 34
t84.5 13q122 0 161 -76q18 -35 18 -137q0 -11 -1.5 -68.5t-1.5 -106.5q0 -60 39 -60q13 0 31 9zM316 87v150q-76 0 -111 -15q-48 -22 -48 -79q0 -40 21.5 -60.5t60.5 -20.5q38 0 77 25zM370 721l-1 -17l-174 -147l-18 13l106 177l8 3z" />
    <glyph glyph-name="acircumflex" unicode="&#xe2;" horiz-adv-x="536" 
d="M521 56q-24 -33 -50.5 -48.5t-66.5 -15.5q-76 0 -84 68l-5 -7.5t-15 -16t-26.5 -20.5t-39.5 -16.5t-53 -7.5q-44 0 -75 13t-46 35t-21.5 43.5t-6.5 44.5q0 98 84 129q56 21 200 21v25q0 76 -11 100q-21 47 -87 47q-71 0 -106 -61l-33 21q5 12 13.5 25t28.5 34t56.5 34
t84.5 13q122 0 161 -76q18 -35 18 -137q0 -11 -1.5 -68.5t-1.5 -106.5q0 -60 39 -60q13 0 31 9zM316 87v150q-76 0 -111 -15q-48 -22 -48 -79q0 -40 21.5 -60.5t60.5 -20.5q38 0 77 25zM298 735l110 -166l-17 -13l-131 101l-128 -101l-17 13l110 166l6 4h61z" />
    <glyph glyph-name="atilde" unicode="&#xe3;" horiz-adv-x="536" 
d="M521 56q-24 -33 -50.5 -48.5t-66.5 -15.5q-76 0 -84 68l-5 -7.5t-15 -16t-26.5 -20.5t-39.5 -16.5t-53 -7.5q-44 0 -75 13t-46 35t-21.5 43.5t-6.5 44.5q0 98 84 129q56 21 200 21v25q0 76 -11 100q-21 47 -87 47q-71 0 -106 -61l-33 21q5 12 13.5 25t28.5 34t56.5 34
t84.5 13q122 0 161 -76q18 -35 18 -137q0 -11 -1.5 -68.5t-1.5 -106.5q0 -60 39 -60q13 0 31 9zM316 87v150q-76 0 -111 -15q-48 -22 -48 -79q0 -40 21.5 -60.5t60.5 -20.5q38 0 77 25zM412 709l19 -8q-40 -111 -103 -111q-29 0 -62 14l-35 15q-28 12 -50 13q-31 0 -55 -43
l-19 10q39 108 103 108q22 0 61 -16l35 -13q30 -13 50 -13q31 0 56 44z" />
    <glyph glyph-name="adieresis" unicode="&#xe4;" horiz-adv-x="536" 
d="M521 56q-24 -33 -50.5 -48.5t-66.5 -15.5q-76 0 -84 68l-5 -7.5t-15 -16t-26.5 -20.5t-39.5 -16.5t-53 -7.5q-44 0 -75 13t-46 35t-21.5 43.5t-6.5 44.5q0 98 84 129q56 21 200 21v25q0 76 -11 100q-21 47 -87 47q-71 0 -106 -61l-33 21q5 12 13.5 25t28.5 34t56.5 34
t84.5 13q122 0 161 -76q18 -35 18 -137q0 -11 -1.5 -68.5t-1.5 -106.5q0 -60 39 -60q13 0 31 9zM316 87v150q-76 0 -111 -15q-48 -22 -48 -79q0 -40 21.5 -60.5t60.5 -20.5q38 0 77 25zM418 649q0 -28 -17 -44.5t-45 -16.5q-27 0 -43.5 16.5t-16.5 43.5q0 28 17.5 44.5
t44.5 16.5t43.5 -16t16.5 -44zM223 649q0 -29 -16.5 -45t-45.5 -16q-26 0 -42.5 16.5t-16.5 43.5q0 28 16.5 44.5t45.5 16.5q27 0 43 -16t16 -44z" />
    <glyph glyph-name="aring" unicode="&#xe5;" horiz-adv-x="536" 
d="M521 56q-24 -33 -50.5 -48.5t-66.5 -15.5q-76 0 -84 68l-5 -7.5t-15 -16t-26.5 -20.5t-39.5 -16.5t-53 -7.5q-44 0 -75 13t-46 35t-21.5 43.5t-6.5 44.5q0 98 84 129q56 21 200 21v25q0 76 -11 100q-21 47 -87 47q-71 0 -106 -61l-33 21q5 12 13.5 25t28.5 34t56.5 34
t84.5 13q122 0 161 -76q18 -35 18 -137q0 -11 -1.5 -68.5t-1.5 -106.5q0 -60 39 -60q13 0 31 9zM316 87v150q-76 0 -111 -15q-48 -22 -48 -79q0 -40 21.5 -60.5t60.5 -20.5q38 0 77 25zM375 669q0 -48 -32 -78t-83 -30q-53 0 -84.5 29.5t-31.5 78.5q0 47 33 76t85 29
q49 0 81 -29.5t32 -75.5zM308 669q0 71 -48 71q-49 0 -49 -71q0 -73 51 -73q46 0 46 73z" />
    <glyph glyph-name="ae" unicode="&#xe6;" horiz-adv-x="777" 
d="M742 279h-311v-5q0 -47 8 -83q10 -43 29 -71t44.5 -40t46.5 -16t48 -4q64 0 111 26l15 -22q-20 -25 -68.5 -49.5t-121.5 -24.5q-42 0 -77 9.5t-54.5 23.5t-33 28t-18.5 23l-5 10q-19 -36 -61 -64t-111 -28q-36 0 -64 9.5t-44 23.5t-26 33.5t-13.5 35.5t-3.5 33
q0 99 84 130q56 21 200 21v24q0 76 -11 100q-21 48 -88 48q-70 0 -105 -61l-33 21q5 12 13 25t28 34t56.5 34t84.5 13t82.5 -13.5t44.5 -26.5l11 -14q4 6 13.5 15t48 24t87.5 15q109 0 160 -77q34 -54 34 -154v-6zM613 328v10q0 27 -2.5 45t-10 41t-27 35t-49.5 12
t-49.5 -13t-28 -36.5t-11.5 -44.5t-3 -49h181zM316 147v90q-78 0 -111 -15q-48 -20 -48 -80q0 -40 21.5 -60.5t58.5 -20.5q38 0 59 21q20 20 20 65z" />
    <glyph glyph-name="ccedilla" unicode="&#xe7;" horiz-adv-x="477" 
d="M460 470l-48 -80h-15q-16 44 -40 62t-63 18q-61 0 -92.5 -52t-31.5 -144q0 -44 8 -80t26.5 -67.5t53 -49t82.5 -17.5q26 0 51 6.5t37 13.5l12 6l15 -21q-2 -3 -6.5 -7.5t-19.5 -16.5t-33 -21.5t-48.5 -18t-63.5 -9.5l-19 -37q102 -14 102 -84q0 -41 -30.5 -64t-79.5 -23
q-41 0 -72 12l8 25q21 -6 37 -6q26 0 41.5 11.5t15.5 32.5q0 46 -77 50l-2 4l41 79q-89 6 -150.5 67.5t-61.5 180.5q0 123 68.5 199.5t194.5 76.5q49 0 89 -8.5t55 -17.5l16 -8v-12z" />
    <glyph glyph-name="egrave" unicode="&#xe8;" horiz-adv-x="511" 
d="M476 279h-311v-5q0 -47 8 -83q10 -43 29 -71t44.5 -40t46.5 -16t48 -4q64 0 111 26l15 -22q-20 -25 -68 -49.5t-119 -24.5q-45 0 -86 13t-77.5 40.5t-58 78.5t-21.5 119q0 32 5.5 65t22 72t41.5 68.5t70 49.5t102 20q113 0 164 -77q34 -54 34 -154v-6zM347 328v10
q0 27 -2.5 45t-10 41t-27 35t-49.5 12t-49.5 -13t-28 -36.5t-11.5 -44.5t-3 -49h181zM165 704l-1 17l79 29l8 -3l106 -177l-18 -13z" />
    <glyph glyph-name="eacute" unicode="&#xe9;" horiz-adv-x="511" 
d="M476 279h-311v-5q0 -47 8 -83q10 -43 29 -71t44.5 -40t46.5 -16t48 -4q64 0 111 26l15 -22q-20 -25 -68 -49.5t-119 -24.5q-45 0 -86 13t-77.5 40.5t-58 78.5t-21.5 119q0 32 5.5 65t22 72t41.5 68.5t70 49.5t102 20q113 0 164 -77q34 -54 34 -154v-6zM347 328v10
q0 27 -2.5 45t-10 41t-27 35t-49.5 12t-49.5 -13t-28 -36.5t-11.5 -44.5t-3 -49h181zM385 721l-1 -17l-174 -147l-18 13l106 177l8 3z" />
    <glyph glyph-name="ecircumflex" unicode="&#xea;" horiz-adv-x="511" 
d="M476 279h-311v-5q0 -47 8 -83q10 -43 29 -71t44.5 -40t46.5 -16t48 -4q64 0 111 26l15 -22q-20 -25 -68 -49.5t-119 -24.5q-45 0 -86 13t-77.5 40.5t-58 78.5t-21.5 119q0 32 5.5 65t22 72t41.5 68.5t70 49.5t102 20q113 0 164 -77q34 -54 34 -154v-6zM347 328v10
q0 27 -2.5 45t-10 41t-27 35t-49.5 12t-49.5 -13t-28 -36.5t-11.5 -44.5t-3 -49h181zM311 735l110 -166l-17 -13l-131 101l-128 -101l-17 13l110 166l6 4h61z" />
    <glyph glyph-name="edieresis" unicode="&#xeb;" horiz-adv-x="511" 
d="M476 279h-311v-5q0 -47 8 -83q10 -43 29 -71t44.5 -40t46.5 -16t48 -4q64 0 111 26l15 -22q-20 -25 -68 -49.5t-119 -24.5q-45 0 -86 13t-77.5 40.5t-58 78.5t-21.5 119q0 32 5.5 65t22 72t41.5 68.5t70 49.5t102 20q113 0 164 -77q34 -54 34 -154v-6zM347 328v10
q0 27 -2.5 45t-10 41t-27 35t-49.5 12t-49.5 -13t-28 -36.5t-11.5 -44.5t-3 -49h181zM431 649q0 -28 -17 -44.5t-45 -16.5q-27 0 -43.5 16.5t-16.5 43.5q0 28 17.5 44.5t44.5 16.5t43.5 -16t16.5 -44zM236 649q0 -29 -16.5 -45t-45.5 -16q-26 0 -42.5 16.5t-16.5 43.5
q0 28 16.5 44.5t45.5 16.5q27 0 43 -16t16 -44z" />
    <glyph glyph-name="igrave" unicode="&#xec;" horiz-adv-x="328" 
d="M298 -2q-80 4 -128 4q-89 0 -135 -4v25q29 0 50 25q13 15 16.5 43t3.5 103v135q0 96 -12 113q-16 23 -56 23v26q4 -1 23 0t49 3.5t55 6.5q50 9 61 14l7 -5q-2 -19 -2 -203v-146q0 -58 3.5 -80t14.5 -35q18 -21 50 -23v-25zM44 704l-1 17l79 29l8 -3l106 -177l-18 -13z
" />
    <glyph glyph-name="iacute" unicode="&#xed;" horiz-adv-x="328" 
d="M298 -2q-80 4 -128 4q-89 0 -135 -4v25q29 0 50 25q13 15 16.5 43t3.5 103v135q0 96 -12 113q-16 23 -56 23v26q4 -1 23 0t49 3.5t55 6.5q50 9 61 14l7 -5q-2 -19 -2 -203v-146q0 -58 3.5 -80t14.5 -35q18 -21 50 -23v-25zM256 721l-1 -17l-174 -147l-18 13l106 177l8 3z
" />
    <glyph glyph-name="icircumflex" unicode="&#xee;" horiz-adv-x="328" 
d="M298 -2q-80 4 -128 4q-89 0 -135 -4v25q29 0 50 25q13 15 16.5 43t3.5 103v135q0 96 -12 113q-16 23 -56 23v26q4 -1 23 0t49 3.5t55 6.5q50 9 61 14l7 -5q-2 -19 -2 -203v-146q0 -58 3.5 -80t14.5 -35q18 -21 50 -23v-25zM184 735l110 -166l-17 -13l-131 101l-128 -101
l-17 13l110 166l6 4h61z" />
    <glyph glyph-name="idieresis" unicode="&#xef;" horiz-adv-x="328" 
d="M298 -2q-80 4 -128 4q-89 0 -135 -4v25q29 0 50 25q13 15 16.5 43t3.5 103v135q0 96 -12 113q-16 23 -56 23v26q4 -1 23 0t49 3.5t55 6.5q50 9 61 14l7 -5q-2 -19 -2 -203v-146q0 -58 3.5 -80t14.5 -35q18 -21 50 -23v-25zM304 649q0 -28 -17 -44.5t-45 -16.5
q-27 0 -43.5 16.5t-16.5 43.5q0 28 17.5 44.5t44.5 16.5t43.5 -16t16.5 -44zM109 649q0 -29 -16.5 -45t-45.5 -16q-26 0 -42.5 16.5t-16.5 43.5q0 28 16.5 44.5t45.5 16.5q27 0 43 -16t16 -44z" />
    <glyph glyph-name="eth" unicode="&#xf0;" horiz-adv-x="563" 
d="M527 376q0 -188 -59 -288q-59 -99 -192 -99q-117 0 -178 66t-61 192q0 64 17.5 114t43 78.5t60.5 46.5t65 24t61 6q30 0 57.5 -4t39.5 -8l12 -3q-3 70 -29 118l-69 -48l-26 38l67 46q-53 52 -156 52q-28 0 -50.5 -3t-31.5 -6l-8 -3l-10 34q57 31 149 31q112 0 182 -54
l78 54l26 -38l-70 -48q82 -95 82 -298zM395 378l-2 61q-3 3 -9.5 8.5t-32 14t-57.5 8.5q-41 0 -68 -20t-38 -57t-14.5 -67.5t-3.5 -71.5q0 -121 27.5 -170t79.5 -49q46 0 70.5 28t35.5 101t12 214z" />
    <glyph glyph-name="ntilde" unicode="&#xf1;" horiz-adv-x="650" 
d="M624 -2q-56 4 -128 4l-129 -4v25q34 6 51 39q13 26 13 162q0 90 -4 129q-5 43 -28 70t-78 27q-28 0 -50.5 -7t-31.5 -14l-9 -7v-261q0 -59 3 -79.5t13 -34.5q14 -20 45 -24v-25q-49 4 -123 4l-133 -4v25q29 0 50 25q13 15 16.5 43t3.5 103v135q0 96 -12 113
q-16 23 -56 23v26q58 0 122 10l61 14l7 -5v-59q5 7 15 18t51 29t94 18q66 0 105 -28.5t53 -72.5q12 -37 12 -110v-144q0 -58 3.5 -79.5t14.5 -35.5q16 -20 49 -23v-25zM477 709l19 -8q-40 -111 -103 -111q-29 0 -62 14l-35 15q-28 12 -50 13q-31 0 -55 -43l-19 10
q39 108 103 108q22 0 61 -16l35 -13q30 -13 50 -13q31 0 56 44z" />
    <glyph glyph-name="ograve" unicode="&#xf2;" horiz-adv-x="586" 
d="M549 258q0 -35 -6.5 -69t-24.5 -71.5t-46 -65t-75.5 -45.5t-109.5 -18q-122 0 -186 69.5t-64 188.5q0 35 6.5 69t24.5 71.5t46 65t75.5 45.5t109.5 18q122 0 186 -69.5t64 -188.5zM415 253q0 37 -5 71t-16.5 69t-37 56t-61.5 21q-23 0 -41.5 -7t-39 -27.5t-32 -67
t-11.5 -116.5q0 -37 5 -71t16.5 -69t37 -56t61.5 -21q23 0 41.5 7t39 27.5t32 67t11.5 116.5zM193 704l-1 17l79 29l8 -3l106 -177l-18 -13z" />
    <glyph glyph-name="oacute" unicode="&#xf3;" horiz-adv-x="586" 
d="M549 258q0 -35 -6.5 -69t-24.5 -71.5t-46 -65t-75.5 -45.5t-109.5 -18q-122 0 -186 69.5t-64 188.5q0 35 6.5 69t24.5 71.5t46 65t75.5 45.5t109.5 18q122 0 186 -69.5t64 -188.5zM415 253q0 37 -5 71t-16.5 69t-37 56t-61.5 21q-23 0 -41.5 -7t-39 -27.5t-32 -67
t-11.5 -116.5q0 -37 5 -71t16.5 -69t37 -56t61.5 -21q23 0 41.5 7t39 27.5t32 67t11.5 116.5zM405 721l-1 -17l-174 -147l-18 13l106 177l8 3z" />
    <glyph glyph-name="ocircumflex" unicode="&#xf4;" horiz-adv-x="586" 
d="M549 258q0 -35 -6.5 -69t-24.5 -71.5t-46 -65t-75.5 -45.5t-109.5 -18q-122 0 -186 69.5t-64 188.5q0 35 6.5 69t24.5 71.5t46 65t75.5 45.5t109.5 18q122 0 186 -69.5t64 -188.5zM415 253q0 37 -5 71t-16.5 69t-37 56t-61.5 21q-23 0 -41.5 -7t-39 -27.5t-32 -67
t-11.5 -116.5q0 -37 5 -71t16.5 -69t37 -56t61.5 -21q23 0 41.5 7t39 27.5t32 67t11.5 116.5zM333 735l110 -166l-17 -13l-131 101l-128 -101l-17 13l110 166l6 4h61z" />
    <glyph glyph-name="otilde" unicode="&#xf5;" horiz-adv-x="586" 
d="M549 258q0 -35 -6.5 -69t-24.5 -71.5t-46 -65t-75.5 -45.5t-109.5 -18q-122 0 -186 69.5t-64 188.5q0 35 6.5 69t24.5 71.5t46 65t75.5 45.5t109.5 18q122 0 186 -69.5t64 -188.5zM415 253q0 37 -5 71t-16.5 69t-37 56t-61.5 21q-23 0 -41.5 -7t-39 -27.5t-32 -67
t-11.5 -116.5q0 -37 5 -71t16.5 -69t37 -56t61.5 -21q23 0 41.5 7t39 27.5t32 67t11.5 116.5zM447 709l19 -8q-40 -111 -103 -111q-29 0 -62 14l-35 15q-28 12 -50 13q-31 0 -55 -43l-19 10q39 108 103 108q22 0 61 -16l35 -13q30 -13 50 -13q31 0 56 44z" />
    <glyph glyph-name="odieresis" unicode="&#xf6;" horiz-adv-x="586" 
d="M549 258q0 -35 -6.5 -69t-24.5 -71.5t-46 -65t-75.5 -45.5t-109.5 -18q-122 0 -186 69.5t-64 188.5q0 35 6.5 69t24.5 71.5t46 65t75.5 45.5t109.5 18q122 0 186 -69.5t64 -188.5zM415 253q0 37 -5 71t-16.5 69t-37 56t-61.5 21q-23 0 -41.5 -7t-39 -27.5t-32 -67
t-11.5 -116.5q0 -37 5 -71t16.5 -69t37 -56t61.5 -21q23 0 41.5 7t39 27.5t32 67t11.5 116.5zM453 649q0 -28 -17 -44.5t-45 -16.5q-27 0 -43.5 16.5t-16.5 43.5q0 28 17.5 44.5t44.5 16.5t43.5 -16t16.5 -44zM258 649q0 -29 -16.5 -45t-45.5 -16q-26 0 -42.5 16.5
t-16.5 43.5q0 28 16.5 44.5t45.5 16.5q27 0 43 -16t16 -44z" />
    <glyph glyph-name="divide" unicode="&#xf7;" 
d="M331 488q0 -24 -16 -40t-40 -16t-40.5 16t-16.5 40q0 26 16 41.5t41 15.5q24 0 40 -15.5t16 -41.5zM527 278h-504v63h504v-63zM331 131q0 -26 -16 -41.5t-40 -15.5t-40.5 15.5t-16.5 41.5q0 25 16 40.5t41 15.5q24 0 40 -15.5t16 -40.5z" />
    <glyph glyph-name="oslash" unicode="&#xf8;" horiz-adv-x="586" 
d="M549 258q0 -35 -6.5 -69t-24.5 -71.5t-46 -65t-75.5 -45.5t-109.5 -18q-51 0 -92 12l-39 -80l-41 21l38 77q-116 62 -116 228q0 35 6.5 69t24.5 71.5t46 65t75.5 45.5t109.5 18q51 0 92 -12l39 80l41 -21l-38 -77q116 -62 116 -228zM361 444q-28 26 -67 26
q-18 0 -33 -3.5t-33 -16.5t-30.5 -35.5t-21 -64.5t-8.5 -98q0 -89 26 -149zM418 253q0 89 -26 149l-167 -341q28 -26 67 -26q18 0 33 3.5t33 16.5t30.5 35.5t21 64.5t8.5 98z" />
    <glyph glyph-name="ugrave" unicode="&#xf9;" horiz-adv-x="643" 
d="M613 15q-57 1 -121 -9q-19 -3 -34.5 -7t-21.5 -6l-6 -2l-7 5v60l-5 -7.5t-16.5 -15.5t-30.5 -20t-46.5 -16t-63.5 -7q-107 0 -146 79q-21 42 -21 151v109q0 95 -12 112q-15 23 -56 23v26q25 -4 128 11q50 9 61 14l8 -5q-4 -38 -4 -227q0 -91 4 -130q5 -43 27 -69.5
t78 -26.5q28 0 51 6.5t32 13.5l9 7v247q0 95 -12 112q-15 23 -55 23v26q4 -1 23.5 0t49.5 3t55 6q49 8 60 14l8 -5q-3 -29 -3 -197v-135q0 -96 12 -113q16 -23 55 -23v-27zM213 704l-1 17l79 29l8 -3l106 -177l-18 -13z" />
    <glyph glyph-name="uacute" unicode="&#xfa;" horiz-adv-x="643" 
d="M613 15q-57 1 -121 -9q-19 -3 -34.5 -7t-21.5 -6l-6 -2l-7 5v60l-5 -7.5t-16.5 -15.5t-30.5 -20t-46.5 -16t-63.5 -7q-107 0 -146 79q-21 42 -21 151v109q0 95 -12 112q-15 23 -56 23v26q25 -4 128 11q50 9 61 14l8 -5q-4 -38 -4 -227q0 -91 4 -130q5 -43 27 -69.5
t78 -26.5q28 0 51 6.5t32 13.5l9 7v247q0 95 -12 112q-15 23 -55 23v26q4 -1 23.5 0t49.5 3t55 6q49 8 60 14l8 -5q-3 -29 -3 -197v-135q0 -96 12 -113q16 -23 55 -23v-27zM425 721l-1 -17l-174 -147l-18 13l106 177l8 3z" />
    <glyph glyph-name="ucircumflex" unicode="&#xfb;" horiz-adv-x="643" 
d="M613 15q-57 1 -121 -9q-19 -3 -34.5 -7t-21.5 -6l-6 -2l-7 5v60l-5 -7.5t-16.5 -15.5t-30.5 -20t-46.5 -16t-63.5 -7q-107 0 -146 79q-21 42 -21 151v109q0 95 -12 112q-15 23 -56 23v26q25 -4 128 11q50 9 61 14l8 -5q-4 -38 -4 -227q0 -91 4 -130q5 -43 27 -69.5
t78 -26.5q28 0 51 6.5t32 13.5l9 7v247q0 95 -12 112q-15 23 -55 23v26q4 -1 23.5 0t49.5 3t55 6q49 8 60 14l8 -5q-3 -29 -3 -197v-135q0 -96 12 -113q16 -23 55 -23v-27zM353 735l110 -166l-17 -13l-131 101l-128 -101l-17 13l110 166l6 4h61z" />
    <glyph glyph-name="udieresis" unicode="&#xfc;" horiz-adv-x="643" 
d="M613 15q-57 1 -121 -9q-19 -3 -34.5 -7t-21.5 -6l-6 -2l-7 5v60l-5 -7.5t-16.5 -15.5t-30.5 -20t-46.5 -16t-63.5 -7q-107 0 -146 79q-21 42 -21 151v109q0 95 -12 112q-15 23 -56 23v26q25 -4 128 11q50 9 61 14l8 -5q-4 -38 -4 -227q0 -91 4 -130q5 -43 27 -69.5
t78 -26.5q28 0 51 6.5t32 13.5l9 7v247q0 95 -12 112q-15 23 -55 23v26q4 -1 23.5 0t49.5 3t55 6q49 8 60 14l8 -5q-3 -29 -3 -197v-135q0 -96 12 -113q16 -23 55 -23v-27zM473 649q0 -28 -17 -44.5t-45 -16.5q-27 0 -43.5 16.5t-16.5 43.5q0 28 17.5 44.5t44.5 16.5
t43.5 -16t16.5 -44zM278 649q0 -29 -16.5 -45t-45.5 -16q-26 0 -42.5 16.5t-16.5 43.5q0 28 16.5 44.5t45.5 16.5q27 0 43 -16t16 -44z" />
    <glyph glyph-name="yacute" unicode="&#xfd;" horiz-adv-x="518" 
d="M531 481q-25 0 -38 -18t-29 -63l-172 -477q-12 -33 -20 -52t-23.5 -43t-33.5 -37t-47 -22t-66 -9q-74 0 -103 27v12l46 71h13q17 -51 68 -51q39 0 60.5 28t41.5 84l9 26l-174 444q-23 58 -33 68q-11 11 -30 12v26q57 -4 113 -4l123 4v-26q-30 0 -43 -13q-9 -9 -9 -25
q0 -19 17 -62l69 -179q10 -25 17.5 -49.5t10.5 -36.5l2 -11l86 276q15 46 15 64q0 15 -9 24q-10 10 -42 12v26q42 -4 88 -4l93 4v-26zM388 721l-1 -17l-174 -147l-18 13l106 177l8 3z" />
    <glyph glyph-name="thorn" unicode="&#xfe;" horiz-adv-x="622" 
d="M585 270q0 -88 -38 -156q-71 -124 -224 -124q-28 0 -52.5 3.5t-35.5 6.5l-11 4v-81q0 -88 14 -108q18 -29 76 -29v-26q-80 4 -148 4q-91 0 -137 -4v25q29 0 50 25q13 15 16.5 42.5t3.5 102.5v616q0 96 -12 113q-13 20 -57 23v27q62 0 126 10q19 3 35.5 7t22.5 7l7 2l7 -5
q-4 -72 -4 -195v-103q5 7 15.5 16.5t48.5 26t82 16.5q99 0 157 -67t58 -179zM452 253q0 198 -142 198q-25 0 -46.5 -6.5t-30.5 -13.5l-9 -7v-347q3 -4 9.5 -10t30.5 -16.5t54 -10.5q134 0 134 213z" />
    <glyph glyph-name="ydieresis" unicode="&#xff;" horiz-adv-x="518" 
d="M531 481q-25 0 -38 -18t-29 -63l-172 -477q-12 -33 -20 -52t-23.5 -43t-33.5 -37t-47 -22t-66 -9q-74 0 -103 27v12l46 71h13q17 -51 68 -51q39 0 60.5 28t41.5 84l9 26l-174 444q-23 58 -33 68q-11 11 -30 12v26q57 -4 113 -4l123 4v-26q-30 0 -43 -13q-9 -9 -9 -25
q0 -19 17 -62l69 -179q10 -25 17.5 -49.5t10.5 -36.5l2 -11l86 276q15 46 15 64q0 15 -9 24q-10 10 -42 12v26q42 -4 88 -4l93 4v-26zM436 649q0 -28 -17 -44.5t-45 -16.5q-27 0 -43.5 16.5t-16.5 43.5q0 28 17.5 44.5t44.5 16.5t43.5 -16t16.5 -44zM241 649
q0 -29 -16.5 -45t-45.5 -16q-26 0 -42.5 16.5t-16.5 43.5q0 28 16.5 44.5t45.5 16.5q27 0 43 -16t16 -44z" />
    <glyph glyph-name="Amacron" unicode="&#x100;" horiz-adv-x="602" 
d="M617 -2q-60 4 -119 4l-126 -4v25q28 0 43 14q10 10 10 27t-16 61l-44 130h-197l-46 -130q-16 -45 -16 -62q0 -16 10 -26q14 -13 43 -13v-26q-45 4 -97 4l-92 -4v25q15 1 25.5 6.5t20.5 21.5t15 28t17 42l215 554l85 15l205 -593q14 -37 22 -50q15 -23 42 -24v-25z
M348 306l-54 161q-25 74 -25 92l-1 -5q-1 -4 -3 -11.5t-5 -18t-8 -26t-11 -32.5l-56 -160h163zM452 760h-291v71h291v-71z" />
    <glyph glyph-name="amacron" unicode="&#x101;" horiz-adv-x="536" 
d="M521 56q-24 -33 -50.5 -48.5t-66.5 -15.5q-76 0 -84 68l-5 -7.5t-15 -16t-26.5 -20.5t-39.5 -16.5t-53 -7.5q-44 0 -75 13t-46 35t-21.5 43.5t-6.5 44.5q0 98 84 129q56 21 200 21v25q0 76 -11 100q-21 47 -87 47q-71 0 -106 -61l-33 21q5 12 13.5 25t28.5 34t56.5 34
t84.5 13q122 0 161 -76q18 -35 18 -137q0 -11 -1.5 -68.5t-1.5 -106.5q0 -60 39 -60q13 0 31 9zM316 87v150q-76 0 -111 -15q-48 -22 -48 -79q0 -40 21.5 -60.5t60.5 -20.5q38 0 77 25zM399 603h-279v71h279v-71z" />
    <glyph glyph-name="Abreve" unicode="&#x102;" horiz-adv-x="602" 
d="M617 -2q-60 4 -119 4l-126 -4v25q28 0 43 14q10 10 10 27t-16 61l-44 130h-197l-46 -130q-16 -45 -16 -62q0 -16 10 -26q14 -13 43 -13v-26q-45 4 -97 4l-92 -4v25q15 1 25.5 6.5t20.5 21.5t15 28t17 42l215 554l85 15l205 -593q14 -37 22 -50q15 -23 42 -24v-25z
M348 306l-54 161q-25 74 -25 92l-1 -5q-1 -4 -3 -11.5t-5 -18t-8 -26t-11 -32.5l-56 -160h163zM457 882q-8 -69 -44.5 -112t-106.5 -43q-136 0 -152 155l20 6q40 -83 132 -83q91 0 130 82z" />
    <glyph glyph-name="abreve" unicode="&#x103;" horiz-adv-x="536" 
d="M521 56q-24 -33 -50.5 -48.5t-66.5 -15.5q-76 0 -84 68l-5 -7.5t-15 -16t-26.5 -20.5t-39.5 -16.5t-53 -7.5q-44 0 -75 13t-46 35t-21.5 43.5t-6.5 44.5q0 98 84 129q56 21 200 21v25q0 76 -11 100q-21 47 -87 47q-71 0 -106 -61l-33 21q5 12 13.5 25t28.5 34t56.5 34
t84.5 13q122 0 161 -76q18 -35 18 -137q0 -11 -1.5 -68.5t-1.5 -106.5q0 -60 39 -60q13 0 31 9zM316 87v150q-76 0 -111 -15q-48 -22 -48 -79q0 -40 21.5 -60.5t60.5 -20.5q38 0 77 25zM407 738q-20 -166 -147 -166q-131 0 -148 166l20 5q43 -94 128 -94t126 93z" />
    <glyph glyph-name="Aogonek" unicode="&#x104;" horiz-adv-x="602" 
d="M570 -181l9 -20q-50 -47 -112 -47q-44 0 -67.5 25t-23.5 62q0 49 34.5 87t91.5 76h-4l-126 -4v25q28 0 43 14q10 10 10 27t-16 61l-44 130h-197l-46 -130q-16 -45 -16 -62q0 -16 10 -26q14 -13 43 -13v-26q-45 4 -97 4l-92 -4v25q15 1 25.5 6.5t20.5 21.5t15 28t17 42
l215 554l85 15l205 -593q14 -37 22 -50q15 -23 42 -24v-25q-35 2 -76 3q-75 -67 -75 -135q0 -57 54 -57q27 0 50 10zM348 306l-54 161q-25 74 -25 92l-1 -5q-1 -4 -3 -11.5t-5 -18t-8 -26t-11 -32.5l-56 -160h163z" />
    <glyph glyph-name="aogonek" unicode="&#x105;" horiz-adv-x="536" 
d="M485 -181l9 -20q-50 -47 -112 -47q-44 0 -67.5 25t-23.5 62q0 46 30.5 82t81.5 71q-75 1 -83 68l-5 -7.5t-15 -16t-26.5 -20.5t-39.5 -16.5t-53 -7.5q-44 0 -75 13t-46 35t-21.5 43.5t-6.5 44.5q0 98 84 129q56 21 200 21v25q0 76 -11 100q-21 47 -87 47q-71 0 -106 -61
l-33 21q5 12 13.5 25t28.5 34t56.5 34t84.5 13q122 0 161 -76q18 -35 18 -137q0 -11 -1.5 -68.5t-1.5 -106.5q0 -60 39 -60q13 0 31 9l13 -21q-21 -29 -60 -56q-80 -55 -80 -134q0 -57 54 -57q27 0 50 10zM316 87v150q-76 0 -111 -15q-48 -22 -48 -79q0 -40 21.5 -60.5
t60.5 -20.5q38 0 77 25z" />
    <glyph glyph-name="Cacute" unicode="&#x106;" horiz-adv-x="600" 
d="M564 543h-28q0 34 -27 61q-30 30 -111 30q-30 0 -53.5 -3t-58 -20t-57 -46.5t-39.5 -88.5t-17 -141q0 -292 230 -292q77 0 107 38q21 28 21 62h29q-4 -56 -4 -112v-15q-69 -22 -172 -22q-199 0 -287 116q-62 81 -62 212q0 129 59.5 216.5t159.5 122.5q63 23 158 23
q35 0 73 -3t59 -5l20 -3q-2 -28 -2 -65zM510 832l-6 -17l-207 -101l-14 17l148 147l9 2z" />
    <glyph glyph-name="cacute" unicode="&#x107;" horiz-adv-x="477" 
d="M460 470l-48 -80h-15q-16 44 -40 62t-63 18q-61 0 -92.5 -52t-31.5 -144q0 -44 8 -80t26.5 -67.5t53 -49t82.5 -17.5q26 0 51 6.5t37 13.5l12 6l15 -21q-2 -3 -6.5 -8t-21.5 -18t-36.5 -22.5t-52.5 -17.5t-69 -8q-44 0 -83.5 14t-73.5 42t-54.5 78t-20.5 115
q0 123 68.5 199.5t194.5 76.5q49 0 89 -8.5t55 -17.5l16 -8v-12zM403 721l-1 -17l-174 -147l-18 13l106 177l8 3z" />
    <glyph glyph-name="Ccircumflex" unicode="&#x108;" horiz-adv-x="600" 
d="M564 543h-28q0 34 -27 61q-30 30 -111 30q-30 0 -53.5 -3t-58 -20t-57 -46.5t-39.5 -88.5t-17 -141q0 -292 230 -292q77 0 107 38q21 28 21 62h29q-4 -56 -4 -112v-15q-69 -22 -172 -22q-199 0 -287 116q-62 81 -62 212q0 129 59.5 216.5t159.5 122.5q63 23 158 23
q35 0 73 -3t59 -5l20 -3q-2 -28 -2 -65zM399 874l127 -145l-15 -15l-138 74l-134 -74l-15 15l126 145l7 3h36z" />
    <glyph glyph-name="ccircumflex" unicode="&#x109;" horiz-adv-x="477" 
d="M460 470l-48 -80h-15q-16 44 -40 62t-63 18q-61 0 -92.5 -52t-31.5 -144q0 -44 8 -80t26.5 -67.5t53 -49t82.5 -17.5q26 0 51 6.5t37 13.5l12 6l15 -21q-2 -3 -6.5 -8t-21.5 -18t-36.5 -22.5t-52.5 -17.5t-69 -8q-44 0 -83.5 14t-73.5 42t-54.5 78t-20.5 115
q0 123 68.5 199.5t194.5 76.5q49 0 89 -8.5t55 -17.5l16 -8v-12zM331 735l110 -166l-17 -13l-131 101l-128 -101l-17 13l110 166l6 4h61z" />
    <glyph glyph-name="Cdotaccent" unicode="&#x10a;" horiz-adv-x="600" 
d="M564 543h-28q0 34 -27 61q-30 30 -111 30q-30 0 -53.5 -3t-58 -20t-57 -46.5t-39.5 -88.5t-17 -141q0 -292 230 -292q77 0 107 38q21 28 21 62h29q-4 -56 -4 -112v-15q-69 -22 -172 -22q-199 0 -287 116q-62 81 -62 212q0 129 59.5 216.5t159.5 122.5q63 23 158 23
q35 0 73 -3t59 -5l20 -3q-2 -28 -2 -65zM436 797q0 -30 -16.5 -46t-46.5 -16q-28 0 -44 16.5t-16 44.5q0 30 16.5 46t45.5 16q28 0 44.5 -16t16.5 -45z" />
    <glyph glyph-name="cdotaccent" unicode="&#x10b;" horiz-adv-x="477" 
d="M460 470l-48 -80h-15q-16 44 -40 62t-63 18q-61 0 -92.5 -52t-31.5 -144q0 -44 8 -80t26.5 -67.5t53 -49t82.5 -17.5q26 0 51 6.5t37 13.5l12 6l15 -21q-2 -3 -6.5 -8t-21.5 -18t-36.5 -22.5t-52.5 -17.5t-69 -8q-44 0 -83.5 14t-73.5 42t-54.5 78t-20.5 115
q0 123 68.5 199.5t194.5 76.5q49 0 89 -8.5t55 -17.5l16 -8v-12zM356 645q0 -30 -17 -46t-47 -16q-27 0 -44 16.5t-17 44.5q0 29 17 45t47 16q28 0 44.5 -16t16.5 -44z" />
    <glyph glyph-name="Ccaron" unicode="&#x10c;" horiz-adv-x="600" 
d="M564 543h-28q0 34 -27 61q-30 30 -111 30q-30 0 -53.5 -3t-58 -20t-57 -46.5t-39.5 -88.5t-17 -141q0 -292 230 -292q77 0 107 38q21 28 21 62h29q-4 -56 -4 -112v-15q-69 -22 -172 -22q-199 0 -287 116q-62 81 -62 212q0 129 59.5 216.5t159.5 122.5q63 23 158 23
q35 0 73 -3t59 -5l20 -3q-2 -28 -2 -65zM349 727l-127 144l15 15l138 -73l134 73l15 -15l-126 -144l-7 -3h-36z" />
    <glyph glyph-name="ccaron" unicode="&#x10d;" horiz-adv-x="477" 
d="M460 470l-48 -80h-15q-16 44 -40 62t-63 18q-61 0 -92.5 -52t-31.5 -144q0 -44 8 -80t26.5 -67.5t53 -49t82.5 -17.5q26 0 51 6.5t37 13.5l12 6l15 -21q-2 -3 -6.5 -8t-21.5 -18t-36.5 -22.5t-52.5 -17.5t-69 -8q-44 0 -83.5 14t-73.5 42t-54.5 78t-20.5 115
q0 123 68.5 199.5t194.5 76.5q49 0 89 -8.5t55 -17.5l16 -8v-12zM257 573l-111 165l17 13l132 -100l127 100l17 -13l-110 -165l-6 -4h-60z" />
    <glyph glyph-name="Dcaron" unicode="&#x10e;" horiz-adv-x="696" 
d="M661 356q0 -146 -62.5 -229t-160.5 -113q-49 -16 -164 -16q-30 0 -71 1.5t-63 1.5l-104 -3v25q29 0 50 24q12 14 15.5 41.5t3.5 98.5v334q0 55 -3.5 76.5t-14.5 34.5q-16 19 -49 21v25q46 -3 103 -3q17 0 69.5 1t85.5 1q365 0 365 -321zM523 342q0 287 -218 287
q-24 0 -42 -1.5t-24 -2.5l-6 -1v-522q0 -25 4.5 -35.5t18.5 -14.5q12 -4 54 -4q113 0 163 72.5t50 221.5zM285 727l-127 144l15 15l138 -73l134 73l15 -15l-126 -144l-7 -3h-36z" />
    <glyph glyph-name="dcaron" unicode="&#x10f;" horiz-adv-x="666" 
d="M591 15q-58 1 -122 -9l-61 -14l-7 5v58q-2 -3 -5.5 -7t-16.5 -15.5t-29 -20t-42 -15.5t-55 -7q-99 0 -157.5 67.5t-58.5 179.5q0 85 39 155q33 59 90.5 91.5t133.5 32.5q28 0 52.5 -3.5t35.5 -6.5l10 -4v69q0 96 -12 113q-13 20 -57 23v27q63 0 127 10q19 3 35.5 7
t22.5 7l7 2l7 -5q-4 -72 -4 -195v-382q0 -96 12 -113q16 -23 55 -23v-27zM398 82v347q-3 4 -9.5 10t-30.5 16.5t-54 10.5q-134 0 -134 -213q0 -198 143 -198q25 0 46.5 6.5t30.5 13.5zM592 757l10 9l75 -23l5 -12l-88 -185l-22 6z" />
    <glyph glyph-name="Dcroat" unicode="&#x110;" horiz-adv-x="696" 
d="M661 356q0 -146 -62.5 -229t-160.5 -113q-49 -16 -164 -16q-30 0 -71 1.5t-63 1.5l-104 -3v25q29 0 50 24q12 14 15.5 41.5t3.5 98.5v134h-83v53h83v147q0 55 -3.5 76.5t-14.5 34.5q-16 19 -49 21v25q46 -3 103 -3q17 0 69.5 1t85.5 1q365 0 365 -321zM523 342
q0 287 -218 287q-24 0 -42 -1.5t-24 -2.5l-6 -1v-250h167v-53h-167v-219q0 -25 4.5 -35.5t18.5 -14.5q12 -4 54 -4q113 0 163 72.5t50 221.5z" />
    <glyph glyph-name="dcroat" unicode="&#x111;" horiz-adv-x="618" 
d="M591 15q-58 1 -122 -9l-61 -14l-7 5v58q-2 -3 -5.5 -7t-16.5 -15.5t-29 -20t-42 -15.5t-55 -7q-99 0 -157.5 65.5t-58.5 171.5q0 114 72 191.5t191 77.5q28 0 52.5 -3.5t35.5 -6.5l10 -4v77h-170v49h170q0 59 -12 76q-13 20 -57 23v27q63 0 127 10q19 3 35.5 7t22.5 7
l7 2l7 -5q-4 -64 -4 -147h75v-49h-75v-381q0 -96 12 -113q16 -23 55 -23v-27zM398 82v327q-3 4 -9.5 10t-30.5 16.5t-54 10.5q-134 0 -134 -203q0 -31 5 -58.5t18.5 -59.5t44 -51t75.5 -19q25 0 46.5 6.5t30.5 13.5z" />
    <glyph glyph-name="Emacron" unicode="&#x112;" horiz-adv-x="529" 
d="M480 141q-4 -49 -4 -112v-29h-282l-158 -2v25q29 0 50 24q12 14 15.5 41.5t3.5 98.5v334q0 55 -3.5 76.5t-14.5 34.5q-16 19 -49 21v25q81 -3 150 -3h284v-30l3 -100h-28q0 40 -27 62q-23 19 -88 19h-99v-251h89q57 0 77 22q15 17 18 52h28q-2 -37 -2 -98l3 -96h-29
q-3 34 -19 51q-20 21 -77 21h-88v-226q0 -34 11 -43t51 -9h45q62 0 84 22q24 24 27 70h29zM415 760h-291v71h291v-71z" />
    <glyph glyph-name="emacron" unicode="&#x113;" horiz-adv-x="511" 
d="M476 279h-311v-5q0 -47 8 -83q10 -43 29 -71t44.5 -40t46.5 -16t48 -4q64 0 111 26l15 -22q-20 -25 -68 -49.5t-119 -24.5q-45 0 -86 13t-77.5 40.5t-58 78.5t-21.5 119q0 32 5.5 65t22 72t41.5 68.5t70 49.5t102 20q113 0 164 -77q34 -54 34 -154v-6zM347 328v10
q0 27 -2.5 45t-10 41t-27 35t-49.5 12t-49.5 -13t-28 -36.5t-11.5 -44.5t-3 -49h181zM412 603h-279v71h279v-71z" />
    <glyph glyph-name="Ebreve" unicode="&#x114;" horiz-adv-x="529" 
d="M480 141q-4 -49 -4 -112v-29h-282l-158 -2v25q29 0 50 24q12 14 15.5 41.5t3.5 98.5v334q0 55 -3.5 76.5t-14.5 34.5q-16 19 -49 21v25q81 -3 150 -3h284v-30l3 -100h-28q0 40 -27 62q-23 19 -88 19h-99v-251h89q57 0 77 22q15 17 18 52h28q-2 -37 -2 -98l3 -96h-29
q-3 34 -19 51q-20 21 -77 21h-88v-226q0 -34 11 -43t51 -9h45q62 0 84 22q24 24 27 70h29zM420 882q-8 -69 -44.5 -112t-106.5 -43q-136 0 -152 155l20 6q40 -83 132 -83q91 0 130 82z" />
    <glyph glyph-name="ebreve" unicode="&#x115;" horiz-adv-x="511" 
d="M476 279h-311v-5q0 -47 8 -83q10 -43 29 -71t44.5 -40t46.5 -16t48 -4q64 0 111 26l15 -22q-20 -25 -68 -49.5t-119 -24.5q-45 0 -86 13t-77.5 40.5t-58 78.5t-21.5 119q0 32 5.5 65t22 72t41.5 68.5t70 49.5t102 20q113 0 164 -77q34 -54 34 -154v-6zM347 328v10
q0 27 -2.5 45t-10 41t-27 35t-49.5 12t-49.5 -13t-28 -36.5t-11.5 -44.5t-3 -49h181zM420 738q-20 -166 -147 -166q-131 0 -148 166l20 5q43 -94 128 -94t126 93z" />
    <glyph glyph-name="Edotaccent" unicode="&#x116;" horiz-adv-x="529" 
d="M480 141q-4 -49 -4 -112v-29h-282l-158 -2v25q29 0 50 24q12 14 15.5 41.5t3.5 98.5v334q0 55 -3.5 76.5t-14.5 34.5q-16 19 -49 21v25q81 -3 150 -3h284v-30l3 -100h-28q0 40 -27 62q-23 19 -88 19h-99v-251h89q57 0 77 22q15 17 18 52h28q-2 -37 -2 -98l3 -96h-29
q-3 34 -19 51q-20 21 -77 21h-88v-226q0 -34 11 -43t51 -9h45q62 0 84 22q24 24 27 70h29zM331 797q0 -30 -16.5 -46t-46.5 -16q-28 0 -44 16.5t-16 44.5q0 30 16.5 46t45.5 16q28 0 44.5 -16t16.5 -45z" />
    <glyph glyph-name="edotaccent" unicode="&#x117;" horiz-adv-x="511" 
d="M476 279h-311v-5q0 -47 8 -83q10 -43 29 -71t44.5 -40t46.5 -16t48 -4q64 0 111 26l15 -22q-20 -25 -68 -49.5t-119 -24.5q-45 0 -86 13t-77.5 40.5t-58 78.5t-21.5 119q0 32 5.5 65t22 72t41.5 68.5t70 49.5t102 20q113 0 164 -77q34 -54 34 -154v-6zM347 328v10
q0 27 -2.5 45t-10 41t-27 35t-49.5 12t-49.5 -13t-28 -36.5t-11.5 -44.5t-3 -49h181zM336 645q0 -30 -17 -46t-47 -16q-27 0 -44 16.5t-17 44.5q0 29 17 45t47 16q28 0 44.5 -16t16.5 -44z" />
    <glyph glyph-name="Eogonek" unicode="&#x118;" horiz-adv-x="529" 
d="M459 -181l9 -20q-50 -47 -112 -47q-44 0 -67.5 25t-23.5 62q0 49 33.5 86t89.5 75h-194l-158 -2v25q29 0 50 24q12 14 15.5 41.5t3.5 98.5v334q0 55 -3.5 76.5t-14.5 34.5q-16 19 -49 21v25q81 -3 150 -3h284v-30l3 -100h-28q0 40 -27 62q-23 19 -88 19h-99v-251h89
q57 0 77 22q15 17 18 52h28q-2 -37 -2 -98l3 -96h-29q-3 34 -19 51q-20 21 -77 21h-88v-226q0 -34 11 -43t51 -9h45q62 0 84 22q24 24 27 70h29q-4 -49 -4 -112v-29h-48q-73 -66 -73 -134q0 -57 54 -57q27 0 50 10z" />
    <glyph glyph-name="eogonek" unicode="&#x119;" horiz-adv-x="511" 
d="M476 279h-311v-5q0 -47 8 -83q10 -43 29 -71t44.5 -40t46.5 -16t48 -4q64 0 111 26l15 -22q-21 -27 -77 -55q-47 -23 -73 -63t-26 -80q0 -57 54 -57q27 0 50 10l9 -20q-50 -47 -112 -47q-44 0 -67.5 25t-23.5 62q0 46 30 81t81 72q-20 -2 -32 -2q-45 0 -86 13t-77.5 40.5
t-58 78.5t-21.5 119q0 32 5.5 65t22 72t41.5 68.5t70 49.5t102 20q113 0 164 -77q34 -54 34 -154v-6zM347 328v10q0 27 -2.5 45t-10 41t-27 35t-49.5 12t-49.5 -13t-28 -36.5t-11.5 -44.5t-3 -49h181z" />
    <glyph glyph-name="Ecaron" unicode="&#x11a;" horiz-adv-x="529" 
d="M480 141q-4 -49 -4 -112v-29h-282l-158 -2v25q29 0 50 24q12 14 15.5 41.5t3.5 98.5v334q0 55 -3.5 76.5t-14.5 34.5q-16 19 -49 21v25q81 -3 150 -3h284v-30l3 -100h-28q0 40 -27 62q-23 19 -88 19h-99v-251h89q57 0 77 22q15 17 18 52h28q-2 -37 -2 -98l3 -96h-29
q-3 34 -19 51q-20 21 -77 21h-88v-226q0 -34 11 -43t51 -9h45q62 0 84 22q24 24 27 70h29zM244 727l-127 144l15 15l138 -73l134 73l15 -15l-126 -144l-7 -3h-36z" />
    <glyph glyph-name="ecaron" unicode="&#x11b;" horiz-adv-x="511" 
d="M476 279h-311v-5q0 -47 8 -83q10 -43 29 -71t44.5 -40t46.5 -16t48 -4q64 0 111 26l15 -22q-20 -25 -68 -49.5t-119 -24.5q-45 0 -86 13t-77.5 40.5t-58 78.5t-21.5 119q0 32 5.5 65t22 72t41.5 68.5t70 49.5t102 20q113 0 164 -77q34 -54 34 -154v-6zM347 328v10
q0 27 -2.5 45t-10 41t-27 35t-49.5 12t-49.5 -13t-28 -36.5t-11.5 -44.5t-3 -49h181zM237 573l-111 165l17 13l132 -100l127 100l17 -13l-110 -165l-6 -4h-60z" />
    <glyph glyph-name="Gcircumflex" unicode="&#x11c;" horiz-adv-x="667" 
d="M649 266q-29 0 -50 -24q-12 -14 -15.5 -41.5t-3.5 -98.5v-85q-76 -23 -185 -23q-199 0 -289 107q-71 86 -71 222q0 102 42.5 182t123.5 128q87 51 222 51q41 0 80.5 -3t58.5 -5l20 -3q-2 -27 -2 -64l2 -66h-28q0 33 -27 60q-31 31 -125 31q-34 0 -62 -5.5t-60.5 -24
t-54.5 -50t-37 -87.5t-15 -132q0 -73 14 -127t35.5 -85.5t54.5 -50.5t64.5 -25t71.5 -6l42 2v91q0 56 -3 77t-14 33q-17 20 -50 22v25q73 -4 129 -4l132 4v-25zM414 874l127 -145l-15 -15l-138 74l-134 -74l-15 15l126 145l7 3h36z" />
    <glyph glyph-name="gcircumflex" unicode="&#x11d;" horiz-adv-x="578" 
d="M571 442l-147 16l6 -4q6 -5 11.5 -10t13 -15.5t13.5 -22t10 -29.5t4 -38q0 -75 -57 -121.5t-161 -46.5l-52 3q-25 -15 -25 -45q0 -23 15.5 -30.5t42.5 -7.5t63 1t72 1q24 0 42.5 -1.5t44.5 -9t42.5 -20.5t29 -39t12.5 -62q0 -84 -81 -142.5t-221 -58.5q-104 0 -169 29.5
t-65 95.5q0 26 12.5 47.5t27.5 32.5t36 19.5t29.5 10.5t15.5 3q-44 22 -44 76q0 70 86 109q-18 4 -36.5 12.5t-40 26t-35.5 48t-14 70.5q0 72 53.5 123.5t164.5 51.5q52 0 101 -17l200 19v-75zM451 -76q0 21 -7.5 34.5t-24 18.5t-29 6.5t-35.5 1.5h-181q-2 -1 -6.5 -3
t-14.5 -9t-18 -15.5t-14.5 -23t-6.5 -30.5q0 -93 145 -93q87 0 139.5 29t52.5 84zM355 342q0 133 -88 133t-88 -132t87 -132q89 0 89 131zM306 735l110 -166l-17 -13l-131 101l-128 -101l-17 13l110 166l6 4h61z" />
    <glyph glyph-name="Gbreve" unicode="&#x11e;" horiz-adv-x="667" 
d="M649 266q-29 0 -50 -24q-12 -14 -15.5 -41.5t-3.5 -98.5v-85q-76 -23 -185 -23q-199 0 -289 107q-71 86 -71 222q0 102 42.5 182t123.5 128q87 51 222 51q41 0 80.5 -3t58.5 -5l20 -3q-2 -27 -2 -64l2 -66h-28q0 33 -27 60q-31 31 -125 31q-34 0 -62 -5.5t-60.5 -24
t-54.5 -50t-37 -87.5t-15 -132q0 -73 14 -127t35.5 -85.5t54.5 -50.5t64.5 -25t71.5 -6l42 2v91q0 56 -3 77t-14 33q-17 20 -50 22v25q73 -4 129 -4l132 4v-25zM540 882q-8 -69 -44.5 -112t-106.5 -43q-136 0 -152 155l20 6q40 -83 132 -83q91 0 130 82z" />
    <glyph glyph-name="gbreve" unicode="&#x11f;" horiz-adv-x="578" 
d="M571 442l-147 16l6 -4q6 -5 11.5 -10t13 -15.5t13.5 -22t10 -29.5t4 -38q0 -75 -57 -121.5t-161 -46.5l-52 3q-25 -15 -25 -45q0 -23 15.5 -30.5t42.5 -7.5t63 1t72 1q24 0 42.5 -1.5t44.5 -9t42.5 -20.5t29 -39t12.5 -62q0 -84 -81 -142.5t-221 -58.5q-104 0 -169 29.5
t-65 95.5q0 26 12.5 47.5t27.5 32.5t36 19.5t29.5 10.5t15.5 3q-44 22 -44 76q0 70 86 109q-18 4 -36.5 12.5t-40 26t-35.5 48t-14 70.5q0 72 53.5 123.5t164.5 51.5q52 0 101 -17l200 19v-75zM451 -76q0 21 -7.5 34.5t-24 18.5t-29 6.5t-35.5 1.5h-181q-2 -1 -6.5 -3
t-14.5 -9t-18 -15.5t-14.5 -23t-6.5 -30.5q0 -93 145 -93q87 0 139.5 29t52.5 84zM355 342q0 133 -88 133t-88 -132t87 -132q89 0 89 131zM415 738q-20 -166 -147 -166q-131 0 -148 166l20 5q43 -94 128 -94t126 93z" />
    <glyph glyph-name="Gdotaccent" unicode="&#x120;" horiz-adv-x="667" 
d="M649 266q-29 0 -50 -24q-12 -14 -15.5 -41.5t-3.5 -98.5v-85q-76 -23 -185 -23q-199 0 -289 107q-71 86 -71 222q0 102 42.5 182t123.5 128q87 51 222 51q41 0 80.5 -3t58.5 -5l20 -3q-2 -27 -2 -64l2 -66h-28q0 33 -27 60q-31 31 -125 31q-34 0 -62 -5.5t-60.5 -24
t-54.5 -50t-37 -87.5t-15 -132q0 -73 14 -127t35.5 -85.5t54.5 -50.5t64.5 -25t71.5 -6l42 2v91q0 56 -3 77t-14 33q-17 20 -50 22v25q73 -4 129 -4l132 4v-25zM451 797q0 -30 -16.5 -46t-46.5 -16q-28 0 -44 16.5t-16 44.5q0 30 16.5 46t45.5 16q28 0 44.5 -16t16.5 -45z
" />
    <glyph glyph-name="gdotaccent" unicode="&#x121;" horiz-adv-x="578" 
d="M571 442l-147 16l6 -4q6 -5 11.5 -10t13 -15.5t13.5 -22t10 -29.5t4 -38q0 -75 -57 -121.5t-161 -46.5l-52 3q-25 -15 -25 -45q0 -23 15.5 -30.5t42.5 -7.5t63 1t72 1q24 0 42.5 -1.5t44.5 -9t42.5 -20.5t29 -39t12.5 -62q0 -84 -81 -142.5t-221 -58.5q-104 0 -169 29.5
t-65 95.5q0 26 12.5 47.5t27.5 32.5t36 19.5t29.5 10.5t15.5 3q-44 22 -44 76q0 70 86 109q-18 4 -36.5 12.5t-40 26t-35.5 48t-14 70.5q0 72 53.5 123.5t164.5 51.5q52 0 101 -17l200 19v-75zM451 -76q0 21 -7.5 34.5t-24 18.5t-29 6.5t-35.5 1.5h-181q-2 -1 -6.5 -3
t-14.5 -9t-18 -15.5t-14.5 -23t-6.5 -30.5q0 -93 145 -93q87 0 139.5 29t52.5 84zM355 342q0 133 -88 133t-88 -132t87 -132q89 0 89 131zM331 645q0 -30 -17 -46t-47 -16q-27 0 -44 16.5t-17 44.5q0 29 17 45t47 16q28 0 44.5 -16t16.5 -44z" />
    <glyph glyph-name="Gcommaaccent" unicode="&#x122;" horiz-adv-x="667" 
d="M649 266q-29 0 -50 -24q-12 -14 -15.5 -41.5t-3.5 -98.5v-85q-76 -23 -185 -23q-199 0 -289 107q-71 86 -71 222q0 102 42.5 182t123.5 128q87 51 222 51q41 0 80.5 -3t58.5 -5l20 -3q-2 -27 -2 -64l2 -66h-28q0 33 -27 60q-31 31 -125 31q-34 0 -62 -5.5t-60.5 -24
t-54.5 -50t-37 -87.5t-15 -132q0 -73 14 -127t35.5 -85.5t54.5 -50.5t64.5 -25t71.5 -6l42 2v91q0 56 -3 77t-14 33q-17 20 -50 22v25q73 -4 129 -4l132 4v-25zM421 -123q0 -51 -30 -89.5t-65 -59.5l-16 15q39 39 39 76q0 19 -22 39t-22 41q0 24 15 37t39 13
q25 0 43.5 -17.5t18.5 -54.5z" />
    <glyph glyph-name="gcommaaccent" unicode="&#x123;" horiz-adv-x="578" 
d="M571 442l-147 16l6 -4q6 -5 11.5 -10t13 -15.5t13.5 -22t10 -29.5t4 -38q0 -75 -57 -121.5t-161 -46.5l-52 3q-25 -15 -25 -45q0 -23 15.5 -30.5t42.5 -7.5t63 1t72 1q24 0 42.5 -1.5t44.5 -9t42.5 -20.5t29 -39t12.5 -62q0 -84 -81 -142.5t-221 -58.5q-104 0 -169 29.5
t-65 95.5q0 26 12.5 47.5t27.5 32.5t36 19.5t29.5 10.5t15.5 3q-44 22 -44 76q0 70 86 109q-18 4 -36.5 12.5t-40 26t-35.5 48t-14 70.5q0 72 53.5 123.5t164.5 51.5q52 0 101 -17l200 19v-75zM451 -76q0 21 -7.5 34.5t-24 18.5t-29 6.5t-35.5 1.5h-181q-2 -1 -6.5 -3
t-14.5 -9t-18 -15.5t-14.5 -23t-6.5 -30.5q0 -93 145 -93q87 0 139.5 29t52.5 84zM355 342q0 133 -88 133t-88 -132t87 -132q89 0 89 131zM216 633q0 51 29.5 89.5t64.5 59.5l17 -16q-39 -36 -39 -75q0 -19 22 -39t22 -41q0 -24 -15.5 -37t-38.5 -13q-25 0 -43.5 17.5
t-18.5 54.5z" />
    <glyph glyph-name="Hcircumflex" unicode="&#x124;" horiz-adv-x="750" 
d="M714 653q-29 0 -50 -24q-12 -14 -15.5 -41t-3.5 -98v-335q0 -55 3.5 -76t14.5 -34q17 -20 49 -22v-25q-70 4 -130 4l-134 -4v25q30 0 51 24q12 14 15 40.5t3 99.5v133h-284v-165q0 -56 3 -77t14 -33q17 -20 50 -22v-25q-70 4 -130 4l-134 -4v25q29 0 50 24
q12 14 15.5 41.5t3.5 98.5v334q0 55 -3.5 76.5t-14.5 34.5q-16 19 -49 21v25q70 -4 130 -4l134 4v-25q-30 0 -51 -24q-12 -14 -15 -40t-3 -99v-113h284v144q0 57 -3 78t-14 33q-16 19 -50 21v25q70 -4 130 -4l134 4v-25zM401 874l127 -145l-15 -15l-138 74l-134 -74l-15 15
l126 145l7 3h36z" />
    <glyph glyph-name="hcircumflex" unicode="&#x125;" horiz-adv-x="646" 
d="M620 -2q-51 4 -127 4l-129 -4v25q34 6 51 39q13 26 13 162q0 90 -4 129q-5 43 -28 70t-78 27q-28 0 -50.5 -7t-31.5 -14l-9 -7v-261q0 -59 3 -79.5t13 -34.5q14 -20 45 -24v-25q-55 4 -124 4l-133 -4v25q30 0 51 25q13 15 16 42t3 104v377q0 96 -12 113q-13 20 -57 23v27
q63 0 127 10q19 3 35.5 7t23.5 7l6 2l7 -5q-4 -72 -4 -195v-108q2 3 5 7t16 15t29 19.5t45 15.5t62 7q66 0 105 -28.5t53 -72.5q11 -34 11 -110v-144q0 -58 3.5 -79.5t14.5 -35.5q16 -20 49 -23v-25zM166 930l127 -145l-15 -15l-138 74l-134 -74l-15 15l126 145l7 3h36z" />
    <glyph glyph-name="Hbar" unicode="&#x126;" horiz-adv-x="750" 
d="M714 653q-29 0 -50 -24q-19 -22 -19 -104h75v-49h-75v-321q0 -55 3.5 -76t14.5 -34q17 -20 49 -22v-25q-70 4 -130 4l-134 -4v25q30 0 51 24q12 14 15 40.5t3 99.5v133h-284v-165q0 -56 3 -77t14 -33q17 -20 50 -22v-25q-70 4 -130 4l-134 -4v25q29 0 50 24
q12 14 15.5 41.5t3.5 98.5v289h-73v49h73q0 85 -18 107q-16 19 -49 21v25q70 -4 130 -4l134 4v-25q-30 0 -51 -24q-18 -20 -18 -104h284q0 52 -3.5 73t-13.5 34q-16 19 -50 21v25q70 -4 130 -4l134 4v-25zM233 377h284v99h-284v-99z" />
    <glyph glyph-name="hbar" unicode="&#x127;" horiz-adv-x="646" 
d="M620 -2q-51 4 -127 4l-129 -4v25q34 6 51 39q13 26 13 142q0 90 -4 129q-5 43 -28 70t-78 27q-28 0 -50.5 -7t-31.5 -14l-9 -7v-241q0 -59 3 -79.5t13 -34.5q14 -20 45 -24v-25q-55 4 -124 4l-133 -4v25q30 0 51 25q13 15 16 42t3 104v365h-76v49h76q0 59 -12 76
q-13 20 -57 23v27q63 0 127 10q19 3 35.5 7t23.5 7l6 2l7 -5q-4 -64 -4 -147h170v-49h-170v-127q2 3 5 7t16 15t29 19.5t45 15.5t62 7q66 0 105 -28.5t53 -72.5q11 -34 11 -110v-124q0 -58 3.5 -79.5t14.5 -35.5q16 -20 49 -23v-25z" />
    <glyph glyph-name="Itilde" unicode="&#x128;" horiz-adv-x="338" 
d="M302 653q-30 0 -51 -24q-12 -14 -15 -40t-3 -99v-335q0 -56 3 -77t14 -33q17 -20 50 -22v-25q-70 4 -130 4l-134 -4v25q29 0 50 24q12 14 15.5 41.5t3.5 98.5v334q0 55 -3.5 76.5t-14.5 34.5q-16 19 -49 21v25q70 -4 130 -4l134 4v-25zM321 867l19 -8q-40 -112 -103 -112
q-26 0 -62 15l-35 15q-33 12 -50 12q-31 0 -55 -42l-19 9q39 108 103 108q20 0 61 -15l35 -14q34 -13 50 -12q31 0 56 44z" />
    <glyph glyph-name="itilde" unicode="&#x129;" horiz-adv-x="328" 
d="M298 -2q-80 4 -128 4q-89 0 -135 -4v25q29 0 50 25q13 15 16.5 43t3.5 103v135q0 96 -12 113q-16 23 -56 23v26q4 -1 23 0t49 3.5t55 6.5q50 9 61 14l7 -5q-2 -19 -2 -203v-146q0 -58 3.5 -80t14.5 -35q18 -21 50 -23v-25zM298 709l19 -8q-40 -111 -103 -111
q-29 0 -62 14l-35 15q-28 12 -50 13q-31 0 -55 -43l-19 10q39 108 103 108q22 0 61 -16l35 -13q30 -13 50 -13q31 0 56 44z" />
    <glyph glyph-name="Imacron" unicode="&#x12a;" horiz-adv-x="338" 
d="M302 653q-30 0 -51 -24q-12 -14 -15 -40t-3 -99v-335q0 -56 3 -77t14 -33q17 -20 50 -22v-25q-70 4 -130 4l-134 -4v25q29 0 50 24q12 14 15.5 41.5t3.5 98.5v334q0 55 -3.5 76.5t-14.5 34.5q-16 19 -49 21v25q70 -4 130 -4l134 4v-25zM316 760h-291v71h291v-71z" />
    <glyph glyph-name="imacron" unicode="&#x12b;" horiz-adv-x="328" 
d="M298 -2q-80 4 -128 4q-89 0 -135 -4v25q29 0 50 25q13 15 16.5 43t3.5 103v135q0 96 -12 113q-16 23 -56 23v26q4 -1 23 0t49 3.5t55 6.5q50 9 61 14l7 -5q-2 -19 -2 -203v-146q0 -58 3.5 -80t14.5 -35q18 -21 50 -23v-25zM285 603h-279v71h279v-71z" />
    <glyph glyph-name="Ibreve" unicode="&#x12c;" horiz-adv-x="338" 
d="M302 653q-30 0 -51 -24q-12 -14 -15 -40t-3 -99v-335q0 -56 3 -77t14 -33q17 -20 50 -22v-25q-70 4 -130 4l-134 -4v25q29 0 50 24q12 14 15.5 41.5t3.5 98.5v334q0 55 -3.5 76.5t-14.5 34.5q-16 19 -49 21v25q70 -4 130 -4l134 4v-25zM321 882q-8 -69 -44.5 -112
t-106.5 -43q-136 0 -152 155l20 6q40 -83 132 -83q91 0 130 82z" />
    <glyph glyph-name="ibreve" unicode="&#x12d;" horiz-adv-x="328" 
d="M298 -2q-80 4 -128 4q-89 0 -135 -4v25q29 0 50 25q13 15 16.5 43t3.5 103v135q0 96 -12 113q-16 23 -56 23v26q4 -1 23 0t49 3.5t55 6.5q50 9 61 14l7 -5q-2 -19 -2 -203v-146q0 -58 3.5 -80t14.5 -35q18 -21 50 -23v-25zM293 738q-20 -166 -147 -166q-131 0 -148 166
l20 5q43 -94 128 -94t126 93z" />
    <glyph glyph-name="Iogonek" unicode="&#x12e;" horiz-adv-x="338" 
d="M259 -181l9 -20q-50 -47 -112 -47q-44 0 -67.5 25t-23.5 62q0 49 34.5 87t91.5 76h-21l-134 -4v25q29 0 50 24q12 14 15.5 41.5t3.5 98.5v334q0 55 -3.5 76.5t-14.5 34.5q-16 19 -49 21v25q70 -4 130 -4l134 4v-25q-30 0 -51 -24q-12 -14 -15 -40t-3 -99v-335
q0 -56 3 -77t14 -33q17 -20 50 -22v-25q-32 2 -70 3q-75 -67 -75 -135q0 -57 54 -57q27 0 50 10z" />
    <glyph glyph-name="iogonek" unicode="&#x12f;" horiz-adv-x="328" 
d="M248 -181l9 -20q-50 -47 -112 -47q-44 0 -67.5 25t-23.5 62q0 49 34.5 87t91.5 76h-10l-135 -4v25q29 0 50 25q13 15 16.5 43t3.5 103v135q0 96 -12 113q-16 23 -56 23v26q4 -1 23 0t49 3.5t55 6.5q50 9 61 14l7 -5q-2 -19 -2 -203v-146q0 -58 3.5 -80t14.5 -35
q18 -21 50 -23v-25q-32 2 -79 3q-75 -67 -75 -135q0 -57 54 -57q27 0 50 10zM241 640q0 -65 -75 -65q-33 0 -53 16t-20 46q0 65 75 65q33 0 53 -16t20 -46z" />
    <glyph glyph-name="Idotaccent" unicode="&#x130;" horiz-adv-x="338" 
d="M302 653q-30 0 -51 -24q-12 -14 -15 -40t-3 -99v-335q0 -56 3 -77t14 -33q17 -20 50 -22v-25q-70 4 -130 4l-134 -4v25q29 0 50 24q12 14 15.5 41.5t3.5 98.5v334q0 55 -3.5 76.5t-14.5 34.5q-16 19 -49 21v25q70 -4 130 -4l134 4v-25zM232 797q0 -30 -16.5 -46
t-46.5 -16q-28 0 -44 16.5t-16 44.5q0 30 16.5 46t45.5 16q28 0 44.5 -16t16.5 -45z" />
    <glyph glyph-name="dotlessi" unicode="&#x131;" horiz-adv-x="328" 
d="M298 -2q-80 4 -128 4q-89 0 -135 -4v25q29 0 50 25q13 15 16.5 43t3.5 103v135q0 96 -12 113q-16 23 -56 23v26q4 -1 23 0t49 3.5t55 6.5q50 9 61 14l7 -5q-2 -19 -2 -203v-146q0 -58 3.5 -80t14.5 -35q18 -21 50 -23v-25z" />
    <glyph glyph-name="IJ" unicode="&#x132;" horiz-adv-x="686" 
d="M302 653q-30 0 -51 -24q-12 -14 -15 -40t-3 -99v-335q0 -56 3 -77t14 -33q17 -20 50 -22v-25q-70 4 -130 4l-134 -4v25q29 0 50 24q12 14 15.5 41.5t3.5 98.5v334q0 55 -3.5 76.5t-14.5 34.5q-16 19 -49 21v25q70 -4 130 -4l134 4v-25zM657 653q-29 0 -50 -24
q-12 -14 -15.5 -41t-3.5 -98v-478q0 -94 -25 -148q-50 -107 -203 -104l-3 27q93 17 101 128q2 33 2 184v422q0 57 -3 78t-14 33q-16 19 -50 21v25q70 -4 130 -4l134 4v-25z" />
    <glyph glyph-name="ij" unicode="&#x133;" horiz-adv-x="637" 
d="M241 640q0 -65 -75 -65q-33 0 -53 16t-20 46q0 65 75 65q33 0 53 -16t20 -46zM298 -2q-53 4 -128 4l-135 -4v25q29 0 50 25q13 15 16.5 43t3.5 103v135q0 96 -12 113q-16 23 -56 23v26q4 -1 23 0t49 3.5t55 6.5q50 9 61 14l7 -5q-2 -19 -2 -203v-146q0 -58 3.5 -80
t14.5 -35q18 -21 50 -23v-25zM562 640q0 -65 -74 -65q-33 0 -53.5 16t-20.5 46q0 65 75 65q33 0 53 -16t20 -46zM554 510q-2 -19 -2 -199v-312q0 -107 -33 -154q-60 -85 -195 -85l-3 26q84 17 100 110q5 27 5 186v250q0 93 -12 110q-16 23 -55 23v26q4 -1 23 0t49 3.5
t55 6.5q50 9 61 14z" />
    <glyph glyph-name="Jcircumflex" unicode="&#x134;" horiz-adv-x="328" 
d="M299 653q-29 0 -50 -24q-12 -14 -15.5 -41t-3.5 -98v-478q0 -94 -25 -148q-50 -107 -203 -104l-3 27q93 17 101 128q2 33 2 184v422q0 57 -3 78t-14 33q-16 19 -50 21v25q70 -4 130 -4l134 4v-25zM188 874l127 -145l-15 -15l-138 74l-134 -74l-15 15l126 145l7 3h36z" />
    <glyph glyph-name="jcircumflex" unicode="&#x135;" horiz-adv-x="309" 
d="M226 510q-2 -19 -2 -199v-312q0 -107 -33 -154q-60 -85 -195 -85l-3 26q84 17 100 110q5 27 5 186v250q0 93 -12 110q-16 23 -55 23v26q4 -1 23 0t49 3.5t55 6.5q50 9 61 14zM176 735l110 -166l-17 -13l-131 101l-128 -101l-17 13l110 166l6 4h61z" />
    <glyph glyph-name="Kcommaaccent" unicode="&#x136;" horiz-adv-x="633" 
d="M647 -2q-42 3 -103 3l-79 -1l-217 340l191 230q28 32 28 53q0 26 -44 30v25q47 -4 117 -4l106 4v-25q-45 -3 -101 -62l-183 -194l194 -296q27 -42 45 -58.5t46 -19.5v-25zM302 653q-30 0 -51 -24q-12 -14 -15 -40t-3 -99v-335q0 -56 3 -77t14 -33q17 -20 50 -22v-25
q-70 4 -130 4l-134 -4v25q29 0 50 24q12 14 15.5 41.5t3.5 98.5v334q0 55 -3.5 76.5t-14.5 34.5q-16 19 -49 21v25q70 -4 130 -4l134 4v-25zM384 -123q0 -51 -30 -89.5t-65 -59.5l-16 15q39 39 39 76q0 19 -22 39t-22 41q0 24 15 37t39 13q25 0 43.5 -17.5t18.5 -54.5z" />
    <glyph glyph-name="kcommaaccent" unicode="&#x137;" horiz-adv-x="575" 
d="M585 -2q-54 3 -100 3l-73 -1l-169 262l131 136q32 33 32 54q0 12 -7 19q-11 11 -35 11v26q45 -5 114 -5q32 0 57.5 1.5t34.5 2.5l10 1v-26q-37 -1 -99 -58l-127 -114l147 -219q22 -32 40 -47.5t44 -19.5v-26zM288 -2q-49 4 -124 4l-133 -4v25q30 0 51 25q13 15 16 42
t3 104v377q0 96 -12 113q-13 20 -57 23v27q63 0 127 10q19 3 35.5 7t23.5 7l6 2l7 -5q-4 -72 -4 -195v-399q0 -59 3 -79.5t13 -34.5q14 -20 45 -24v-25zM355 -123q0 -51 -30 -89.5t-65 -59.5l-16 15q39 39 39 76q0 19 -22 39t-22 41q0 24 15 37t39 13q25 0 43.5 -17.5
t18.5 -54.5z" />
    <glyph glyph-name="kgreenlandic" unicode="&#x138;" horiz-adv-x="575" 
d="M585 -2q-54 3 -100 3l-73 -1l-169 262l131 136q32 33 32 54q0 12 -7 19q-11 11 -35 11v26q45 -5 114 -5q32 0 57.5 1.5t34.5 2.5l10 1v-26q-37 -1 -99 -58l-127 -114l147 -219q22 -32 40 -47.5t44 -19.5v-26zM288 -2q-49 4 -124 4l-133 -4v25q30 0 51 25q13 15 16 42
t3 104v132q0 96 -12 113q-13 20 -57 23v27q63 0 127 10q19 3 35.5 7t23.5 6l6 3l7 -5q-4 -72 -4 -195v-154q0 -59 3 -79.5t13 -34.5q14 -20 45 -24v-25z" />
    <glyph glyph-name="Lacute" unicode="&#x139;" horiz-adv-x="494" 
d="M473 141q-4 -50 -4 -113v-28h-274l-159 -2v25q29 0 50 24q12 14 15.5 41.5t3.5 98.5v334q0 55 -3.5 76.5t-14.5 34.5q-16 19 -49 21v25q66 -4 136 -4l146 4v-25q-54 -2 -71 -25q-10 -14 -13 -37t-3 -84v-406q0 -34 11 -43t51 -9h38q62 0 84 22q24 24 27 70h29zM311 832
l-6 -17l-207 -101l-14 17l148 147l9 2z" />
    <glyph glyph-name="lacute" unicode="&#x13a;" horiz-adv-x="319" 
d="M290 -2q-55 4 -125 4l-134 -4v25q30 0 51 25q13 15 16 42t3 104v377q0 96 -12 113q-13 20 -57 23v27q63 0 127 10q19 3 35.5 7t23.5 7l6 2l7 -5q-4 -72 -4 -195v-399q0 -58 3 -79t13 -35q18 -24 47 -24v-25zM277 883l-6 -17l-207 -101l-14 17l148 147l9 2z" />
    <glyph glyph-name="Lcommaaccent" unicode="&#x13b;" horiz-adv-x="494" 
d="M473 141q-4 -50 -4 -113v-28h-274l-159 -2v25q29 0 50 24q12 14 15.5 41.5t3.5 98.5v334q0 55 -3.5 76.5t-14.5 34.5q-16 19 -49 21v25q66 -4 136 -4l146 4v-25q-54 -2 -71 -25q-10 -14 -13 -37t-3 -84v-406q0 -34 11 -43t51 -9h38q62 0 84 22q24 24 27 70h29zM323 -123
q0 -51 -30 -89.5t-65 -59.5l-16 15q39 39 39 76q0 19 -22 39t-22 41q0 24 15 37t39 13q25 0 43.5 -17.5t18.5 -54.5z" />
    <glyph glyph-name="lcommaaccent" unicode="&#x13c;" horiz-adv-x="319" 
d="M290 -2q-55 4 -125 4l-134 -4v25q30 0 51 25q13 15 16 42t3 104v377q0 96 -12 113q-13 20 -57 23v27q63 0 127 10q19 3 35.5 7t23.5 7l6 2l7 -5q-4 -72 -4 -195v-399q0 -58 3 -79t13 -35q18 -24 47 -24v-25zM218 -123q0 -51 -30 -89.5t-65 -59.5l-16 15q39 39 39 76
q0 19 -22 39t-22 41q0 24 15 37t39 13q25 0 43.5 -17.5t18.5 -54.5z" />
    <glyph glyph-name="Lcaron" unicode="&#x13d;" horiz-adv-x="494" 
d="M473 141q-4 -50 -4 -113v-28h-274l-159 -2v25q29 0 50 24q12 14 15.5 41.5t3.5 98.5v334q0 55 -3.5 76.5t-14.5 34.5q-16 19 -49 21v25q66 -4 136 -4l146 4v-25q-54 -2 -71 -25q-10 -14 -13 -37t-3 -84v-406q0 -34 11 -43t51 -9h38q62 0 84 22q24 24 27 70h29zM388 692
l10 9l75 -23l5 -12l-88 -185l-22 6z" />
    <glyph glyph-name="lcaron" unicode="&#x13e;" horiz-adv-x="373" 
d="M290 -2q-55 4 -125 4l-134 -4v25q30 0 51 25q13 15 16 42t3 104v377q0 96 -12 113q-13 20 -57 23v27q63 0 127 10q19 3 35.5 7t23.5 7l6 2l7 -5q-4 -72 -4 -195v-399q0 -58 3 -79t13 -35q18 -24 47 -24v-25zM299 752l10 9l75 -23l5 -12l-88 -185l-22 6z" />
    <glyph glyph-name="Ldot" unicode="&#x13f;" horiz-adv-x="494" 
d="M473 141q-4 -50 -4 -113v-28h-274l-159 -2v25q29 0 50 24q12 14 15.5 41.5t3.5 98.5v334q0 55 -3.5 76.5t-14.5 34.5q-16 19 -49 21v25q66 -4 136 -4l146 4v-25q-54 -2 -71 -25q-10 -14 -13 -37t-3 -84v-406q0 -34 11 -43t51 -9h38q62 0 84 22q24 24 27 70h29zM469 378
q0 -30 -16.5 -46t-46.5 -16q-28 0 -44 16.5t-16 44.5q0 30 16.5 46t45.5 16q28 0 44.5 -16t16.5 -45z" />
    <glyph glyph-name="ldot" unicode="&#x140;" horiz-adv-x="351" 
d="M401 400q0 -30 -17 -46t-47 -16q-27 0 -44 16.5t-17 44.5q0 29 17 45t47 16q28 0 44.5 -16t16.5 -44zM290 -2q-55 4 -125 4l-134 -4v25q30 0 51 25q13 15 16 42t3 104v377q0 96 -12 113q-13 20 -57 23v27q63 0 127 10q19 3 35.5 7t23.5 7l6 2l7 -5q-4 -72 -4 -195v-399
q0 -58 3 -79t13 -35q18 -24 47 -24v-25z" />
    <glyph glyph-name="Lslash" unicode="&#x141;" horiz-adv-x="494" 
d="M105 521q0 55 -3.5 76.5t-14.5 34.5q-16 19 -49 21v25q66 -4 136 -4l146 4v-25q-54 -2 -71 -25q-10 -14 -13 -37t-3 -84v-128l171 55l7 -52l-178 -57v-224q0 -34 11 -43t51 -9h38q62 0 84 22q24 24 27 70h29q-4 -50 -4 -113v-28h-274l-159 -2v25q29 0 50 24
q12 14 15.5 41.5t3.5 98.5v104l-79 -25l-7 51l86 27v177z" />
    <glyph glyph-name="lslash" unicode="&#x142;" horiz-adv-x="319" 
d="M290 -2q-55 4 -125 4l-134 -4v25q30 0 51 25q13 15 16 42t3 104v149l-70 -31l-5 56l75 35v168q0 96 -12 113q-13 20 -57 23v27q63 0 127 10q19 3 35.5 7t23.5 7l6 2l7 -5q-4 -72 -4 -195v-113l72 34l5 -56l-77 -36v-228q0 -58 3 -79t13 -35q18 -24 47 -24v-25z" />
    <glyph glyph-name="Nacute" unicode="&#x143;" horiz-adv-x="718" 
d="M690 653q-29 0 -50 -24q-12 -14 -15.5 -41t-3.5 -98v-494h-81l-342 508q-13 18 -27 47v-396q0 -55 3.5 -76t14.5 -34q17 -20 49 -22v-25q-48 4 -100 4l-102 -4v25q29 0 50 24q12 14 15.5 41.5t3.5 98.5v334q0 55 -3.5 76.5t-14.5 34.5q-16 19 -49 21v25q54 -3 113 -3
l83 3l287 -428q11 -16 19.5 -30.5t11.5 -20.5l2 -6v328q0 57 -3 78t-14 33q-16 19 -50 21v25q50 -4 104 -4l99 4v-25zM500 832l-6 -17l-207 -101l-14 17l148 147l9 2z" />
    <glyph glyph-name="nacute" unicode="&#x144;" horiz-adv-x="650" 
d="M624 -2q-56 4 -128 4l-129 -4v25q34 6 51 39q13 26 13 162q0 90 -4 129q-5 43 -28 70t-78 27q-28 0 -50.5 -7t-31.5 -14l-9 -7v-261q0 -59 3 -79.5t13 -34.5q14 -20 45 -24v-25q-49 4 -123 4l-133 -4v25q29 0 50 25q13 15 16.5 43t3.5 103v135q0 96 -12 113
q-16 23 -56 23v26q58 0 122 10l61 14l7 -5v-59q5 7 15 18t51 29t94 18q66 0 105 -28.5t53 -72.5q12 -37 12 -110v-144q0 -58 3.5 -79.5t14.5 -35.5q16 -20 49 -23v-25zM435 721l-1 -17l-174 -147l-18 13l106 177l8 3z" />
    <glyph glyph-name="Ncommaaccent" unicode="&#x145;" horiz-adv-x="718" 
d="M690 653q-29 0 -50 -24q-12 -14 -15.5 -41t-3.5 -98v-494h-81l-342 508q-13 18 -27 47v-396q0 -55 3.5 -76t14.5 -34q17 -20 49 -22v-25q-48 4 -100 4l-102 -4v25q29 0 50 24q12 14 15.5 41.5t3.5 98.5v334q0 55 -3.5 76.5t-14.5 34.5q-16 19 -49 21v25q54 -3 113 -3
l83 3l287 -428q11 -16 19.5 -30.5t11.5 -20.5l2 -6v328q0 57 -3 78t-14 33q-16 19 -50 21v25q50 -4 104 -4l99 4v-25zM421 -123q0 -51 -30 -89.5t-65 -59.5l-16 15q39 39 39 76q0 19 -22 39t-22 41q0 24 15 37t39 13q25 0 43.5 -17.5t18.5 -54.5z" />
    <glyph glyph-name="ncommaaccent" unicode="&#x146;" horiz-adv-x="650" 
d="M624 -2q-56 4 -128 4l-129 -4v25q34 6 51 39q13 26 13 162q0 90 -4 129q-5 43 -28 70t-78 27q-28 0 -50.5 -7t-31.5 -14l-9 -7v-261q0 -59 3 -79.5t13 -34.5q14 -20 45 -24v-25q-49 4 -123 4l-133 -4v25q29 0 50 25q13 15 16.5 43t3.5 103v135q0 96 -12 113
q-16 23 -56 23v26q58 0 122 10l61 14l7 -5v-59q5 7 15 18t51 29t94 18q66 0 105 -28.5t53 -72.5q12 -37 12 -110v-144q0 -58 3.5 -79.5t14.5 -35.5q16 -20 49 -23v-25zM383 -123q0 -51 -30 -89.5t-65 -59.5l-16 15q39 39 39 76q0 19 -22 39t-22 41q0 24 15 37t39 13
q25 0 43.5 -17.5t18.5 -54.5z" />
    <glyph glyph-name="Ncaron" unicode="&#x147;" horiz-adv-x="718" 
d="M690 653q-29 0 -50 -24q-12 -14 -15.5 -41t-3.5 -98v-494h-81l-342 508q-13 18 -27 47v-396q0 -55 3.5 -76t14.5 -34q17 -20 49 -22v-25q-48 4 -100 4l-102 -4v25q29 0 50 24q12 14 15.5 41.5t3.5 98.5v334q0 55 -3.5 76.5t-14.5 34.5q-16 19 -49 21v25q54 -3 113 -3
l83 3l287 -428q11 -16 19.5 -30.5t11.5 -20.5l2 -6v328q0 57 -3 78t-14 33q-16 19 -50 21v25q50 -4 104 -4l99 4v-25zM339 727l-127 144l15 15l138 -73l134 73l15 -15l-126 -144l-7 -3h-36z" />
    <glyph glyph-name="ncaron" unicode="&#x148;" horiz-adv-x="650" 
d="M624 -2q-56 4 -128 4l-129 -4v25q34 6 51 39q13 26 13 162q0 90 -4 129q-5 43 -28 70t-78 27q-28 0 -50.5 -7t-31.5 -14l-9 -7v-261q0 -59 3 -79.5t13 -34.5q14 -20 45 -24v-25q-49 4 -123 4l-133 -4v25q29 0 50 25q13 15 16.5 43t3.5 103v135q0 96 -12 113
q-16 23 -56 23v26q58 0 122 10l61 14l7 -5v-59q5 7 15 18t51 29t94 18q66 0 105 -28.5t53 -72.5q12 -37 12 -110v-144q0 -58 3.5 -79.5t14.5 -35.5q16 -20 49 -23v-25zM289 573l-111 165l17 13l132 -100l127 100l17 -13l-110 -165l-6 -4h-60z" />
    <glyph glyph-name="napostrophe" unicode="&#x149;" horiz-adv-x="650" 
d="M624 -2q-56 4 -128 4l-129 -4v25q34 6 51 39q13 26 13 162q0 90 -4 129q-5 43 -28 70t-78 27q-28 0 -50.5 -7t-31.5 -14l-9 -7v-261q0 -59 3 -79.5t13 -34.5q14 -20 45 -24v-25q-49 4 -123 4l-133 -4v25q29 0 50 25q13 15 16.5 43t3.5 103v135q0 96 -12 113
q-16 23 -56 23v26q58 0 122 10l61 14l7 -5v-59q5 7 15 18t51 29t94 18q66 0 105 -28.5t53 -72.5q12 -37 12 -110v-144q0 -58 3.5 -79.5t14.5 -35.5q16 -20 49 -23v-25zM47 625q0 -51 -29.5 -89.5t-64.5 -59.5l-17 16q39 36 39 75q0 19 -22 39t-22 41q0 24 15.5 37t38.5 13
q25 0 43.5 -17.5t18.5 -54.5z" />
    <glyph glyph-name="Eng" unicode="&#x14a;" horiz-adv-x="718" 
d="M690 653q-29 0 -50 -24q-12 -14 -15.5 -41t-3.5 -98v-478q0 -94 -25 -148q-49 -104 -193 -104h-9l-3 27q103 19 103 138v139l-296 440q-13 18 -27 47v-396q0 -55 3.5 -76t14.5 -34q17 -20 49 -22v-25q-48 4 -100 4l-102 -4v25q29 0 50 24q12 14 15.5 41.5t3.5 98.5v334
q0 55 -3.5 76.5t-14.5 34.5q-16 19 -49 21v25q54 -3 113 -3l83 3l287 -428q11 -16 19.5 -30.5t11.5 -20.5l2 -6v328q0 57 -3 78t-14 33q-16 19 -50 21v25q50 -4 104 -4l99 4v-25z" />
    <glyph glyph-name="eng" unicode="&#x14b;" horiz-adv-x="639" 
d="M426 -104q5 27 5 186v142q0 90 -4 129q-5 43 -28 70t-78 27q-28 0 -50.5 -7t-31.5 -14l-9 -7v-261q0 -59 3 -79.5t13 -34.5q14 -20 45 -24v-25q-49 4 -123 4l-133 -4v25q29 0 50 25q13 15 16.5 43t3.5 103v135q0 96 -12 113q-16 23 -56 23v26q58 0 122 10l61 14l7 -5v-59
q5 7 15 18t51 29t94 18q66 0 105 -28.5t53 -72.5q12 -37 12 -110v-306q0 -107 -33 -154q-60 -85 -195 -85l-3 26q84 17 100 110z" />
    <glyph glyph-name="Omacron" unicode="&#x14c;" horiz-adv-x="711" 
d="M676 347q0 -158 -87.5 -257t-237.5 -99q-148 0 -232 92t-84 246q0 158 88 257t238 99q148 0 231.5 -92t83.5 -246zM539 336q0 60 -10 112t-31 95t-57 67.5t-84 24.5q-52 0 -89.5 -26.5t-57 -72t-28.5 -94t-9 -103.5q0 -82 17 -146.5t59.5 -108t105.5 -43.5
q52 0 89.5 26.5t57 71.5t28.5 93.5t9 103.5zM502 760h-291v71h291v-71z" />
    <glyph glyph-name="omacron" unicode="&#x14d;" horiz-adv-x="586" 
d="M549 258q0 -35 -6.5 -69t-24.5 -71.5t-46 -65t-75.5 -45.5t-109.5 -18q-122 0 -186 69.5t-64 188.5q0 35 6.5 69t24.5 71.5t46 65t75.5 45.5t109.5 18q122 0 186 -69.5t64 -188.5zM415 253q0 37 -5 71t-16.5 69t-37 56t-61.5 21q-23 0 -41.5 -7t-39 -27.5t-32 -67
t-11.5 -116.5q0 -37 5 -71t16.5 -69t37 -56t61.5 -21q23 0 41.5 7t39 27.5t32 67t11.5 116.5zM434 603h-279v71h279v-71z" />
    <glyph glyph-name="Obreve" unicode="&#x14e;" horiz-adv-x="711" 
d="M676 347q0 -158 -87.5 -257t-237.5 -99q-148 0 -232 92t-84 246q0 158 88 257t238 99q148 0 231.5 -92t83.5 -246zM539 336q0 60 -10 112t-31 95t-57 67.5t-84 24.5q-52 0 -89.5 -26.5t-57 -72t-28.5 -94t-9 -103.5q0 -82 17 -146.5t59.5 -108t105.5 -43.5
q52 0 89.5 26.5t57 71.5t28.5 93.5t9 103.5zM507 882q-8 -69 -44.5 -112t-106.5 -43q-136 0 -152 155l20 6q40 -83 132 -83q91 0 130 82z" />
    <glyph glyph-name="obreve" unicode="&#x14f;" horiz-adv-x="586" 
d="M549 258q0 -35 -6.5 -69t-24.5 -71.5t-46 -65t-75.5 -45.5t-109.5 -18q-122 0 -186 69.5t-64 188.5q0 35 6.5 69t24.5 71.5t46 65t75.5 45.5t109.5 18q122 0 186 -69.5t64 -188.5zM415 253q0 37 -5 71t-16.5 69t-37 56t-61.5 21q-23 0 -41.5 -7t-39 -27.5t-32 -67
t-11.5 -116.5q0 -37 5 -71t16.5 -69t37 -56t61.5 -21q23 0 41.5 7t39 27.5t32 67t11.5 116.5zM442 738q-20 -166 -147 -166q-131 0 -148 166l20 5q43 -94 128 -94t126 93z" />
    <glyph glyph-name="Ohungarumlaut" unicode="&#x150;" horiz-adv-x="711" 
d="M676 347q0 -158 -87.5 -257t-237.5 -99q-148 0 -232 92t-84 246q0 158 88 257t238 99q148 0 231.5 -92t83.5 -246zM539 336q0 60 -10 112t-31 95t-57 67.5t-84 24.5q-52 0 -89.5 -26.5t-57 -72t-28.5 -94t-9 -103.5q0 -82 17 -146.5t59.5 -108t105.5 -43.5
q52 0 89.5 26.5t57 71.5t28.5 93.5t9 103.5zM447 857l-4 -18l-187 -123l-16 15l126 160l8 2zM610 831l-5 -17l-193 -100l-14 17l142 144l9 1z" />
    <glyph glyph-name="ohungarumlaut" unicode="&#x151;" horiz-adv-x="586" 
d="M549 258q0 -35 -6.5 -69t-24.5 -71.5t-46 -65t-75.5 -45.5t-109.5 -18q-122 0 -186 69.5t-64 188.5q0 35 6.5 69t24.5 71.5t46 65t75.5 45.5t109.5 18q122 0 186 -69.5t64 -188.5zM415 253q0 37 -5 71t-16.5 69t-37 56t-61.5 21q-23 0 -41.5 -7t-39 -27.5t-32 -67
t-11.5 -116.5q0 -37 5 -71t16.5 -69t37 -56t61.5 -21q23 0 41.5 7t39 27.5t32 67t11.5 116.5zM358 733l1 -18l-155 -163l-19 11l85 184l7 4zM516 713l-1 -18l-171 -143l-18 13l104 173l8 3z" />
    <glyph glyph-name="OE" unicode="&#x152;" horiz-adv-x="904" 
d="M855 141q-4 -49 -4 -112v-29h-382q-40 -9 -110 -9q-87 0 -152 28.5t-101.5 78t-53.5 107t-17 123.5q0 69 19 130.5t57.5 113t105 82t153.5 30.5q28 0 54 -2t38 -4l13 -3h372v-30l3 -100h-28q0 40 -27 62q-23 19 -88 19h-99v-251h89q57 0 77 22q15 17 18 52h28
q-2 -37 -2 -98l3 -96h-29q-3 34 -19 51q-20 21 -77 21h-88v-226q0 -34 11 -43t51 -9h45q62 0 84 22q24 24 27 70h29zM480 62v551q-38 21 -107 21q-77 0 -120 -41q-80 -75 -80 -256q0 -156 61 -237q45 -59 139 -59q29 0 56 5.5t39 10.5z" />
    <glyph glyph-name="oe" unicode="&#x153;" horiz-adv-x="880" 
d="M845 279h-311v-6q0 -51 7 -83q8 -34 23 -59t31 -38.5t38 -21t38.5 -9.5t37.5 -2q65 0 112 26l15 -22q-20 -25 -68 -49.5t-118 -24.5q-38 0 -70 8t-50.5 19t-32.5 22t-19 19l-5 8q-2 -3 -5.5 -8t-19 -18.5t-35 -23.5t-54 -18t-74.5 -8q-120 0 -184 69.5t-64 187.5
q0 35 6.5 69t24 71.5t45.5 65t76 45.5t109 18q39 0 72 -8t52 -19.5t33 -23t19 -19.5l6 -8q2 3 5.5 8.5t18 19t32 23.5t47.5 18.5t65 8.5q112 0 163 -77q34 -54 34 -154v-6zM716 328v10q0 27 -2.5 45t-10 41t-27 35t-49.5 12t-49.5 -13t-28 -36.5t-11.5 -44.5t-3 -49h181z
M415 254q0 37 -5 70.5t-16.5 68.5t-37 56t-61.5 21q-23 0 -41.5 -7t-39 -27.5t-32 -67t-11.5 -116.5q0 -37 5 -70.5t16.5 -68.5t37 -56t61.5 -21q23 0 41.5 7t39 27.5t32 67t11.5 116.5z" />
    <glyph glyph-name="Racute" unicode="&#x154;" horiz-adv-x="622" 
d="M666 0q-32 -5 -102 -5q-59 0 -86 17.5t-64 66.5q-31 40 -143 208h-41v-132q0 -56 3 -77t14 -33q17 -20 50 -22v-25q-69 4 -127 4l-134 -4v25q29 0 50 24q12 14 15.5 41.5t3.5 98.5v334q0 55 -3.5 76.5t-14.5 34.5q-16 19 -49 21v25q55 -3 103 -3q35 0 78.5 1t66.5 1
q100 0 153 -22q55 -22 78 -64t23 -89q0 -73 -45 -122.5t-101 -64.5q97 -130 155 -202q36 -45 61 -66.5t56 -22.5v-24zM404 489q0 39 -9.5 67t-22.5 42.5t-32 23t-33.5 10.5t-32.5 2l-44 -3v-296q22 -3 56 -3q20 0 33 3q85 19 85 154zM412 832l-6 -17l-207 -101l-14 17
l148 147l9 2z" />
    <glyph glyph-name="racute" unicode="&#x155;" horiz-adv-x="447" 
d="M453 471l-50 -96h-12l-3 4q-2 4 -4 7t-5.5 8.5t-8 9.5t-10 9.5t-12.5 9.5t-14.5 7t-17 5t-19.5 2q-34 0 -67 -20v-256q0 -88 14 -108q18 -29 76 -29v-26q-73 4 -147 4l-138 -4v25q29 0 50 25q13 15 16.5 42.5t3.5 102.5v136q0 96 -12 113q-16 23 -56 23v26q58 0 122 10
l61 14l7 -5v-66q50 70 137 70q52 0 89 -31v-12zM356 721l-1 -17l-174 -147l-18 13l106 177l8 3z" />
    <glyph glyph-name="Rcommaaccent" unicode="&#x156;" horiz-adv-x="622" 
d="M666 0q-32 -5 -102 -5q-59 0 -86 17.5t-64 66.5q-31 40 -143 208h-41v-132q0 -56 3 -77t14 -33q17 -20 50 -22v-25q-69 4 -127 4l-134 -4v25q29 0 50 24q12 14 15.5 41.5t3.5 98.5v334q0 55 -3.5 76.5t-14.5 34.5q-16 19 -49 21v25q55 -3 103 -3q35 0 78.5 1t66.5 1
q100 0 153 -22q55 -22 78 -64t23 -89q0 -73 -45 -122.5t-101 -64.5q97 -130 155 -202q36 -45 61 -66.5t56 -22.5v-24zM404 489q0 39 -9.5 67t-22.5 42.5t-32 23t-33.5 10.5t-32.5 2l-44 -3v-296q22 -3 56 -3q20 0 33 3q85 19 85 154zM381 -123q0 -51 -30 -89.5t-65 -59.5
l-16 15q39 39 39 76q0 19 -22 39t-22 41q0 24 15 37t39 13q25 0 43.5 -17.5t18.5 -54.5z" />
    <glyph glyph-name="rcommaaccent" unicode="&#x157;" horiz-adv-x="447" 
d="M453 471l-50 -96h-12l-3 4q-2 4 -4 7t-5.5 8.5t-8 9.5t-10 9.5t-12.5 9.5t-14.5 7t-17 5t-19.5 2q-34 0 -67 -20v-256q0 -88 14 -108q18 -29 76 -29v-26q-73 4 -147 4l-138 -4v25q29 0 50 25q13 15 16.5 42.5t3.5 102.5v136q0 96 -12 113q-16 23 -56 23v26q58 0 122 10
l61 14l7 -5v-66q50 70 137 70q52 0 89 -31v-12zM228 -123q0 -51 -30 -89.5t-65 -59.5l-16 15q39 39 39 76q0 19 -22 39t-22 41q0 24 15 37t39 13q25 0 43.5 -17.5t18.5 -54.5z" />
    <glyph glyph-name="Rcaron" unicode="&#x158;" horiz-adv-x="622" 
d="M666 0q-32 -5 -102 -5q-59 0 -86 17.5t-64 66.5q-31 40 -143 208h-41v-132q0 -56 3 -77t14 -33q17 -20 50 -22v-25q-69 4 -127 4l-134 -4v25q29 0 50 24q12 14 15.5 41.5t3.5 98.5v334q0 55 -3.5 76.5t-14.5 34.5q-16 19 -49 21v25q55 -3 103 -3q35 0 78.5 1t66.5 1
q100 0 153 -22q55 -22 78 -64t23 -89q0 -73 -45 -122.5t-101 -64.5q97 -130 155 -202q36 -45 61 -66.5t56 -22.5v-24zM404 489q0 39 -9.5 67t-22.5 42.5t-32 23t-33.5 10.5t-32.5 2l-44 -3v-296q22 -3 56 -3q20 0 33 3q85 19 85 154zM251 727l-127 144l15 15l138 -73l134 73
l15 -15l-126 -144l-7 -3h-36z" />
    <glyph glyph-name="rcaron" unicode="&#x159;" horiz-adv-x="447" 
d="M453 471l-50 -96h-12l-3 4q-2 4 -4 7t-5.5 8.5t-8 9.5t-10 9.5t-12.5 9.5t-14.5 7t-17 5t-19.5 2q-34 0 -67 -20v-256q0 -88 14 -108q18 -29 76 -29v-26q-73 4 -147 4l-138 -4v25q29 0 50 25q13 15 16.5 42.5t3.5 102.5v136q0 96 -12 113q-16 23 -56 23v26q58 0 122 10
l61 14l7 -5v-66q50 70 137 70q52 0 89 -31v-12zM210 573l-111 165l17 13l132 -100l127 100l17 -13l-110 -165l-6 -4h-60z" />
    <glyph glyph-name="Sacute" unicode="&#x15a;" horiz-adv-x="483" 
d="M441 185q0 -58 -22.5 -98t-61 -59t-76 -26.5t-80.5 -7.5q-99 0 -159 21v23l-4 105h29q2 -36 23 -62q31 -39 101 -39q67 0 101 28.5t34 77.5q0 34 -14.5 59t-29.5 36.5t-55 38.5l-58 39q-63 41 -89.5 80.5t-26.5 106.5q0 78 55 127t167 49q38 0 76.5 -3t57.5 -6l19 -3
q-2 -27 -2 -61l2 -68h-28q-2 37 -27 63q-30 30 -94 30q-116 0 -116 -94q0 -41 19 -63t69 -55l64 -42q33 -22 48 -34t37 -36t31.5 -55t9.5 -72zM376 832l-6 -17l-207 -101l-14 17l148 147l9 2z" />
    <glyph glyph-name="sacute" unicode="&#x15b;" horiz-adv-x="434" 
d="M389 146q0 -18 -3.5 -35.5t-15.5 -40t-32.5 -39t-58.5 -28t-88 -11.5q-82 0 -142 22v25q0 32 -1.5 57t-2.5 34l-1 9h29q4 -48 34 -74t78 -26q94 0 94 71q0 28 -15 44.5t-48 36.5l-73 44q-40 24 -63 54t-23 82q0 78 60 117q42 28 120 28q36 0 70 -3t49 -7l16 -3
q-3 -22 -3 -60l2 -58h-28q-1 31 -23.5 58.5t-76.5 27.5q-40 0 -60.5 -19t-20.5 -47t13.5 -42.5t44.5 -32.5l69 -39q19 -10 30 -18t30.5 -25.5t29.5 -43.5t10 -58zM337 721l-1 -17l-174 -147l-18 13l106 177l8 3z" />
    <glyph glyph-name="Scircumflex" unicode="&#x15c;" horiz-adv-x="483" 
d="M441 185q0 -58 -22.5 -98t-61 -59t-76 -26.5t-80.5 -7.5q-99 0 -159 21v23l-4 105h29q2 -36 23 -62q31 -39 101 -39q67 0 101 28.5t34 77.5q0 34 -14.5 59t-29.5 36.5t-55 38.5l-58 39q-63 41 -89.5 80.5t-26.5 106.5q0 78 55 127t167 49q38 0 76.5 -3t57.5 -6l19 -3
q-2 -27 -2 -61l2 -68h-28q-2 37 -27 63q-30 30 -94 30q-116 0 -116 -94q0 -41 19 -63t69 -55l64 -42q33 -22 48 -34t37 -36t31.5 -55t9.5 -72zM265 874l127 -145l-15 -15l-138 74l-134 -74l-15 15l126 145l7 3h36z" />
    <glyph glyph-name="scircumflex" unicode="&#x15d;" horiz-adv-x="434" 
d="M389 146q0 -18 -3.5 -35.5t-15.5 -40t-32.5 -39t-58.5 -28t-88 -11.5q-82 0 -142 22v25q0 32 -1.5 57t-2.5 34l-1 9h29q4 -48 34 -74t78 -26q94 0 94 71q0 28 -15 44.5t-48 36.5l-73 44q-40 24 -63 54t-23 82q0 78 60 117q42 28 120 28q36 0 70 -3t49 -7l16 -3
q-3 -22 -3 -60l2 -58h-28q-1 31 -23.5 58.5t-76.5 27.5q-40 0 -60.5 -19t-20.5 -47t13.5 -42.5t44.5 -32.5l69 -39q19 -10 30 -18t30.5 -25.5t29.5 -43.5t10 -58zM265 735l110 -166l-17 -13l-131 101l-128 -101l-17 13l110 166l6 4h61z" />
    <glyph glyph-name="Scedilla" unicode="&#x15e;" horiz-adv-x="483" 
d="M441 185q0 -50 -17 -87t-47 -57.5t-62 -31t-70 -13.5l-22 -41q102 -14 102 -84q0 -41 -30.5 -64t-79.5 -23q-40 0 -72 12l8 25q21 -6 37 -6q26 0 41.5 11.5t15.5 32.5q0 46 -77 50l-2 4l43 81h-8q-99 0 -159 21v23l-4 105h29q2 -36 23 -62q31 -39 101 -39q67 0 101 28.5
t34 77.5q0 34 -14.5 59t-29.5 36.5t-55 38.5l-58 39q-63 41 -89.5 80.5t-26.5 106.5q0 78 55 127t167 49q38 0 76.5 -3t57.5 -6l19 -3q-2 -27 -2 -61l2 -68h-28q-2 37 -27 63q-30 30 -94 30q-116 0 -116 -94q0 -41 19 -63t69 -55l64 -42q33 -22 48 -34t37 -36t31.5 -55
t9.5 -72z" />
    <glyph glyph-name="scedilla" unicode="&#x15f;" horiz-adv-x="434" 
d="M389 146q0 -22 -6 -43t-21.5 -46.5t-52 -42.5t-88.5 -21l-20 -38q102 -14 102 -84q0 -41 -30.5 -64t-79.5 -23q-41 0 -72 12l8 25q21 -6 37 -6q26 0 41.5 11.5t15.5 32.5q0 46 -77 50l-2 4l41 79q-83 1 -136 22v25q0 32 -1.5 57t-2.5 34l-1 9h29q4 -48 34 -74t78 -26
q94 0 94 71q0 28 -15 44.5t-48 36.5l-73 44q-40 24 -63 54t-23 82q0 78 60 117q42 28 120 28q36 0 70 -3t49 -7l16 -3q-3 -22 -3 -60l2 -58h-28q-1 31 -23.5 58.5t-76.5 27.5q-40 0 -60.5 -19t-20.5 -47t13.5 -42.5t44.5 -32.5l69 -39q19 -10 30 -18t30.5 -25.5t29.5 -43.5
t10 -58z" />
    <glyph glyph-name="Scaron" unicode="&#x160;" horiz-adv-x="483" 
d="M441 185q0 -58 -22.5 -98t-61 -59t-76 -26.5t-80.5 -7.5q-99 0 -159 21v23l-4 105h29q2 -36 23 -62q31 -39 101 -39q67 0 101 28.5t34 77.5q0 34 -14.5 59t-29.5 36.5t-55 38.5l-58 39q-63 41 -89.5 80.5t-26.5 106.5q0 78 55 127t167 49q38 0 76.5 -3t57.5 -6l19 -3
q-2 -27 -2 -61l2 -68h-28q-2 37 -27 63q-30 30 -94 30q-116 0 -116 -94q0 -41 19 -63t69 -55l64 -42q33 -22 48 -34t37 -36t31.5 -55t9.5 -72zM215 727l-127 144l15 15l138 -73l134 73l15 -15l-126 -144l-7 -3h-36z" />
    <glyph glyph-name="scaron" unicode="&#x161;" horiz-adv-x="434" 
d="M389 146q0 -18 -3.5 -35.5t-15.5 -40t-32.5 -39t-58.5 -28t-88 -11.5q-82 0 -142 22v25q0 32 -1.5 57t-2.5 34l-1 9h29q4 -48 34 -74t78 -26q94 0 94 71q0 28 -15 44.5t-48 36.5l-73 44q-40 24 -63 54t-23 82q0 78 60 117q42 28 120 28q36 0 70 -3t49 -7l16 -3
q-3 -22 -3 -60l2 -58h-28q-1 31 -23.5 58.5t-76.5 27.5q-40 0 -60.5 -19t-20.5 -47t13.5 -42.5t44.5 -32.5l69 -39q19 -10 30 -18t30.5 -25.5t29.5 -43.5t10 -58zM191 573l-111 165l17 13l132 -100l127 100l17 -13l-110 -165l-6 -4h-60z" />
    <glyph glyph-name="uni0162" unicode="&#x162;" horiz-adv-x="524" 
d="M241 2l-129 -4v25q43 0 66 24q14 16 17.5 44t3.5 96v441h-65q-63 0 -86 -21q-25 -22 -25 -65h-28q3 39 3 103v30h529v-30l3 -103h-28q0 43 -25 65q-23 21 -86 21h-65v-468q0 -57 4 -79t15 -35q19 -22 67 -22v-26q-69 3 -136 4l-25 -47q102 -14 102 -84q0 -41 -30.5 -64
t-79.5 -23q-41 0 -72 12l8 25q21 -6 37 -6q26 0 41.5 11.5t15.5 32.5q0 46 -77 50l-2 4z" />
    <glyph glyph-name="uni0163" unicode="&#x163;" horiz-adv-x="390" 
d="M383 43q-46 -50 -142 -52l-19 -36q102 -14 102 -84q0 -41 -30.5 -64t-79.5 -23q-40 0 -72 12l8 25q21 -6 37 -6q26 0 41.5 11.5t15.5 32.5q0 46 -77 50l-2 4l42 80q-89 9 -110 90q-8 33 -8 105q0 167 2 267h-67v25q41 14 77 45q35 30 87 106h27v-126h165v-50h-165v-277
q0 -31 2.5 -50t11 -38.5t28 -29t50.5 -9.5q17 0 33 3.5t24 7.5l7 4z" />
    <glyph glyph-name="Tcaron" unicode="&#x164;" horiz-adv-x="524" 
d="M530 542h-28q0 43 -25 65q-23 21 -86 21h-65v-468q0 -57 4 -79t15 -35q19 -22 67 -22v-26q-79 4 -150 4l-150 -4v25q43 0 66 24q14 16 17.5 44t3.5 96v441h-65q-63 0 -86 -21q-25 -22 -25 -65h-28q3 39 3 103v30h529v-30zM238 727l-127 144l15 15l138 -73l134 73l15 -15
l-126 -144l-7 -3h-36z" />
    <glyph glyph-name="tcaron" unicode="&#x165;" horiz-adv-x="390" 
d="M383 43q-48 -52 -147 -52q-115 0 -139 92q-8 33 -8 105q0 167 2 267h-67v25q41 14 77 45q35 30 87 106h27v-126h165v-50h-165v-277q0 -31 2.5 -50t11 -38.5t28 -29t50.5 -9.5q17 0 33 3.5t24 7.5l7 4zM284 753l10 9l75 -23l5 -12l-88 -185l-22 6z" />
    <glyph glyph-name="Tbar" unicode="&#x166;" horiz-adv-x="524" 
d="M530 542h-28q0 43 -25 65q-23 21 -86 21h-65v-263h117v-49h-117v-156q0 -57 4 -79t15 -35q19 -22 67 -22v-26q-79 4 -150 4l-150 -4v25q43 0 66 24q14 16 17.5 44t3.5 96v129h-119v49h119v263h-65q-63 0 -86 -21q-25 -22 -25 -65h-28q3 39 3 103v30h529v-30z" />
    <glyph glyph-name="tbar" unicode="&#x167;" horiz-adv-x="390" 
d="M383 43q-48 -52 -147 -52q-115 0 -139 92q-8 33 -8 105v55h-65v50h65q0 88 2 162h-67v25q41 14 77 45q35 30 87 106h27v-126h165v-50h-165v-162h165v-50h-165v-65q0 -31 2.5 -50t11 -38.5t28 -29t50.5 -9.5q17 0 33 3.5t24 7.5l7 4z" />
    <glyph glyph-name="Utilde" unicode="&#x168;" horiz-adv-x="691" 
d="M679 653q-30 0 -51 -24q-12 -14 -15 -40t-3 -99v-201q0 -121 -17 -167q-49 -131 -250 -131q-113 0 -169 34t-78 93q-16 44 -16 156v247q0 57 -3 78t-14 33q-16 19 -50 21v25q70 -4 130 -4l134 4v-25q-29 0 -50 -24q-12 -14 -15.5 -41t-3.5 -98v-243q0 -33 1.5 -54t6 -48
t14.5 -43t26.5 -31.5t43.5 -22.5t63 -7q44 0 74 12t46 28.5t24.5 48t10 55.5t1.5 65v271q0 55 -3.5 76.5t-14.5 34.5q-16 19 -49 21v25q57 -4 110 -4l117 4v-25zM504 867l19 -8q-40 -112 -103 -112q-26 0 -62 15l-35 15q-33 12 -50 12q-31 0 -55 -42l-19 9q39 108 103 108
q20 0 61 -15l35 -14q34 -13 50 -12q31 0 56 44z" />
    <glyph glyph-name="utilde" unicode="&#x169;" horiz-adv-x="643" 
d="M613 15q-57 1 -121 -9q-19 -3 -34.5 -7t-21.5 -6l-6 -2l-7 5v60l-5 -7.5t-16.5 -15.5t-30.5 -20t-46.5 -16t-63.5 -7q-107 0 -146 79q-21 42 -21 151v109q0 95 -12 112q-15 23 -56 23v26q25 -4 128 11q50 9 61 14l8 -5q-4 -38 -4 -227q0 -91 4 -130q5 -43 27 -69.5
t78 -26.5q28 0 51 6.5t32 13.5l9 7v247q0 95 -12 112q-15 23 -55 23v26q4 -1 23.5 0t49.5 3t55 6q49 8 60 14l8 -5q-3 -29 -3 -197v-135q0 -96 12 -113q16 -23 55 -23v-27zM467 709l19 -8q-40 -111 -103 -111q-29 0 -62 14l-35 15q-28 12 -50 13q-31 0 -55 -43l-19 10
q39 108 103 108q22 0 61 -16l35 -13q30 -13 50 -13q31 0 56 44z" />
    <glyph glyph-name="Umacron" unicode="&#x16a;" horiz-adv-x="691" 
d="M679 653q-30 0 -51 -24q-12 -14 -15 -40t-3 -99v-201q0 -121 -17 -167q-49 -131 -250 -131q-113 0 -169 34t-78 93q-16 44 -16 156v247q0 57 -3 78t-14 33q-16 19 -50 21v25q70 -4 130 -4l134 4v-25q-29 0 -50 -24q-12 -14 -15.5 -41t-3.5 -98v-243q0 -33 1.5 -54t6 -48
t14.5 -43t26.5 -31.5t43.5 -22.5t63 -7q44 0 74 12t46 28.5t24.5 48t10 55.5t1.5 65v271q0 55 -3.5 76.5t-14.5 34.5q-16 19 -49 21v25q57 -4 110 -4l117 4v-25zM499 760h-291v71h291v-71z" />
    <glyph glyph-name="umacron" unicode="&#x16b;" horiz-adv-x="643" 
d="M613 15q-57 1 -121 -9q-19 -3 -34.5 -7t-21.5 -6l-6 -2l-7 5v60l-5 -7.5t-16.5 -15.5t-30.5 -20t-46.5 -16t-63.5 -7q-107 0 -146 79q-21 42 -21 151v109q0 95 -12 112q-15 23 -56 23v26q25 -4 128 11q50 9 61 14l8 -5q-4 -38 -4 -227q0 -91 4 -130q5 -43 27 -69.5
t78 -26.5q28 0 51 6.5t32 13.5l9 7v247q0 95 -12 112q-15 23 -55 23v26q4 -1 23.5 0t49.5 3t55 6q49 8 60 14l8 -5q-3 -29 -3 -197v-135q0 -96 12 -113q16 -23 55 -23v-27zM454 603h-279v71h279v-71z" />
    <glyph glyph-name="Ubreve" unicode="&#x16c;" horiz-adv-x="691" 
d="M679 653q-30 0 -51 -24q-12 -14 -15 -40t-3 -99v-201q0 -121 -17 -167q-49 -131 -250 -131q-113 0 -169 34t-78 93q-16 44 -16 156v247q0 57 -3 78t-14 33q-16 19 -50 21v25q70 -4 130 -4l134 4v-25q-29 0 -50 -24q-12 -14 -15.5 -41t-3.5 -98v-243q0 -33 1.5 -54t6 -48
t14.5 -43t26.5 -31.5t43.5 -22.5t63 -7q44 0 74 12t46 28.5t24.5 48t10 55.5t1.5 65v271q0 55 -3.5 76.5t-14.5 34.5q-16 19 -49 21v25q57 -4 110 -4l117 4v-25zM504 882q-8 -69 -44.5 -112t-106.5 -43q-136 0 -152 155l20 6q40 -83 132 -83q91 0 130 82z" />
    <glyph glyph-name="ubreve" unicode="&#x16d;" horiz-adv-x="643" 
d="M613 15q-57 1 -121 -9q-19 -3 -34.5 -7t-21.5 -6l-6 -2l-7 5v60l-5 -7.5t-16.5 -15.5t-30.5 -20t-46.5 -16t-63.5 -7q-107 0 -146 79q-21 42 -21 151v109q0 95 -12 112q-15 23 -56 23v26q25 -4 128 11q50 9 61 14l8 -5q-4 -38 -4 -227q0 -91 4 -130q5 -43 27 -69.5
t78 -26.5q28 0 51 6.5t32 13.5l9 7v247q0 95 -12 112q-15 23 -55 23v26q4 -1 23.5 0t49.5 3t55 6q49 8 60 14l8 -5q-3 -29 -3 -197v-135q0 -96 12 -113q16 -23 55 -23v-27zM462 738q-20 -166 -147 -166q-131 0 -148 166l20 5q43 -94 128 -94t126 93z" />
    <glyph glyph-name="Uring" unicode="&#x16e;" horiz-adv-x="691" 
d="M679 653q-30 0 -51 -24q-12 -14 -15 -40t-3 -99v-201q0 -121 -17 -167q-49 -131 -250 -131q-113 0 -169 34t-78 93q-16 44 -16 156v247q0 57 -3 78t-14 33q-16 19 -50 21v25q70 -4 130 -4l134 4v-25q-29 0 -50 -24q-12 -14 -15.5 -41t-3.5 -98v-243q0 -33 1.5 -54t6 -48
t14.5 -43t26.5 -31.5t43.5 -22.5t63 -7q44 0 74 12t46 28.5t24.5 48t10 55.5t1.5 65v271q0 55 -3.5 76.5t-14.5 34.5q-16 19 -49 21v25q57 -4 110 -4l117 4v-25zM467 806q0 -48 -32 -77.5t-83 -29.5q-54 0 -85 29.5t-31 77.5q0 47 32.5 76t85.5 29q49 0 81 -29t32 -76z
M400 806q0 71 -48 71q-49 0 -49 -71q0 -73 51 -73q46 0 46 73z" />
    <glyph glyph-name="uring" unicode="&#x16f;" horiz-adv-x="643" 
d="M613 15q-57 1 -121 -9q-19 -3 -34.5 -7t-21.5 -6l-6 -2l-7 5v60l-5 -7.5t-16.5 -15.5t-30.5 -20t-46.5 -16t-63.5 -7q-107 0 -146 79q-21 42 -21 151v109q0 95 -12 112q-15 23 -56 23v26q25 -4 128 11q50 9 61 14l8 -5q-4 -38 -4 -227q0 -91 4 -130q5 -43 27 -69.5
t78 -26.5q28 0 51 6.5t32 13.5l9 7v247q0 95 -12 112q-15 23 -55 23v26q4 -1 23.5 0t49.5 3t55 6q49 8 60 14l8 -5q-3 -29 -3 -197v-135q0 -96 12 -113q16 -23 55 -23v-27zM430 669q0 -48 -32 -78t-83 -30q-53 0 -84.5 29.5t-31.5 78.5q0 47 33 76t85 29q49 0 81 -29.5
t32 -75.5zM363 669q0 71 -48 71q-49 0 -49 -71q0 -73 51 -73q46 0 46 73z" />
    <glyph glyph-name="Uhungarumlaut" unicode="&#x170;" horiz-adv-x="691" 
d="M679 653q-30 0 -51 -24q-12 -14 -15 -40t-3 -99v-201q0 -121 -17 -167q-49 -131 -250 -131q-113 0 -169 34t-78 93q-16 44 -16 156v247q0 57 -3 78t-14 33q-16 19 -50 21v25q70 -4 130 -4l134 4v-25q-29 0 -50 -24q-12 -14 -15.5 -41t-3.5 -98v-243q0 -33 1.5 -54t6 -48
t14.5 -43t26.5 -31.5t43.5 -22.5t63 -7q44 0 74 12t46 28.5t24.5 48t10 55.5t1.5 65v271q0 55 -3.5 76.5t-14.5 34.5q-16 19 -49 21v25q57 -4 110 -4l117 4v-25zM444 857l-4 -18l-187 -123l-16 15l126 160l8 2zM607 831l-5 -17l-193 -100l-14 17l142 144l9 1z" />
    <glyph glyph-name="uhungarumlaut" unicode="&#x171;" horiz-adv-x="643" 
d="M613 15q-57 1 -121 -9q-19 -3 -34.5 -7t-21.5 -6l-6 -2l-7 5v60l-5 -7.5t-16.5 -15.5t-30.5 -20t-46.5 -16t-63.5 -7q-107 0 -146 79q-21 42 -21 151v109q0 95 -12 112q-15 23 -56 23v26q25 -4 128 11q50 9 61 14l8 -5q-4 -38 -4 -227q0 -91 4 -130q5 -43 27 -69.5
t78 -26.5q28 0 51 6.5t32 13.5l9 7v247q0 95 -12 112q-15 23 -55 23v26q4 -1 23.5 0t49.5 3t55 6q49 8 60 14l8 -5q-3 -29 -3 -197v-135q0 -96 12 -113q16 -23 55 -23v-27zM378 733l1 -18l-155 -163l-19 11l85 184l7 4zM536 713l-1 -18l-171 -143l-18 13l104 173l8 3z" />
    <glyph glyph-name="Uogonek" unicode="&#x172;" horiz-adv-x="691" 
d="M679 653q-30 0 -51 -24q-12 -14 -15 -40t-3 -99v-201q0 -121 -17 -167q-17 -43 -46.5 -69t-77.5 -48q-39 -18 -66 -59t-27 -80q0 -57 54 -57q27 0 50 10l9 -20q-50 -47 -112 -47q-44 0 -67.5 25t-23.5 62q0 78 115 155q-29 -3 -58 -3q-113 0 -169 34t-78 93
q-16 44 -16 156v247q0 57 -3 78t-14 33q-16 19 -50 21v25q70 -4 130 -4l134 4v-25q-29 0 -50 -24q-12 -14 -15.5 -41t-3.5 -98v-243q0 -33 1.5 -54t6 -48t14.5 -43t26.5 -31.5t43.5 -22.5t63 -7q44 0 74 12t46 28.5t24.5 48t10 55.5t1.5 65v271q0 55 -3.5 76.5t-14.5 34.5
q-16 19 -49 21v25q57 -4 110 -4l117 4v-25z" />
    <glyph glyph-name="uogonek" unicode="&#x173;" horiz-adv-x="643" 
d="M613 15q-65 2 -112 -15q-48 -17 -72 -54.5t-24 -79.5q0 -57 54 -57q27 0 50 10l9 -20q-50 -47 -112 -47q-44 0 -67.5 25t-23.5 62q0 79 108 158v59l-5 -7.5t-16.5 -15.5t-30.5 -20t-46.5 -16t-63.5 -7q-107 0 -146 79q-21 42 -21 151v109q0 95 -12 112q-15 23 -56 23v26
q25 -4 128 11q50 9 61 14l8 -5q-4 -38 -4 -227q0 -91 4 -130q5 -43 27 -69.5t78 -26.5q28 0 51 6.5t32 13.5l9 7v247q0 95 -12 112q-15 23 -55 23v26q4 -1 23.5 0t49.5 3t55 6q49 8 60 14l8 -5q-3 -29 -3 -197v-135q0 -96 12 -113q16 -23 55 -23v-27z" />
    <glyph glyph-name="Wcircumflex" unicode="&#x174;" horiz-adv-x="906" 
d="M938 653q-32 0 -49 -34q-7 -12 -18 -48l-184 -569l-93 -11l-119 438q-12 43 -16 67l-1 -7q-2 -7 -4 -15.5t-5.5 -22t-7.5 -27.5l-124 -421l-98 -13l-167 583q-12 38 -19 53q-13 26 -42 27v26q53 -5 114 -5l128 4v-25q-29 0 -43 -14q-9 -9 -9 -26q0 -20 12 -62l87 -330
l18 -80q6 33 19 76l135 459l78 7l127 -465l18 -77q6 34 18 74l98 336q12 45 12 63q0 16 -10 26q-12 11 -41 13v25q44 -4 95 -4l91 4v-25zM511 874l127 -145l-15 -15l-138 74l-134 -74l-15 15l126 145l7 3h36z" />
    <glyph glyph-name="wcircumflex" unicode="&#x175;" horiz-adv-x="806" 
d="M814 481q-25 -1 -37 -19.5t-34 -82.5q-3 -6 -4 -9.5t-3 -9.5t-4 -11l-124 -349l-89 -9l-93 297q-12 34 -18 66q0 -1 -2 -8.5t-5.5 -21.5t-8.5 -29l-95 -294l-95 -9l-118 366q-30 90 -42 106q-13 16 -36 17v26q55 -4 114 -4q43 0 119 4v-25q-33 -4 -43 -15q-8 -10 -8 -24
q0 -13 15 -66l58 -191q5 -16 19 -73q0 1 1 4.5t2.5 10t4 14.5t6.5 20.5t8 25.5l103 316h71l101 -322q3 -9 19 -74q0 7 20 73l57 197q15 52 15 66q0 16 -8 24q-11 11 -42 13v26q72 -4 89 -4q53 0 87 4v-26zM479 735l110 -166l-17 -13l-131 101l-128 -101l-17 13l110 166l6 4
h61z" />
    <glyph glyph-name="Ycircumflex" unicode="&#x176;" horiz-adv-x="554" 
d="M585 653q-23 -2 -37 -17q-14 -14 -54 -87l-141 -253v-136q0 -57 4 -79t15 -35q19 -22 67 -22v-26q-71 4 -150 4l-150 -4v25q42 0 65 24q14 16 17.5 44t3.5 96v91l-148 272q-38 70 -53 86q-16 16 -36 17v25q56 -4 122 -4l131 4v-25q-27 0 -40 -12q-9 -9 -9 -24t17 -49
l88 -165l27 -54l106 216q18 36 18 54q0 14 -9 23q-12 11 -38 11v25q44 -4 96 -4l88 4v-25zM326 874l127 -145l-15 -15l-138 74l-134 -74l-15 15l126 145l7 3h36z" />
    <glyph glyph-name="ycircumflex" unicode="&#x177;" horiz-adv-x="518" 
d="M531 481q-25 0 -38 -18t-29 -63l-172 -477q-12 -33 -20 -52t-23.5 -43t-33.5 -37t-47 -22t-66 -9q-74 0 -103 27v12l46 71h13q17 -51 68 -51q39 0 60.5 28t41.5 84l9 26l-174 444q-23 58 -33 68q-11 11 -30 12v26q57 -4 113 -4l123 4v-26q-30 0 -43 -13q-9 -9 -9 -25
q0 -19 17 -62l69 -179q10 -25 17.5 -49.5t10.5 -36.5l2 -11l86 276q15 46 15 64q0 15 -9 24q-10 10 -42 12v26q42 -4 88 -4l93 4v-26zM310 735l110 -166l-17 -13l-131 101l-128 -101l-17 13l110 166l6 4h61z" />
    <glyph glyph-name="Ydieresis" unicode="&#x178;" horiz-adv-x="554" 
d="M585 653q-23 -2 -37 -17q-14 -14 -54 -87l-141 -253v-136q0 -57 4 -79t15 -35q19 -22 67 -22v-26q-71 4 -150 4l-150 -4v25q42 0 65 24q14 16 17.5 44t3.5 96v91l-148 272q-38 70 -53 86q-16 16 -36 17v25q56 -4 122 -4l131 4v-25q-27 0 -40 -12q-9 -9 -9 -24t17 -49
l88 -165l27 -54l106 216q18 36 18 54q0 14 -9 23q-12 11 -38 11v25q44 -4 96 -4l88 4v-25zM458 795q0 -28 -17 -44.5t-45 -16.5q-27 0 -43.5 16.5t-16.5 43.5q0 28 17.5 44.5t44.5 16.5t43.5 -16t16.5 -44zM263 795q0 -29 -16.5 -45t-45.5 -16q-26 0 -42.5 16.5t-16.5 43.5
q0 28 16.5 44.5t45.5 16.5q27 0 43 -16t16 -44z" />
    <glyph glyph-name="Zacute" unicode="&#x179;" horiz-adv-x="559" 
d="M533 645l-357 -595h212q63 0 85 21q24 24 27 71h28q-4 -57 -4 -123v-19h-500v36l356 590h-180q-66 0 -89 -20q-26 -21 -26 -64h-28q3 46 3 93v40h473v-30zM415 832l-6 -17l-207 -101l-14 17l148 147l9 2z" />
    <glyph glyph-name="zacute" unicode="&#x17a;" horiz-adv-x="482" 
d="M442 145q-3 -44 -3 -114v-31h-409v38l267 419h-98q-73 0 -97 -25q-19 -20 -20 -55h-29q4 48 4 99v28h384v-32l-265 -424h115q71 0 97 29q22 26 25 68h29zM352 721l-1 -17l-174 -147l-18 13l106 177l8 3z" />
    <glyph glyph-name="Zdotaccent" unicode="&#x17b;" horiz-adv-x="559" 
d="M533 645l-357 -595h212q63 0 85 21q24 24 27 71h28q-4 -57 -4 -123v-19h-500v36l356 590h-180q-66 0 -89 -20q-26 -21 -26 -64h-28q3 46 3 93v40h473v-30zM341 797q0 -30 -16.5 -46t-46.5 -16q-28 0 -44 16.5t-16 44.5q0 30 16.5 46t45.5 16q28 0 44.5 -16t16.5 -45z" />
    <glyph glyph-name="zdotaccent" unicode="&#x17c;" horiz-adv-x="482" 
d="M442 145q-3 -44 -3 -114v-31h-409v38l267 419h-98q-73 0 -97 -25q-19 -20 -20 -55h-29q4 48 4 99v28h384v-32l-265 -424h115q71 0 97 29q22 26 25 68h29zM305 645q0 -30 -17 -46t-47 -16q-27 0 -44 16.5t-17 44.5q0 29 17 45t47 16q28 0 44.5 -16t16.5 -44z" />
    <glyph glyph-name="Zcaron" unicode="&#x17d;" horiz-adv-x="559" 
d="M533 645l-357 -595h212q63 0 85 21q24 24 27 71h28q-4 -57 -4 -123v-19h-500v36l356 590h-180q-66 0 -89 -20q-26 -21 -26 -64h-28q3 46 3 93v40h473v-30zM254 727l-127 144l15 15l138 -73l134 73l15 -15l-126 -144l-7 -3h-36z" />
    <glyph glyph-name="zcaron" unicode="&#x17e;" horiz-adv-x="482" 
d="M442 145q-3 -44 -3 -114v-31h-409v38l267 419h-98q-73 0 -97 -25q-19 -20 -20 -55h-29q4 48 4 99v28h384v-32l-265 -424h115q71 0 97 29q22 26 25 68h29zM206 573l-111 165l17 13l132 -100l127 100l17 -13l-110 -165l-6 -4h-60z" />
    <glyph glyph-name="longs" unicode="&#x17f;" horiz-adv-x="345" 
d="M425 727l-46 -77h-13q-14 41 -27.5 56t-42.5 15q-23 0 -38 -11t-20.5 -32.5t-7 -37t-1.5 -39.5v-440q0 -88 13 -109q19 -28 76 -28v-26q-71 4 -148 4l-137 -4v25q30 0 51 25q13 15 16 42t3 104v261h-66v23q43 15 66 34q0 75 12 118q18 64 69.5 97t121.5 33q38 0 68 -5
t40 -11l11 -5v-12z" />
    <glyph glyph-name="florin" unicode="&#x192;" horiz-adv-x="496" 
d="M528 696l-44 -69h-9l-3 11q-3 11 -8 20t-13 20t-23 17.5t-34 6.5q-20 0 -34.5 -9t-22.5 -19.5t-15 -37.5t-9.5 -45t-8.5 -59q-4 -40 -10 -81h102l-5 -37h-102l-31 -241q-21 -167 -37.5 -240.5t-46.5 -116.5q-44 -64 -121 -64q-76 0 -111 30v10l38 60h9l3 -12
q4 -13 8.5 -24t20 -20.5t37.5 -9.5q35 0 52 36q17 38 39 216q40 326 46 375h-61l3 18q36 4 52 25q4 6 7.5 13t5.5 17t3 16t3 19.5t3 18.5q14 91 47 135q46 60 139 60q98 0 131 -29v-10z" />
    <glyph glyph-name="Aringacute" unicode="&#x1fa;" horiz-adv-x="602" 
d="M417 772q0 -34 -17 -60t-47 -38l200 -577q14 -37 22 -50q15 -23 42 -24v-25q-60 4 -119 4l-126 -4v25q28 0 43 14q10 10 10 27t-16 61l-44 130h-197l-46 -130q-16 -45 -16 -62q0 -16 10 -26q14 -13 43 -13v-26q-45 4 -97 4l-92 -4v25q15 1 25.5 6.5t20.5 21.5t15 28
t17 42l213 549q-35 11 -55 37.5t-20 64.5q0 47 32.5 76t85.5 29q49 0 81 -29t32 -76zM348 306l-54 161q-25 74 -25 92l-1 -5q-1 -4 -3 -11.5t-5 -18t-8 -26t-11 -32.5l-56 -160h163zM426 997l-6 -17l-207 -101l-14 17l148 147l9 2zM350 772q0 71 -48 71q-49 0 -49 -71
q0 -73 51 -73q46 0 46 73z" />
    <glyph glyph-name="aringacute" unicode="&#x1fb;" horiz-adv-x="536" 
d="M521 56q-24 -33 -50.5 -48.5t-66.5 -15.5q-76 0 -84 68l-5 -7.5t-15 -16t-26.5 -20.5t-39.5 -16.5t-53 -7.5q-44 0 -75 13t-46 35t-21.5 43.5t-6.5 44.5q0 98 84 129q56 21 200 21v25q0 76 -11 100q-21 47 -87 47q-71 0 -106 -61l-33 21q5 12 13.5 25t28.5 34t56.5 34
t84.5 13q122 0 161 -76q18 -35 18 -137q0 -11 -1.5 -68.5t-1.5 -106.5q0 -60 39 -60q13 0 31 9zM316 87v150q-76 0 -111 -15q-48 -22 -48 -79q0 -40 21.5 -60.5t60.5 -20.5q38 0 77 25zM375 660q0 -48 -32 -78t-83 -30q-53 0 -84.5 29.5t-31.5 78.5q0 47 33 76t85 29
q49 0 81 -29.5t32 -75.5zM308 660q0 71 -48 71q-49 0 -49 -71q0 -73 51 -73q46 0 46 73zM363 887l-6 -17l-207 -101l-14 17l148 147l9 2z" />
    <glyph glyph-name="AEacute" unicode="&#x1fc;" horiz-adv-x="767" 
d="M718 141q-3 -49 -3 -112v-29h-272q-137 0 -165 -2v25q30 0 51 24q12 14 15 40.5t3 99.5v129h-141l-102 -206q-18 -36 -18 -53q0 -32 49 -34v-25q-52 4 -101 4q-45 0 -93 -4v25q19 1 36 16q23 19 57 84l295 554q24 -2 90 -2h292v-30l3 -100h-28q0 40 -27 62q-23 19 -88 19
h-99v-262h88q57 0 77 22q16 19 19 52h28q-2 -37 -2 -98l2 -96h-28q-3 34 -19 51q-20 21 -78 21h-87v-215q0 -34 11 -43t51 -9h45q62 0 84 22q24 24 27 70h28zM347 362v250q-1 -1 -3.5 -8.5t-8.5 -22.5t-14 -32l-93 -187h119zM621 832l-6 -17l-207 -101l-14 17l148 147l9 2z
" />
    <glyph glyph-name="aeacute" unicode="&#x1fd;" horiz-adv-x="777" 
d="M742 279h-311v-5q0 -47 8 -83q10 -43 29 -71t44.5 -40t46.5 -16t48 -4q64 0 111 26l15 -22q-20 -25 -68.5 -49.5t-121.5 -24.5q-42 0 -77 9.5t-54.5 23.5t-33 28t-18.5 23l-5 10q-19 -36 -61 -64t-111 -28q-36 0 -64 9.5t-44 23.5t-26 33.5t-13.5 35.5t-3.5 33
q0 99 84 130q56 21 200 21v24q0 76 -11 100q-21 48 -88 48q-70 0 -105 -61l-33 21q5 12 13 25t28 34t56.5 34t84.5 13t82.5 -13.5t44.5 -26.5l11 -14q4 6 13.5 15t48 24t87.5 15q109 0 160 -77q34 -54 34 -154v-6zM613 328v10q0 27 -2.5 45t-10 41t-27 35t-49.5 12
t-49.5 -13t-28 -36.5t-11.5 -44.5t-3 -49h181zM316 147v90q-78 0 -111 -15q-48 -20 -48 -80q0 -40 21.5 -60.5t58.5 -20.5q38 0 59 21q20 20 20 65zM511 721l-1 -17l-174 -147l-18 13l106 177l8 3z" />
    <glyph glyph-name="Oslashacute" unicode="&#x1fe;" horiz-adv-x="711" 
d="M676 347q0 -158 -87.5 -257t-237.5 -99q-68 0 -128 22l-40 -83l-42 22l40 81q-71 41 -108.5 117.5t-37.5 178.5q0 158 88 257t238 99q69 0 127 -22l40 83l42 -22l-39 -81q70 -41 107.5 -117.5t37.5 -178.5zM540 337q0 141 -51 223l-234 -483q41 -36 100 -36q52 0 90 26.5
t57.5 71.5t28.5 94t9 104zM456 599q-41 36 -100 36q-52 0 -90 -26.5t-57.5 -71.5t-28.5 -94t-9 -104q0 -141 51 -223zM492 832l-6 -17l-207 -101l-14 17l148 147l9 2z" />
    <glyph glyph-name="oslashacute" unicode="&#x1ff;" horiz-adv-x="586" 
d="M549 258q0 -35 -6.5 -69t-24.5 -71.5t-46 -65t-75.5 -45.5t-109.5 -18q-51 0 -92 12l-39 -80l-41 21l38 77q-116 62 -116 228q0 35 6.5 69t24.5 71.5t46 65t75.5 45.5t109.5 18q51 0 92 -12l39 80l41 -21l-38 -77q116 -62 116 -228zM361 444q-28 26 -67 26
q-18 0 -33 -3.5t-33 -16.5t-30.5 -35.5t-21 -64.5t-8.5 -98q0 -89 26 -149zM418 253q0 89 -26 149l-167 -341q28 -26 67 -26q18 0 33 3.5t33 16.5t30.5 35.5t21 64.5t8.5 98zM405 721l-1 -17l-174 -147l-18 13l106 177l8 3z" />
    <glyph glyph-name="Scommaaccent" unicode="&#x218;" horiz-adv-x="483" 
d="M441 185q0 -58 -22.5 -98t-61 -59t-76 -26.5t-80.5 -7.5q-99 0 -159 21v23l-4 105h29q2 -36 23 -62q31 -39 101 -39q67 0 101 28.5t34 77.5q0 34 -14.5 59t-29.5 36.5t-55 38.5l-58 39q-63 41 -89.5 80.5t-26.5 106.5q0 78 55 127t167 49q38 0 76.5 -3t57.5 -6l19 -3
q-2 -27 -2 -61l2 -68h-28q-2 37 -27 63q-30 30 -94 30q-116 0 -116 -94q0 -41 19 -63t69 -55l64 -42q33 -22 48 -34t37 -36t31.5 -55t9.5 -72zM290 -123q0 -51 -30 -89.5t-65 -59.5l-16 15q39 39 39 76q0 19 -22 39t-22 41q0 24 15 37t39 13q25 0 43.5 -17.5t18.5 -54.5z
" />
    <glyph glyph-name="scommaaccent" unicode="&#x219;" horiz-adv-x="434" 
d="M389 146q0 -18 -3.5 -35.5t-15.5 -40t-32.5 -39t-58.5 -28t-88 -11.5q-82 0 -142 22v25q0 32 -1.5 57t-2.5 34l-1 9h29q4 -48 34 -74t78 -26q94 0 94 71q0 28 -15 44.5t-48 36.5l-73 44q-40 24 -63 54t-23 82q0 78 60 117q42 28 120 28q36 0 70 -3t49 -7l16 -3
q-3 -22 -3 -60l2 -58h-28q-1 31 -23.5 58.5t-76.5 27.5q-40 0 -60.5 -19t-20.5 -47t13.5 -42.5t44.5 -32.5l69 -39q19 -10 30 -18t30.5 -25.5t29.5 -43.5t10 -58zM272 -123q0 -51 -30 -89.5t-65 -59.5l-16 15q39 39 39 76q0 19 -22 39t-22 41q0 24 15 37t39 13
q25 0 43.5 -17.5t18.5 -54.5z" />
    <glyph glyph-name="uni021A" unicode="&#x21a;" horiz-adv-x="524" 
d="M530 542h-28q0 43 -25 65q-23 21 -86 21h-65v-468q0 -57 4 -79t15 -35q19 -22 67 -22v-26q-79 4 -150 4l-150 -4v25q43 0 66 24q14 16 17.5 44t3.5 96v441h-65q-63 0 -86 -21q-25 -22 -25 -65h-28q3 39 3 103v30h529v-30zM320 -123q0 -51 -30 -89.5t-65 -59.5l-16 15
q39 39 39 76q0 19 -22 39t-22 41q0 24 15 37t39 13q25 0 43.5 -17.5t18.5 -54.5z" />
    <glyph glyph-name="uni021B" unicode="&#x21b;" horiz-adv-x="390" 
d="M383 43q-48 -52 -147 -52q-115 0 -139 92q-8 33 -8 105q0 167 2 267h-67v25q41 14 77 45q35 30 87 106h27v-126h165v-50h-165v-277q0 -31 2.5 -50t11 -38.5t28 -29t50.5 -9.5q17 0 33 3.5t24 7.5l7 4zM291 -123q0 -51 -30 -89.5t-65 -59.5l-16 15q39 39 39 76
q0 19 -22 39t-22 41q0 24 15 37t39 13q25 0 43.5 -17.5t18.5 -54.5z" />
    <glyph glyph-name="dotlessj" unicode="&#x237;" horiz-adv-x="309" 
d="M226 510q-2 -19 -2 -199v-312q0 -107 -33 -154q-60 -85 -195 -85l-3 26q84 17 100 110q5 27 5 186v250q0 93 -12 110q-16 23 -55 23v26q4 -1 23 0t49 3.5t55 6.5q50 9 61 14z" />
    <glyph glyph-name="apostrophe" unicode="&#x2bc;" horiz-adv-x="352" 
d="M235 624q0 -51 -29.5 -89.5t-64.5 -59.5l-17 16q39 36 39 75q0 18 -22 38t-22 42q0 24 15.5 37t38.5 13q25 0 43.5 -17.5t18.5 -54.5z" />
    <glyph glyph-name="circumflex" unicode="&#x2c6;" horiz-adv-x="500" 
d="M286 735l110 -166l-17 -13l-131 101l-128 -101l-17 13l110 166l6 4h61z" />
    <glyph glyph-name="caron" unicode="&#x2c7;" horiz-adv-x="500" 
d="M214 573l-111 165l17 13l132 -100l127 100l17 -13l-110 -165l-6 -4h-60z" />
    <glyph glyph-name="uni02C9" unicode="&#x2c9;" horiz-adv-x="500" 
d="M389 611h-279v71h279v-71z" />
    <glyph glyph-name="breve" unicode="&#x2d8;" horiz-adv-x="500" 
d="M397 738q-20 -166 -147 -166q-131 0 -148 166l20 5q43 -94 128 -94t126 93z" />
    <glyph glyph-name="dotaccent" unicode="&#x2d9;" horiz-adv-x="500" 
d="M313 645q0 -30 -17 -46t-47 -16q-27 0 -44 16.5t-17 44.5q0 29 17 45t47 16q28 0 44.5 -16t16.5 -44z" />
    <glyph glyph-name="ring" unicode="&#x2da;" horiz-adv-x="500" 
d="M365 669q0 -48 -32 -78t-83 -30q-53 0 -84.5 29.5t-31.5 78.5q0 47 33 76t85 29q49 0 81 -29.5t32 -75.5zM298 669q0 71 -48 71q-49 0 -49 -71q0 -73 51 -73q46 0 46 73z" />
    <glyph glyph-name="ogonek" unicode="&#x2db;" horiz-adv-x="500" 
d="M338 -181l9 -20q-50 -47 -112 -47q-44 0 -67.5 25t-23.5 62q0 28 11.5 53t38 49.5t41.5 35.5t49 34l26 -3v-6q-76 -68 -76 -136q0 -57 54 -57q27 0 50 10z" />
    <glyph glyph-name="tilde" unicode="&#x2dc;" horiz-adv-x="500" 
d="M393 709l19 -8q-40 -111 -103 -111q-29 0 -62 14l-35 15q-28 12 -50 13q-31 0 -55 -43l-19 10q39 108 103 108q22 0 61 -16l35 -13q30 -13 50 -13q31 0 56 44z" />
    <glyph glyph-name="hungarumlaut" unicode="&#x2dd;" horiz-adv-x="500" 
d="M267 733l1 -18l-155 -163l-19 11l85 184l7 4zM425 713l-1 -18l-171 -143l-18 13l104 173l8 3z" />
    <glyph glyph-name="uni0394" unicode="&#x394;" horiz-adv-x="601" 
d="M601 0h-601v27l285 642h36l280 -642v-27zM501 53l-216 507l-226 -507h442z" />
    <glyph glyph-name="uni03A9" unicode="&#x3a9;" horiz-adv-x="717" 
d="M669 145q-9 -59 -9 -145h-254v61q64 9 112.5 89.5t48.5 189.5q0 48 -8 91t-28.5 89t-64 73.5t-106.5 27.5q-62 0 -106 -27.5t-65 -73t-29.5 -89t-8.5 -91.5q0 -109 48 -189.5t113 -89.5v-61h-254q0 87 -9 145h16q1 -39 27 -65q11 -11 32 -16t35.5 -5.5t50.5 -0.5h52
q-95 35 -144.5 111.5t-49.5 168.5q0 61 17 117t51 103t91.5 75t131.5 28q127 0 209.5 -80.5t82.5 -229.5q0 -113 -57 -187.5t-140 -105.5h54q36 0 50.5 0.5t35.5 5.5t32 16q27 27 28 65h15z" />
    <glyph glyph-name="uni03BC" unicode="&#x3bc;" horiz-adv-x="549" 
d="M519 41q-36 -47 -82 -47q-32 0 -45 18.5t-13 41.5q-7 -11 -18.5 -23t-39.5 -25t-62 -13q-26 0 -46.5 6.5t-29 13.5t-16 16t-8.5 9v-186q-49 -8 -59 -11q-33 -8 -62 -21l-6 14q22 11 30.5 19.5t18.5 24.5q13 21 13 107v320q0 85 -10 102q-11 18 -41 21v16q24 -2 73 7
q35 6 50 14l4 -3q-5 -44 -5 -185q0 -107 5 -147q12 -97 115 -97q49 0 92 31v241q0 83 -6 96q-1 3 -3 6q-12 18 -41 21v16q25 -2 74 7q33 6 49 14l4 -3q-3 -35 -3 -186v-166q0 -20 1 -31t10 -23t27 -12q13 0 21 7z" />
    <glyph glyph-name="pi" unicode="&#x3c0;" horiz-adv-x="538" 
d="M528 467l-61 -78h-41v-279q0 -22 0.5 -31.5t9 -22t26.5 -12.5q13 0 21 7l8 -10q-36 -47 -82 -47q-57 0 -57 73v322h-175l-1 -383q-24 -3 -52 -10q-21 -5 -60 -22l-5 14q34 18 48 43q3 5 5 11t3.5 11t2.5 13t2 12t1 14v14v16.5v16.5v250h-11q-46 0 -79 -47l-11 7
q20 62 46.5 80.5t88.5 18.5q39 0 117.5 -2t117.5 -2q43 0 61 3q36 6 69 30z" />
    <glyph glyph-name="Wgrave" unicode="&#x1e80;" horiz-adv-x="906" 
d="M938 653q-32 0 -49 -34q-7 -12 -18 -48l-184 -569l-93 -11l-119 438q-12 43 -16 67l-1 -7q-2 -7 -4 -15.5t-5.5 -22t-7.5 -27.5l-124 -421l-98 -13l-167 583q-12 38 -19 53q-13 26 -42 27v26q53 -5 114 -5l128 4v-25q-29 0 -43 -14q-9 -9 -9 -26q0 -20 12 -62l87 -330
l18 -80q6 33 19 76l135 459l78 7l127 -465l18 -77q6 34 18 74l98 336q12 45 12 63q0 16 -10 26q-12 11 -41 13v25q44 -4 95 -4l91 4v-25zM351 816l-5 17l70 47l9 -1l148 -148l-14 -16z" />
    <glyph glyph-name="wgrave" unicode="&#x1e81;" horiz-adv-x="806" 
d="M814 481q-25 -1 -37 -19.5t-34 -82.5q-3 -6 -4 -9.5t-3 -9.5t-4 -11l-124 -349l-89 -9l-93 297q-12 34 -18 66q0 -1 -2 -8.5t-5.5 -21.5t-8.5 -29l-95 -294l-95 -9l-118 366q-30 90 -42 106q-13 16 -36 17v26q55 -4 114 -4q43 0 119 4v-25q-33 -4 -43 -15q-8 -10 -8 -24
q0 -13 15 -66l58 -191q5 -16 19 -73q0 1 1 4.5t2.5 10t4 14.5t6.5 20.5t8 25.5l103 316h71l101 -322q3 -9 19 -74q0 7 20 73l57 197q15 52 15 66q0 16 -8 24q-11 11 -42 13v26q72 -4 89 -4q53 0 87 4v-26zM325 704l-1 17l79 29l8 -3l106 -177l-18 -13z" />
    <glyph glyph-name="Wacute" unicode="&#x1e82;" horiz-adv-x="906" 
d="M938 653q-32 0 -49 -34q-7 -12 -18 -48l-184 -569l-93 -11l-119 438q-12 43 -16 67l-1 -7q-2 -7 -4 -15.5t-5.5 -22t-7.5 -27.5l-124 -421l-98 -13l-167 583q-12 38 -19 53q-13 26 -42 27v26q53 -5 114 -5l128 4v-25q-29 0 -43 -14q-9 -9 -9 -26q0 -20 12 -62l87 -330
l18 -80q6 33 19 76l135 459l78 7l127 -465l18 -77q6 34 18 74l98 336q12 45 12 63q0 16 -10 26q-12 11 -41 13v25q44 -4 95 -4l91 4v-25zM612 832l-6 -17l-207 -101l-14 17l148 147l9 2z" />
    <glyph glyph-name="wacute" unicode="&#x1e83;" horiz-adv-x="806" 
d="M814 481q-25 -1 -37 -19.5t-34 -82.5q-3 -6 -4 -9.5t-3 -9.5t-4 -11l-124 -349l-89 -9l-93 297q-12 34 -18 66q0 -1 -2 -8.5t-5.5 -21.5t-8.5 -29l-95 -294l-95 -9l-118 366q-30 90 -42 106q-13 16 -36 17v26q55 -4 114 -4q43 0 119 4v-25q-33 -4 -43 -15q-8 -10 -8 -24
q0 -13 15 -66l58 -191q5 -16 19 -73q0 1 1 4.5t2.5 10t4 14.5t6.5 20.5t8 25.5l103 316h71l101 -322q3 -9 19 -74q0 7 20 73l57 197q15 52 15 66q0 16 -8 24q-11 11 -42 13v26q72 -4 89 -4q53 0 87 4v-26zM560 721l-1 -17l-174 -147l-18 13l106 177l8 3z" />
    <glyph glyph-name="Wdieresis" unicode="&#x1e84;" horiz-adv-x="906" 
d="M938 653q-32 0 -49 -34q-7 -12 -18 -48l-184 -569l-93 -11l-119 438q-12 43 -16 67l-1 -7q-2 -7 -4 -15.5t-5.5 -22t-7.5 -27.5l-124 -421l-98 -13l-167 583q-12 38 -19 53q-13 26 -42 27v26q53 -5 114 -5l128 4v-25q-29 0 -43 -14q-9 -9 -9 -26q0 -20 12 -62l87 -330
l18 -80q6 33 19 76l135 459l78 7l127 -465l18 -77q6 34 18 74l98 336q12 45 12 63q0 16 -10 26q-12 11 -41 13v25q44 -4 95 -4l91 4v-25zM646 795q0 -28 -17 -44.5t-45 -16.5q-27 0 -43.5 16.5t-16.5 43.5q0 28 17.5 44.5t44.5 16.5t43.5 -16t16.5 -44zM451 795
q0 -29 -16.5 -45t-45.5 -16q-26 0 -42.5 16.5t-16.5 43.5q0 28 16.5 44.5t45.5 16.5q27 0 43 -16t16 -44z" />
    <glyph glyph-name="wdieresis" unicode="&#x1e85;" horiz-adv-x="806" 
d="M814 481q-25 -1 -37 -19.5t-34 -82.5q-3 -6 -4 -9.5t-3 -9.5t-4 -11l-124 -349l-89 -9l-93 297q-12 34 -18 66q0 -1 -2 -8.5t-5.5 -21.5t-8.5 -29l-95 -294l-95 -9l-118 366q-30 90 -42 106q-13 16 -36 17v26q55 -4 114 -4q43 0 119 4v-25q-33 -4 -43 -15q-8 -10 -8 -24
q0 -13 15 -66l58 -191q5 -16 19 -73q0 1 1 4.5t2.5 10t4 14.5t6.5 20.5t8 25.5l103 316h71l101 -322q3 -9 19 -74q0 7 20 73l57 197q15 52 15 66q0 16 -8 24q-11 11 -42 13v26q72 -4 89 -4q53 0 87 4v-26zM598 649q0 -28 -17 -44.5t-45 -16.5q-27 0 -43.5 16.5t-16.5 43.5
q0 28 17.5 44.5t44.5 16.5t43.5 -16t16.5 -44zM403 649q0 -29 -16.5 -45t-45.5 -16q-26 0 -42.5 16.5t-16.5 43.5q0 28 16.5 44.5t45.5 16.5q27 0 43 -16t16 -44z" />
    <glyph glyph-name="Ygrave" unicode="&#x1ef2;" horiz-adv-x="554" 
d="M585 653q-23 -2 -37 -17q-14 -14 -54 -87l-141 -253v-136q0 -57 4 -79t15 -35q19 -22 67 -22v-26q-71 4 -150 4l-150 -4v25q42 0 65 24q14 16 17.5 44t3.5 96v91l-148 272q-38 70 -53 86q-16 16 -36 17v25q56 -4 122 -4l131 4v-25q-27 0 -40 -12q-9 -9 -9 -24t17 -49
l88 -165l27 -54l106 216q18 36 18 54q0 14 -9 23q-12 11 -38 11v25q44 -4 96 -4l88 4v-25zM159 816l-5 17l70 47l9 -1l148 -148l-14 -16z" />
    <glyph glyph-name="ygrave" unicode="&#x1ef3;" horiz-adv-x="518" 
d="M531 481q-25 0 -38 -18t-29 -63l-172 -477q-12 -33 -20 -52t-23.5 -43t-33.5 -37t-47 -22t-66 -9q-74 0 -103 27v12l46 71h13q17 -51 68 -51q39 0 60.5 28t41.5 84l9 26l-174 444q-23 58 -33 68q-11 11 -30 12v26q57 -4 113 -4l123 4v-26q-30 0 -43 -13q-9 -9 -9 -25
q0 -19 17 -62l69 -179q10 -25 17.5 -49.5t10.5 -36.5l2 -11l86 276q15 46 15 64q0 15 -9 24q-10 10 -42 12v26q42 -4 88 -4l93 4v-26zM155 704l-1 17l79 29l8 -3l106 -177l-18 -13z" />
    <glyph glyph-name="thinspace" unicode="&#x2009;" horiz-adv-x="50" 
 />
    <glyph glyph-name="endash" unicode="&#x2013;" horiz-adv-x="399" 
d="M399 224h-399v63h399v-63z" />
    <glyph glyph-name="emdash" unicode="&#x2014;" horiz-adv-x="707" 
d="M707 224h-707v63h707v-63z" />
    <glyph glyph-name="quoteleft" unicode="&#x2018;" horiz-adv-x="241" 
d="M195 504q0 -32 -21 -50t-52 -18q-32 0 -56.5 23t-24.5 77q0 75 40.5 133t86.5 81l20 -21q-51 -51 -51 -116q0 -29 25 -46q33 -21 33 -63z" />
    <glyph glyph-name="quoteright" unicode="&#x2019;" horiz-adv-x="241" 
d="M200 649q0 -75 -40.5 -133t-86.5 -81l-20 21q51 51 51 116q0 29 -25 46q-33 21 -33 63q0 32 21 50t52 18q32 0 56.5 -23t24.5 -77z" />
    <glyph glyph-name="quotesinglbase" unicode="&#x201a;" horiz-adv-x="241" 
d="M200 38q0 -75 -40.5 -133t-86.5 -81l-20 21q52 52 52 116q0 29 -25 46q-34 22 -34 63q0 32 21.5 50.5t52.5 18.5q32 0 56 -23.5t24 -77.5z" />
    <glyph glyph-name="quotedblleft" unicode="&#x201c;" horiz-adv-x="438" 
d="M392 504q0 -32 -21.5 -50t-52.5 -18q-32 0 -56 23t-24 77q0 75 40.5 133t86.5 81l20 -21q-52 -52 -52 -116q0 -29 25 -46q34 -22 34 -63zM195 504q0 -32 -21 -50t-52 -18q-32 0 -56.5 23t-24.5 77q0 75 40.5 133t86.5 81l20 -21q-51 -51 -51 -116q0 -29 25 -46
q33 -21 33 -63z" />
    <glyph glyph-name="quotedblright" unicode="&#x201d;" horiz-adv-x="437" 
d="M396 649q0 -75 -40.5 -133t-86.5 -81l-20 21q52 52 52 116q0 29 -25 46q-34 22 -34 63q0 32 21.5 50t52.5 18q32 0 56 -23t24 -77zM200 649q0 -75 -40.5 -133t-86.5 -81l-20 21q51 51 51 116q0 29 -25 46q-33 21 -33 63q0 32 21 50t52 18q32 0 56.5 -23t24.5 -77z" />
    <glyph glyph-name="quotedblbase" unicode="&#x201e;" horiz-adv-x="438" 
d="M397 38q0 -75 -40.5 -133t-86.5 -81l-20 21q51 51 51 116q0 29 -25 46q-33 21 -33 63q0 32 21 50.5t52 18.5q32 0 56.5 -23.5t24.5 -77.5zM200 38q0 -75 -40.5 -133t-86.5 -81l-20 21q52 52 52 116q0 29 -25 46q-34 22 -34 63q0 32 21.5 50.5t52.5 18.5q32 0 56 -23.5
t24 -77.5z" />
    <glyph glyph-name="dagger" unicode="&#x2020;" horiz-adv-x="392" 
d="M372 403l-162 39l37 -121v-113q0 -201 -51 -391q-50 184 -50 391v113q35 117 36 121l-162 -39v107l162 -38l-41 190h111l-42 -190l162 38v-107z" />
    <glyph glyph-name="daggerdbl" unicode="&#x2021;" horiz-adv-x="391" 
d="M371 -75l-162 38l41 -189h-111l42 189l-161 -38v107l161 -38l-35 120v235l36 120l-162 -38v107l162 -38l-41 190h111l-42 -190l161 38v-107l-161 38l35 -120v-235l-36 -120l162 38v-107z" />
    <glyph glyph-name="bullet" unicode="&#x2022;" horiz-adv-x="502" 
d="M402 245q0 -65 -43 -109t-107 -44t-108 42.5t-44 110.5q0 65 43 109t107 44q65 0 108.5 -43t43.5 -110z" />
    <glyph glyph-name="ellipsis" unicode="&#x2026;" horiz-adv-x="962" 
d="M922 64q0 -33 -20.5 -55t-57.5 -22q-36 0 -56.5 21.5t-20.5 55.5q0 33 20.5 54.5t57.5 21.5q36 0 56.5 -21.5t20.5 -54.5zM563 64q0 -33 -20.5 -55t-57.5 -22q-36 0 -56.5 21.5t-20.5 55.5q0 33 20.5 54.5t57.5 21.5q36 0 56.5 -21.5t20.5 -54.5zM205 64q0 -33 -20.5 -55
t-57.5 -22q-36 0 -56.5 21.5t-20.5 55.5q0 33 20.5 54.5t57.5 21.5q36 0 56.5 -21.5t20.5 -54.5z" />
    <glyph glyph-name="perthousand" unicode="&#x2030;" horiz-adv-x="937" 
d="M918 143q0 -70 -40.5 -111t-107.5 -41q-66 0 -106.5 39t-40.5 106q0 70 40 111t107 41q66 0 107 -39t41 -106zM326 534q0 -70 -40.5 -111.5t-107.5 -41.5q-66 0 -106.5 39.5t-40.5 106.5q0 70 40 111t107 41q66 0 107 -39t41 -106zM593 670l-505 -670h-69l505 670h69z
M581 143q0 -70 -40 -111t-107 -41q-66 0 -107 39t-41 106q0 70 40.5 111t107.5 41q66 0 106.5 -39t40.5 -106zM854 141q0 48 -24.5 72t-58.5 24q-35 0 -59.5 -24t-24.5 -75q0 -48 24.5 -72t58.5 -24q35 0 59.5 24t24.5 75zM261 532q0 48 -24 72t-58 24q-35 0 -59.5 -24
t-24.5 -75q0 -48 24.5 -72t58.5 -24t58.5 24t24.5 75zM517 141q0 48 -24.5 72t-58.5 24t-58.5 -24t-24.5 -75q0 -48 24 -72t58 -24q35 0 59.5 24t24.5 75z" />
    <glyph glyph-name="guilsinglleft" unicode="&#x2039;" horiz-adv-x="263" 
d="M217 41h-89l-102 220l102 221h89l-89 -221z" />
    <glyph glyph-name="guilsinglright" unicode="&#x203a;" horiz-adv-x="263" 
d="M237 261l-102 -220h-89l89 220l-89 221h89z" />
    <glyph glyph-name="fraction" unicode="&#x2044;" horiz-adv-x="139" 
d="M304 733l-405 -788h-60l405 788h60z" />
    <glyph glyph-name="zerosuperior" unicode="&#x2070;" horiz-adv-x="388" 
d="M360 556q0 -22 -2 -42t-12 -51t-26.5 -53t-50.5 -38t-80 -16q-50 0 -84 19.5t-49.5 51.5t-21.5 61t-6 61q0 22 2 42.5t12 51.5t27 53.5t51 39t79 16.5q41 0 71.5 -14t47 -34t26.5 -48.5t13 -51.5t3 -48zM271 551q0 96 -17 132t-58 36q-43 0 -60.5 -42.5t-17.5 -122.5
q0 -96 17.5 -130t58.5 -34q44 0 60.5 40t16.5 121z" />
    <glyph glyph-name="foursuperior" unicode="&#x2074;" horiz-adv-x="366" 
d="M330 358q-45 3 -85 3q-35 0 -92 -3v23q12 0 20 2t16 9t12 23.5t4 41.5h-167v34q42 64 111 153t98 110l36 -3q-2 -46 -2 -140v-101h50v-53h-50q0 -45 7.5 -59.5t41.5 -16.5v-23zM205 510v156q-10 -17 -39 -57l-72 -99h111z" />
    <glyph glyph-name="fivesuperior" unicode="&#x2075;" horiz-adv-x="330" 
d="M296 488q0 -58 -36 -95t-110 -37q-79 0 -118 41l13 18q29 -22 76 -22q42 0 66.5 22.5t24.5 62.5q0 81 -86 81q-27 0 -57 -10l-10 6l18 190h197v-63h-165l-8 -84q24 8 58 8q66 0 101.5 -35.5t35.5 -82.5z" />
    <glyph glyph-name="sixsuperior" unicode="&#x2076;" horiz-adv-x="344" 
d="M323 484q0 -54 -35.5 -91t-105.5 -37q-81 0 -114 50t-33 139q0 60 18 103t48 64.5t59 30.5t60 9q29 0 52.5 -6t33.5 -12l9 -5l-8 -23q-21 11 -65 11q-59 0 -90.5 -32.5t-31.5 -110.5q25 32 87 32q52 0 84 -30t32 -92zM238 478q0 43 -14.5 64.5t-50.5 21.5q-16 0 -29.5 -4
t-18.5 -8l-5 -4q0 -90 11.5 -125.5t48.5 -35.5q58 0 58 91z" />
    <glyph glyph-name="sevensuperior" unicode="&#x2077;" horiz-adv-x="324" 
d="M303 707l-132 -346h-81v9q29 39 80 136t82 178h-109q-39 0 -57 -11.5t-21 -38.5h-23q4 51 4 91v20h257v-38z" />
    <glyph glyph-name="eightsuperior" unicode="&#x2078;" horiz-adv-x="343" 
d="M318 464q0 -51 -37.5 -79.5t-107.5 -28.5q-72 0 -107 26t-35 69q0 16 4.5 29.5t12.5 23t16 17t18.5 13t17.5 8.5t15 6l8 2l-12 7q-33 19 -49.5 40t-16.5 57q0 46 33.5 72t96.5 26q68 0 98 -27t30 -59q0 -64 -80 -89l22 -12q21 -12 33 -20.5t26 -30.5t14 -50zM236 660
q0 60 -59 60q-30 0 -44.5 -13.5t-14.5 -34.5q0 -34 48 -62l36 -22q34 25 34 72zM241 446q1 21 -11.5 34.5t-43.5 32.5l-42 26q-42 -31 -42 -83q0 -31 17.5 -50t52.5 -19q34 0 51.5 16.5t17.5 42.5z" />
    <glyph glyph-name="ninesuperior" unicode="&#x2079;" horiz-adv-x="344" 
d="M26 624q0 53 35.5 90.5t105.5 37.5q81 0 113.5 -49.5t32.5 -136.5q0 -65 -19 -110.5t-50 -65t-57.5 -27t-55.5 -7.5t-52.5 6t-32.5 12l-10 5l8 22q20 -10 64 -10q121 0 121 145q-25 -31 -87 -31q-52 0 -84 28.5t-32 90.5zM112 631q0 -43 14.5 -65t49.5 -22q16 0 29 4
t18 8l5 4q0 91 -11 126t-48 35q-31 0 -44 -22.5t-13 -67.5z" />
    <glyph glyph-name="zeroinferior" unicode="&#x2080;" horiz-adv-x="388" 
d="M360 -17q0 -22 -2 -42t-12 -51t-26.5 -53t-50.5 -38t-80 -16q-50 0 -84 19.5t-49.5 51.5t-21.5 61t-6 61q0 22 2 42.5t12 51.5t27 53.5t51 39t79 16.5q41 0 71.5 -14t47 -34t26.5 -48.5t13 -51.5t3 -48zM271 -22q0 96 -17 132t-58 36q-43 0 -60.5 -42.5t-17.5 -122.5
q0 -96 17.5 -130t58.5 -34q44 0 60.5 40t16.5 121z" />
    <glyph glyph-name="oneinferior" unicode="&#x2081;" horiz-adv-x="277" 
d="M247 -214q-4 0 -37 1t-55 1q-19 0 -52 -1t-38 -1v22q27 3 40 16q9 9 11 28.5t2 71.5v170q0 11 -10 11q-5 0 -25 -4l-34 -6v27q65 20 87 30q22 9 50 30l11 -6q-3 -135 -3 -140v-134q0 -58 8 -74q11 -16 45 -20v-22z" />
    <glyph glyph-name="twoinferior" unicode="&#x2082;" horiz-adv-x="349" 
d="M295 -99q-6 -42 -6 -108h-243v32q4 4 21.5 19.5t24.5 21.5t22 20t23.5 23.5t19.5 23.5t19 27q29 47 29 98q0 76 -70 76q-44 0 -69 -41l-18 10q30 76 122 76q60 0 89.5 -33t29.5 -74q0 -83 -75 -144q-34 -28 -101 -79h88q46 0 58 12q10 10 13 40h23z" />
    <glyph glyph-name="threeinferior" unicode="&#x2083;" horiz-adv-x="350" 
d="M300 -100q0 -50 -33.5 -83.5t-106.5 -33.5q-40 0 -71 14.5t-44 30.5l13 18q34 -25 73 -25q49 0 68.5 26t19.5 57q0 35 -20.5 54.5t-54.5 19.5q-5 0 -13.5 -1t-11.5 -1v29h15q75 0 75 70q0 60 -59 60q-44 0 -69 -43l-19 11q30 76 117 76q107 0 107 -91q0 -26 -11 -45.5
t-28 -28.5t-27 -12.5t-19 -5.5q5 0 13 -1t24.5 -6.5t29 -15t22.5 -28.5t10 -45z" />
    <glyph glyph-name="fourinferior" unicode="&#x2084;" horiz-adv-x="366" 
d="M330 -215q-45 3 -85 3q-35 0 -92 -3v23q12 0 20 2t16 9t12 23.5t4 41.5h-167v34q42 64 111 153t98 110l36 -3q-2 -46 -2 -140v-101h50v-53h-50q0 -45 7.5 -59.5t41.5 -16.5v-23zM205 -63v156q-10 -17 -39 -57l-72 -99h111z" />
    <glyph glyph-name="fiveinferior" unicode="&#x2085;" horiz-adv-x="330" 
d="M296 -85q0 -58 -36 -95t-110 -37q-79 0 -118 41l13 18q29 -22 76 -22q42 0 66.5 22.5t24.5 62.5q0 81 -86 81q-27 0 -57 -10l-10 6l18 190h197v-63h-165l-8 -84q24 8 58 8q66 0 101.5 -35.5t35.5 -82.5z" />
    <glyph glyph-name="sixinferior" unicode="&#x2086;" horiz-adv-x="344" 
d="M323 -89q0 -54 -35.5 -91t-105.5 -37q-81 0 -114 50t-33 139q0 60 18 103t48 64.5t59 30.5t60 9q29 0 52.5 -5.5t33.5 -11.5l9 -6l-8 -23q-21 11 -65 11q-59 0 -90.5 -32.5t-31.5 -110.5q25 32 87 32q52 0 84 -30t32 -92zM238 -95q0 43 -14.5 64.5t-50.5 21.5
q-16 0 -29.5 -4t-18.5 -8l-5 -4q0 -90 11.5 -125.5t48.5 -35.5q58 0 58 91z" />
    <glyph glyph-name="seveninferior" unicode="&#x2087;" horiz-adv-x="324" 
d="M303 134l-132 -346h-81v9q29 39 80 136t82 178h-109q-39 0 -57 -11.5t-21 -38.5h-23q4 51 4 91v20h257v-38z" />
    <glyph glyph-name="eightinferior" unicode="&#x2088;" horiz-adv-x="343" 
d="M318 -109q0 -51 -37.5 -79.5t-107.5 -28.5q-72 0 -107 26t-35 69q0 16 4.5 29.5t12.5 23t16 17t18.5 13t17.5 8.5t15 5l8 3l-12 7q-33 19 -49.5 40t-16.5 57q0 46 33.5 72t96.5 26q68 0 98 -27t30 -59q0 -64 -80 -89l22 -12q21 -12 33 -20.5t26 -30.5t14 -50zM236 87
q0 60 -59 60q-30 0 -44.5 -13.5t-14.5 -34.5q0 -34 48 -62l36 -22q34 25 34 72zM241 -127q1 21 -11.5 34.5t-43.5 32.5l-42 26q-42 -31 -42 -83q0 -31 17.5 -50t52.5 -19q34 0 51.5 16.5t17.5 42.5z" />
    <glyph glyph-name="nineinferior" unicode="&#x2089;" horiz-adv-x="344" 
d="M26 51q0 53 35.5 90.5t105.5 37.5q81 0 113.5 -49.5t32.5 -136.5q0 -65 -19 -110.5t-50 -65t-57.5 -27t-55.5 -7.5t-52.5 5.5t-32.5 11.5l-10 6l8 22q20 -10 64 -10q121 0 121 145q-25 -31 -87 -31q-52 0 -84 28.5t-32 90.5zM112 58q0 -43 14.5 -65t49.5 -22q16 0 29 4
t18 8l5 4q0 91 -11 126t-48 35q-31 0 -44 -22.5t-13 -67.5z" />
    <glyph glyph-name="Euro" unicode="&#x20ac;" horiz-adv-x="554" 
d="M454 264v-46h-237q18 -184 136 -184q81 0 105 75h14l44 -67v-14q-5 -4 -16.5 -10.5t-55.5 -17.5t-99 -11q-230 0 -262 229h-58v46h54v24q0 30 3 58h-57v46h64q23 102 91.5 161t180.5 59q50 0 89.5 -8.5t53.5 -17.5l15 -9v-13l-45 -68h-15q0 3 -1.5 7.5t-8.5 17t-17 22
t-29.5 17t-44.5 7.5q-118 0 -140 -175h236v-46h-240q-2 -14 -2 -41q0 -28 2 -41h240z" />
    <glyph glyph-name="trademark" unicode="&#x2122;" horiz-adv-x="781" 
d="M748 312q-50 2 -75 2q-18 0 -68 -2v18q25 3 34 14q8 9 8 39q0 8 -0.5 21.5t-0.5 17.5l-6 184l-114 -295h-26l-115 306l-7 -199q0 -5 -0.5 -19t-0.5 -21q0 -20 7 -32q7 -13 36 -16v-18q-48 2 -60 2q-15 0 -63 -2v18q25 3 35 15q3 4 5 9.5t3.5 15.5t1.5 16.5t1 22.5t1 23
l8 160q0 3 0.5 16t0.5 21q0 24 -9 32t-31 8v20q50 -2 60 -2q20 0 42 2l110 -296l112 296q10 -2 39 -2q39 0 56 2v-19q-23 -2 -31 -8q-10 -9 -10 -35q0 -7 0.5 -19.5t0.5 -15.5l8 -180q3 -54 10 -65q12 -15 38 -17v-18zM283 606h-21q-3 32 -10 41q-9 11 -55 11h-26v-246
q0 -50 9 -65q9 -14 38 -17v-18q-48 2 -74 2t-74 -2v18q25 3 35 14q11 13 11 87v227h-25q-46 0 -55 -11q-7 -9 -10 -41h-21l2 81h274q-1 -51 2 -81z" />
    <glyph glyph-name="Omega" unicode="&#x2126;" horiz-adv-x="717" 
d="M669 145q-9 -59 -9 -145h-254v61q64 9 112.5 89.5t48.5 189.5q0 48 -8 91t-28.5 89t-64 73.5t-106.5 27.5q-62 0 -106 -27.5t-65 -73t-29.5 -89t-8.5 -91.5q0 -109 48 -189.5t113 -89.5v-61h-254q0 87 -9 145h16q1 -39 27 -65q11 -11 32 -16t35.5 -5.5t50.5 -0.5h52
q-95 35 -144.5 111.5t-49.5 168.5q0 61 17 117t51 103t91.5 75t131.5 28q127 0 209.5 -80.5t82.5 -229.5q0 -113 -57 -187.5t-140 -105.5h54q36 0 50.5 0.5t35.5 5.5t32 16q27 27 28 65h15z" />
    <glyph glyph-name="partialdiff" unicode="&#x2202;" horiz-adv-x="460" 
d="M421 453q0 -76 -16 -176t-52 -171q-57 -112 -161 -112q-71 0 -109 47.5t-38 137.5q0 101 41 181q52 104 154 104q83 0 113 -71q8 30 8 91q0 109 -34 143q-24 24 -67 24q-18 0 -32.5 -4.5t-23.5 -12t-14.5 -13.5t-10 -13.5t-5.5 -8.5h-7l-29 44v10q32 29 102 29
q116 0 158 -95q23 -55 23 -134zM336 298q0 136 -87 136q-37 0 -63.5 -27.5t-39.5 -58.5q-34 -81 -34 -185q0 -140 88 -140q37 0 63 29.5t39 60.5q34 77 34 185z" />
    <glyph glyph-name="Delta" unicode="&#x2206;" horiz-adv-x="601" 
d="M601 0h-601v27l285 642h36l280 -642v-27zM501 53l-216 507l-226 -507h442z" />
    <glyph glyph-name="product" unicode="&#x220f;" horiz-adv-x="784" 
d="M740 -242q-74 4 -104 4q-66 0 -107 -4v14q29 0 47 22q11 14 14 39t3 94v788h-399v-818q0 -82 12 -100q15 -22 49 -25v-14q-74 4 -104 4q-66 0 -107 -4v14q28 0 46 22q11 14 14 39t3 94v701q0 80 -11 97q-15 23 -49 26v12q52 -3 135 -3h422q84 0 136 3v-12q-34 -3 -49 -26
q-12 -20 -12 -97v-731q0 -80 13 -100q15 -22 48 -25v-14z" />
    <glyph glyph-name="summation" unicode="&#x2211;" horiz-adv-x="628" 
d="M618 -71q-2 -20 -2.5 -62.5t0.5 -74.5v-33h-597v44l274 450l-274 479v27h578q-2 -84 2 -130h-15q-2 44 -24 66q-17 20 -98 20h-336l245 -428l-279 -451h384q76 0 100 25q26 26 27 68h15z" />
    <glyph glyph-name="minus" unicode="&#x2212;" 
d="M538 265h-526v59h526v-59z" />
    <glyph glyph-name="uni2215" unicode="&#x2215;" horiz-adv-x="139" 
d="M304 733l-405 -788h-60l405 788h60z" />
    <glyph glyph-name="uni2219" unicode="&#x2219;" horiz-adv-x="290" 
d="M217 269q0 -30 -19.5 -51t-52.5 -21t-52.5 20.5t-19.5 51.5q0 30 19.5 51t52.5 21t52.5 -20.5t19.5 -51.5z" />
    <glyph glyph-name="radical" unicode="&#x221a;" horiz-adv-x="529" 
d="M709 854h-185l-278 -857l-31 -8l-147 426q-28 85 -75 80v15q42 -3 81 -3q25 0 49 2l101 -318q7 -24 17 -65q11 50 17 67l226 702h225v-41z" />
    <glyph glyph-name="infinity" unicode="&#x221e;" horiz-adv-x="696" 
d="M644 299q0 -77 -42 -124.5t-110 -47.5q-85 0 -139 98l-15 27q-54 -124 -144 -124q-65 0 -103.5 42.5t-38.5 121.5q0 77 42 124t110 47q82 0 139 -98l15 -26q54 124 145 124q65 0 103 -42.5t38 -121.5zM602 296q0 48 -28 77.5t-79 29.5q-76 0 -125 -82l28 -49
q24 -43 47.5 -63t58.5 -20q44 0 71 28t27 79zM327 270l-29 47q-27 44 -49.5 64t-56.5 20q-44 0 -71 -28t-27 -78q0 -48 28 -77.5t79 -29.5q77 0 126 82z" />
    <glyph glyph-name="integral" unicode="&#x222b;" horiz-adv-x="321" 
d="M340 748l-29 -55h-8q-1 1 -4.5 7t-6 9t-7.5 8.5t-10 8.5t-13.5 5.5t-17.5 2.5q-58 0 -58 -95q0 -43 9 -222.5t9 -284.5q0 -254 -51 -332q-36 -55 -106 -55q-37 0 -66 22v10l29 55h8l5 -8q5 -9 8 -12t10 -9.5t16 -9t20 -2.5q58 0 58 95q0 40 -9.5 220t-8.5 287
q0 254 51 332q36 55 106 55q37 0 66 -22v-10z" />
    <glyph glyph-name="approxequal" unicode="&#x2248;" horiz-adv-x="484" 
d="M465 439q-33 -66 -64.5 -88t-69.5 -22q-35 0 -67 12l-72 27q-28 10 -55 10q-65 0 -98 -62l-20 16q33 66 64.5 88t69.5 22q34 0 66 -12l73 -27q28 -10 55 -10q65 0 98 62zM465 254q-33 -66 -64.5 -88t-69.5 -22q-35 0 -67 12l-72 27q-28 10 -55 10q-65 0 -98 -62l-20 16
q33 66 64.5 88t69.5 22q34 0 66 -12l73 -27q28 -10 55 -10q65 0 98 62z" />
    <glyph glyph-name="notequal" unicode="&#x2260;" 
d="M527 183h-275l-76 -146l-53 28l62 118h-162v63h193l77 150h-270v62h300l76 144l53 -29l-59 -115h134v-62h-166l-78 -150h244v-63z" />
    <glyph glyph-name="lessequal" unicode="&#x2264;" 
d="M532 109l-515 245v31l515 246v-70l-411 -191l411 -190v-71zM532 0h-510v62h510v-62z" />
    <glyph glyph-name="greaterequal" unicode="&#x2265;" 
d="M532 354l-515 -245v71l411 190l-411 191v70l515 -246v-31zM527 0h-510v62h510v-62z" />
    <glyph glyph-name="lozenge" unicode="&#x25ca;" horiz-adv-x="484" 
d="M486 386l-242 -384l-240 369l242 382zM418 381l-176 268l-173 -273l177 -272z" />
    <glyph glyph-name="undef" unicode="&#xe012;" horiz-adv-x="500" 
d="M402 0h-304v724h304v-724zM119 21h262v682h-262v-682z" />
    <glyph glyph-name="one.osf" unicode="&#xf731;" horiz-adv-x="379" 
d="M346 -2q-86 4 -138 4q-79 0 -135 -4v26q39 0 60 25q13 15 16 42t3 103v191q0 21 -20 21q-15 0 -112 -15v32q106 34 158 58q51 24 85 50l13 -5q-7 -123 -7 -261v-105q0 -86 14 -108q6 -11 25 -18.5t38 -9.5v-26z" />
    <glyph glyph-name="two.osf" unicode="&#xf732;" horiz-adv-x="463" 
d="M413 160l-4 -160h-384v45q4 3 31.5 25t43 35t40 35t42.5 40q45 46 64 83t19 87q0 17 -4 33.5t-14.5 34.5t-32.5 29.5t-53 11.5q-66 0 -100 -55l-24 19q20 42 68 72.5t110 30.5q86 0 130 -44.5t44 -111.5q0 -55 -29 -100.5t-92 -93.5q-71 -54 -141 -90h111q59 0 82.5 4
t39.5 15q23 16 26 55h27z" />
    <glyph glyph-name="three.osf" unicode="&#xf733;" horiz-adv-x="441" 
d="M409 -5q0 -42 -12.5 -78.5t-39.5 -69t-77 -51.5t-117 -19q-41 0 -89 10.5t-73 28.5l11 31q55 -17 96 -17q94 0 134.5 47.5t40.5 123.5q0 45 -14 76.5t-37 46t-44.5 20.5t-43.5 6q-16 0 -38 -2v49h12q78 0 113 39.5t35 104.5q0 53 -28 85.5t-85 32.5q-71 0 -109 -56
l-25 18q5 13 15.5 27t31.5 33.5t57.5 32t81.5 12.5q82 0 131.5 -44.5t49.5 -122.5q0 -41 -16 -74t-37.5 -51.5t-48.5 -31t-44 -17t-29 -5.5q18 0 40 -3.5t51 -16t52 -31.5t39 -54t16 -80z" />
    <glyph glyph-name="four.osf" unicode="&#xf734;" horiz-adv-x="553" 
d="M527 0h-87v-222h-113v222h-308v64q65 92 193.5 246.5t186.5 201.5l48 -9q-7 -117 -7 -257v-155h87v-91zM327 91v287q-6 -15 -32 -49l-183 -238h215z" />
    <glyph glyph-name="five.osf" unicode="&#xf735;" horiz-adv-x="473" 
d="M447 15q0 -100 -63.5 -169t-192.5 -69q-49 0 -93 11t-64 25l12 34q45 -15 93 -15q182 0 182 176q0 75 -37 119t-118 44q-40 0 -80 -10l-20 14l28 337h324v-99h-278l-15 -182q23 10 89 10q56 0 99 -15.5t67.5 -38.5t40.5 -54.5t21 -59.5t5 -58z" />
    <glyph glyph-name="six.osf" unicode="&#xf736;" horiz-adv-x="567" 
d="M505 622l-15 4q-15 3 -36.5 6t-45.5 3q-120 0 -176 -76.5t-56 -202.5q48 53 147 53q93 0 146.5 -55.5t53.5 -148.5q0 -106 -64.5 -161.5t-162.5 -55.5q-70 0 -119 23t-76.5 67.5t-39.5 101t-12 131.5q0 147 50 237q77 140 264 140q96 0 153 -37zM398 194q0 79 -29.5 117
t-92.5 38q-58 0 -100 -27q0 -164 22 -226.5t91 -62.5q57 0 83 39.5t26 121.5z" />
    <glyph glyph-name="seven.osf" unicode="&#xf737;" horiz-adv-x="468" 
d="M445 454l-225 -675h-121v16q42 60 128 256t147 366h-184q-78 0 -105 -22t-27 -63h-28q4 52 4 180h411v-58z" />
    <glyph glyph-name="eight.osf" unicode="&#xf738;" horiz-adv-x="537" 
d="M494 174q0 -86 -60 -135.5t-168 -49.5q-112 0 -167.5 46.5t-55.5 117.5q0 124 153 180l-20 13q-111 74 -111 172q0 80 57 123t148 43q104 0 152 -45.5t48 -103.5q0 -56 -33.5 -97t-100.5 -60l43 -26q53 -33 84 -74.5t31 -103.5zM372 527q0 36 -11 60.5t-29.5 34.5
t-32.5 13t-29 3q-43 0 -72.5 -24.5t-29.5 -66.5q0 -37 17.5 -63t63.5 -53l62 -38q61 57 61 134zM384 142q0 41 -18 67.5t-68 58.5l-75 49q-75 -61 -75 -154q0 -60 29.5 -94.5t89.5 -34.5q61 0 89 32.5t28 75.5z" />
    <glyph glyph-name="nine.osf" unicode="&#xf739;" horiz-adv-x="570" 
d="M522 181q0 -156 -52 -255q-78 -149 -265 -149q-106 0 -156 37l11 30q40 -13 99 -13q122 0 179.5 84t57.5 223q-5 -6 -15.5 -15.5t-49.5 -25.5t-85 -16q-95 0 -148.5 58t-53.5 156q0 113 64.5 172t164.5 59q71 0 121 -25t77 -72.5t39 -107.5t12 -140zM396 170
q0 173 -24 241t-94 68q-58 0 -83.5 -42t-25.5 -130q0 -84 30 -125t94 -41q67 0 103 29z" />
    <glyph glyph-name="zero.tosf" unicode="&#xf81e;" 
d="M517 269q0 -20 -0.5 -36t-5.5 -46.5t-14 -54.5t-27.5 -52t-44 -47t-66 -31.5t-91.5 -12.5q-61 0 -106.5 20t-69 48t-37.5 67t-17.5 67t-3.5 59q0 19 1 35.5t6 46.5t14 53.5t27.5 51t44 46t66 31t90.5 12.5q61 0 106.5 -20t69 -47.5t37.5 -66t17.5 -66t3.5 -57.5zM381 257
q0 124 -24.5 172.5t-78.5 48.5q-64 0 -86 -51t-22 -165q0 -125 25.5 -175.5t82.5 -50.5q33 0 54.5 17t31.5 51t13.5 68.5t3.5 84.5z" />
    <glyph glyph-name="one.tosf" unicode="&#xf81f;" 
d="M443 -2q-86 4 -138 4q-79 0 -135 -4v26q39 0 60 25q13 15 16 42t3 103v191q0 21 -20 21q-15 0 -112 -15v32q106 34 158 58q51 24 85 50l13 -5q-7 -122 -7 -261v-105q0 -86 14 -108q6 -11 25 -18.5t38 -9.5v-26z" />
    <glyph glyph-name="two.tosf" unicode="&#xf820;" 
d="M451 160l-4 -160h-384v45q4 3 31.5 25t43 35t40 35t42.5 40q45 46 64 83t19 87q0 17 -4 33.5t-14.5 34.5t-32.5 29.5t-53 11.5q-66 0 -100 -55l-24 19q20 42 68 72.5t110 30.5q86 0 130 -44.5t44 -111.5q0 -55 -29 -100.5t-92 -93.5q-71 -54 -141 -90h111q59 0 82.5 4
t39.5 15q23 16 26 55h27z" />
    <glyph glyph-name="three.tosf" unicode="&#xf821;" 
d="M487 -5q0 -42 -12.5 -78.5t-39.5 -69t-77 -51.5t-117 -19q-41 0 -89 10.5t-73 28.5l11 31q55 -17 96 -17q94 0 134.5 47.5t40.5 123.5q0 45 -14 76.5t-37 46t-44.5 20.5t-43.5 6q-16 0 -38 -2v49h12q78 0 113 39.5t35 104.5q0 53 -28 85.5t-85 32.5q-71 0 -109 -56
l-25 18q5 13 15.5 27t31.5 33.5t57.5 32t81.5 12.5q82 0 131.5 -44.5t49.5 -122.5q0 -41 -16 -74t-37.5 -51.5t-48.5 -31t-44 -17t-29 -5.5q18 0 40 -3.5t51 -16t52 -31.5t39 -54t16 -80z" />
    <glyph glyph-name="four.tosf" unicode="&#xf822;" 
d="M542 0h-87v-222h-113v222h-308v64q65 92 193.5 246.5t186.5 201.5l48 -9q-7 -117 -7 -257v-155h87v-91zM342 91v287q-6 -15 -32 -49l-183 -238h215z" />
    <glyph glyph-name="five.tosf" unicode="&#xf823;" 
d="M495 15q0 -100 -63.5 -169t-192.5 -69q-49 0 -93 11t-64 25l12 34q45 -15 93 -15q182 0 182 176q0 75 -37 119t-118 44q-40 0 -80 -10l-20 14l28 337h324v-99h-278l-15 -182q23 10 89 10q56 0 99 -15.5t67.5 -38.5t40.5 -54.5t21 -59.5t5 -58z" />
    <glyph glyph-name="six.tosf" unicode="&#xf824;" 
d="M512 622l-15 4q-15 3 -36.5 6t-45.5 3q-120 0 -176 -76.5t-56 -202.5q48 53 147 53q93 0 146.5 -55.5t53.5 -148.5q0 -106 -64.5 -161.5t-162.5 -55.5q-70 0 -119 23t-76.5 67.5t-39.5 101t-12 131.5q0 147 50 237q77 140 264 140q96 0 153 -37zM405 194q0 79 -29.5 117
t-92.5 38q-58 0 -100 -27q0 -164 22 -226.5t91 -62.5q57 0 83 39.5t26 121.5z" />
    <glyph glyph-name="seven.tosf" unicode="&#xf825;" 
d="M489 454l-225 -675h-121v16q42 60 128 256t147 366h-184q-78 0 -105 -22t-27 -63h-28q4 52 4 180h411v-58z" />
    <glyph glyph-name="eight.tosf" unicode="&#xf826;" 
d="M509 174q0 -86 -60 -135.5t-168 -49.5q-112 0 -167.5 46.5t-55.5 117.5q0 124 153 180l-20 13q-111 74 -111 172q0 80 57 123t148 43q104 0 152 -45.5t48 -103.5q0 -56 -33.5 -97t-100.5 -60l43 -26q53 -33 84 -74.5t31 -103.5zM387 527q0 36 -11 60.5t-29.5 34.5
t-32.5 13t-29 3q-43 0 -72.5 -24.5t-29.5 -66.5q0 -37 17.5 -63t63.5 -53l62 -38q61 57 61 134zM399 142q0 41 -18 67.5t-68 58.5l-75 49q-75 -61 -75 -154q0 -60 29.5 -94.5t89.5 -34.5q61 0 89 32.5t28 75.5z" />
    <glyph glyph-name="nine.tosf" unicode="&#xf827;" 
d="M519 181q0 -156 -52 -255q-78 -149 -265 -149q-106 0 -156 37l11 30q40 -13 99 -13q122 0 179.5 84t57.5 223q-5 -6 -15.5 -15.5t-49.5 -25.5t-85 -16q-95 0 -148.5 58t-53.5 156q0 113 64.5 172t164.5 59q71 0 121 -25t77 -72.5t39 -107.5t12 -140zM393 170
q0 173 -24 241t-94 68q-58 0 -83.5 -42t-25.5 -130q0 -84 30 -125t94 -41q67 0 103 29z" />
    <glyph glyph-name="uni00A0" horiz-adv-x="200" 
 />
    <glyph glyph-name="zero.tf" 
d="M534 307q0 -23 -1 -44t-7 -54.5t-16 -61.5t-29.5 -58.5t-46 -51.5t-68 -34.5t-92.5 -13.5q-62 0 -108.5 22t-72 53.5t-41 76t-20 80t-4.5 73.5q0 23 1 44t7 54.5t16 61.5t29.5 58.5t46 51.5t68 34.5t92.5 13.5q62 0 108.5 -22t72 -53.5t41 -76t20 -80t4.5 -73.5zM397 298
q0 151 -26.5 209t-87.5 58q-36 0 -59.5 -17.5t-37.5 -61.5q-21 -64 -21 -182q0 -151 26.5 -210t86.5 -59q71 0 97 80q22 67 22 183z" />
    <glyph glyph-name="one.tf" 
d="M455 -2q-69 4 -147 4l-148 -4v25q44 0 67 26q12 14 15.5 41t3.5 98v291q0 19 -19 19q-14 0 -104 -15v35q75 17 158 52q57 25 85 46l13 -5q-7 -108 -7 -236v-219q0 -54 3.5 -76t14.5 -34q20 -22 65 -22v-26z" />
    <glyph glyph-name="two.tf" 
d="M489 177q-6 -74 -6 -146v-31h-422v64q154 116 215 196q59 76 59 161q0 125 -117 125q-78 0 -127 -71l-26 19q54 118 207 118q93 0 147 -45.5t54 -123.5q0 -79 -37.5 -131t-125.5 -118l-139 -98h156q89 0 114 28q17 20 19 53h29z" />
    <glyph glyph-name="three.tf" 
d="M485 136q0 -23 -4.5 -45.5t-20 -50.5t-40.5 -48.5t-70 -34.5t-105 -14q-127 0 -199 67l19 27q54 -37 133 -37q76 0 114 38t38 106q0 126 -135 126q-15 0 -37 -2v51h15q142 0 142 124q0 45 -25.5 74t-83.5 29q-79 0 -124 -67l-27 19q17 42 65.5 78t133.5 36q84 0 138 -38
t54 -114q0 -38 -15 -68t-35.5 -46t-46.5 -27t-42.5 -14t-29.5 -4q16 0 33.5 -2.5t47.5 -12.5t51.5 -26t38.5 -48.5t17 -75.5z" />
    <glyph glyph-name="four.tf" 
d="M508 -2q-63 4 -141 4l-148 -4v25q44 0 67 26q19 22 19 93v7h-280v78q33 49 149 192t164 187l87 -3v-362h78v-92h-78v-7q0 -75 18 -96q20 -22 65 -22v-26zM305 241v265l-4 -7q-4 -7 -14.5 -22t-23.5 -33l-154 -203h196z" />
    <glyph glyph-name="five.tf" 
d="M479 165q0 -98 -59 -160t-181 -62t-194 67l19 27q54 -37 127 -37q77 0 115 41.5t38 110.5q0 68 -34 105t-115 37q-26 0 -48 -3.5t-31 -6.5l-8 -4l-14 11l28 314h324v-99h-277l-14 -153q34 14 99 14t111.5 -18.5t70 -50t33.5 -64t10 -69.5z" />
    <glyph glyph-name="six.tf" 
d="M514 203q0 -92 -57 -153t-171 -61q-70 0 -118 23.5t-74 68.5t-36.5 99.5t-10.5 127.5q0 127 45 211q75 143 256 143q48 0 87 -9.5t54 -18.5l15 -10l-12 -31q-33 16 -105 16q-98 0 -152 -59.5t-54 -198.5q5 6 14.5 15t47 23.5t83.5 14.5q82 0 135 -50t53 -151zM379 193
q0 73 -24.5 112t-83.5 39q-28 0 -50.5 -7t-30.5 -13l-9 -7q0 -160 19.5 -222t82.5 -62q51 0 73.5 40.5t22.5 119.5z" />
    <glyph glyph-name="seven.tf" 
d="M490 544l-223 -600h-119v15q47 68 131.5 236.5t136.5 313.5h-186q-90 0 -115 -28q-17 -20 -19 -53h-28q6 74 6 146v31h416v-61z" />
    <glyph glyph-name="eight.tf" 
d="M516 172q0 -92 -65.5 -137.5t-170.5 -45.5q-116 0 -174 43t-58 115q0 114 157 174l-23 14q-57 37 -84 75t-27 90q0 79 58.5 120.5t154.5 41.5q109 0 158 -43t49 -101q0 -116 -137 -151l43 -25q119 -71 119 -170zM384 509q0 55 -29.5 80.5t-69.5 25.5q-54 0 -77.5 -25.5
t-23.5 -62.5q0 -38 22.5 -63t82.5 -61l33 -19q62 51 62 125zM400 138q0 37 -20.5 63t-79.5 63l-64 39q-74 -56 -74 -146q0 -120 119 -120q62 0 90.5 29.5t28.5 71.5z" />
    <glyph glyph-name="nine.tf" 
d="M516 296q0 -161 -76.5 -257t-227.5 -96q-45 0 -83.5 9.5t-54.5 19.5l-16 9l13 31q34 -16 106 -16q98 0 151 58.5t53 195.5q-5 -6 -14.5 -15t-47.5 -23.5t-85 -14.5q-80 0 -132.5 50.5t-52.5 151.5q0 92 57 152.5t173 60.5q69 0 117 -23.5t73.5 -68t36 -98.5t10.5 -126z
M381 285q0 159 -18 220.5t-80 61.5q-54 0 -77 -40t-23 -119q0 -151 107 -151q28 0 51 7t31 14z" />
    <glyph glyph-name="dollar.tf" 
d="M276 389v163q-62 -17 -62 -76q0 -29 15 -48t47 -39zM376 133q0 49 -60 85v-170q60 22 60 85zM276 43v200l-54 34q-60 39 -87 73t-27 94q0 23 6.5 45t23 47t52 42.5t86.5 23.5v53h40v-50h8q38 0 76.5 -3t57.5 -6l20 -3q-2 -27 -2 -61l2 -68h-28q-2 38 -27 63
q-30 30 -96 30h-11v-191l51 -32q33 -21 47.5 -31.5t36 -32t30.5 -47t9 -58.5q0 -45 -16 -78.5t-43.5 -52t-55 -28t-59.5 -13.5v-57h-40v58q-4 0 -12 -0.5t-12 -0.5q-99 0 -159 21v23l-4 105h29q2 -36 23 -62q31 -39 103 -39q12 0 32 2z" />
    <glyph glyph-name="Euro.tf" 
d="M492 264v-46h-237q18 -184 136 -184q81 0 105 75h14l44 -67v-14q-5 -4 -16.5 -10.5t-55.5 -17.5t-99 -11q-230 0 -262 229h-58v46h54v24q0 30 3 58h-57v46h64q23 102 91.5 161t180.5 59q50 0 89.5 -8.5t53.5 -17.5l15 -9v-13l-45 -68h-15q0 3 -1.5 7.5t-8.5 17t-17 22
t-29.5 17t-44.5 7.5q-118 0 -140 -175h236v-46h-240q-2 -14 -2 -41q0 -28 2 -41h240z" />
    <glyph glyph-name="cent.tf" 
d="M502 513l-48 -80h-15q-15 39 -35.5 57.5t-53.5 21.5v-407q20 -2 32 -2q26 0 51 6.5t37 12.5l12 7l15 -21q-5 -7 -15.5 -17t-48.5 -29.5t-83 -25.5v-63h-44v61q-93 2 -160 63.5t-67 185.5q0 114 59 188.5t168 85.5v65h44v-63q47 -1 85 -9.5t53 -16.5l14 -8v-12zM306 115
v396q-97 -26 -97 -194q0 -158 97 -202z" />
    <glyph glyph-name="sterling.tf" 
d="M542 105q-18 -61 -43 -94q-31 -41 -85 -41q-40 0 -105 22l-124 42q-20 8 -38 8q-36 -60 -81 -60q-30 0 -30 27q0 22 23.5 40t59.5 25q14 44 14 149v62h-73v52h73v24q0 108 32 160q56 91 198 91q99 0 159 -34v-13l-45 -70h-14q-3 12 -11 25.5t-33 29.5t-59 16
q-57 0 -80 -35q-20 -29 -20 -101v-93h176v-52h-176v-11q0 -96 -55 -158q-23 -25 -38 -34q38 16 74 16q33 0 73 -9l87 -21q30 -7 47 -7q24 0 38.5 12t29.5 44z" />
    <glyph glyph-name="yen.tf" 
d="M472 174h-118v-16q0 -87 15 -107q17 -25 74 -27v-28q-75 4 -161 4l-143 -4v28q47 0 67 22q22 24 22 109v19h-119v40h119v63h-119v41h98l-97 160q-39 64 -55.5 82t-40.5 19v25q48 -4 120 -4q102 0 130 4v-25q-50 0 -50 -36q0 -20 31 -71l49 -80q3 -5 14.5 -23t16.5 -27
q2 4 7 12t9.5 16t8.5 15l60 103q23 37 23 56q0 35 -46 35v25q52 -4 104 -4q36 0 84 4v-25q-24 -2 -43 -19.5t-56 -75.5l-107 -166h103v-41h-118v-63h118v-40z" />
    <glyph glyph-name="florin.tf" 
d="M567 696l-44 -69h-9l-3 11q-3 11 -8 20t-13 20t-23 17.5t-34 6.5q-20 0 -34.5 -9t-22.5 -19.5t-15 -37.5t-9.5 -45t-8.5 -59q-4 -40 -10 -81h102l-5 -37h-102l-31 -241q-21 -167 -37.5 -240.5t-46.5 -116.5q-44 -64 -121 -64q-76 0 -111 30v10l38 60h9l4 -12
q3 -13 7.5 -24t20 -20.5t37.5 -9.5q35 0 52 36q17 38 39 216q40 326 46 375h-61l3 18q36 4 52 25q4 6 7.5 13t5.5 17t3 16t3 19.5t3 18.5q14 91 47 135q46 60 139 60q98 0 131 -29v-10z" />
    <glyph glyph-name="zero.osf" horiz-adv-x="593" 
d="M553 269q0 -26 -3.5 -54t-19 -71t-42 -75t-78 -56t-121.5 -24q-61 0 -108 20t-73 48.5t-42 66t-21 67.5t-5 59q0 26 3.5 53.5t19.5 70t42.5 74t78 55t120.5 23.5q61 0 108 -19.5t73 -48t42 -65.5t21 -66.5t5 -57.5zM417 257q0 124 -28 172.5t-90 48.5q-72 0 -97.5 -52
t-25.5 -164q0 -124 28.5 -175t91.5 -51q38 0 63 17.5t37 50.5t16.5 68.5t4.5 84.5z" />
    <glyph glyph-name="dollar.osf" horiz-adv-x="485" 
d="M435 184q0 -159 -175 -185v-62h-41v58q-11 -1 -24 -1q-99 0 -159 21v23l-4 105h29q2 -36 23 -62q31 -39 103 -39q12 0 32 2v239l-56 36q-62 41 -89 80t-27 106q0 68 42.5 114.5t129.5 57.5v54h41v-51h9q38 0 76.5 -3t57.5 -6l19 -3q-2 -27 -2 -61l2 -68h-28q-2 38 -27 63
q-30 30 -96 30h-11v-221l49 -31q32 -20 48 -32.5t37.5 -36.5t31 -55t9.5 -72zM219 438v188q-64 -19 -64 -87q0 -36 14.5 -57t49.5 -44zM322 148q0 38 -14.5 61t-47.5 46v-201q62 25 62 94z" />
    <glyph glyph-name="Euro.osf" horiz-adv-x="554" 
d="M524 636l-45 -68h-15q0 3 -1.5 7.5t-8.5 17t-17 22t-29.5 17t-44.5 7.5q-126 0 -141 -211h237v-46h-239q-1 -14 -1 -43q0 -6 0.5 -19t0.5 -20h239v-46h-238q12 -219 137 -219q81 0 105 75h14l44 -67v-14q-5 -4 -16.5 -10.5t-55.5 -17.5t-99 -11q-49 0 -89 11.5t-78 39
t-63 81.5t-33 132h-57v46h54q0 5 -0.5 15t-0.5 16q0 33 2 51h-55v46h61q8 52 25.5 95.5t49 81t82.5 58.5t118 21q50 0 89.5 -8.5t54.5 -17.5l14 -9v-13z" />
    <glyph glyph-name="cent.osf" horiz-adv-x="489" 
d="M468 470l-48 -80h-15q-15 39 -35.5 57.5t-53.5 21.5v-407q20 -2 32 -2q26 0 51 6.5t37 13.5l12 6l15 -21q-5 -7 -15.5 -17t-48.5 -29.5t-83 -25.5v-63h-44v61q-93 2 -160 63.5t-67 185.5q0 114 59 188.5t168 85.5v65h44v-63q47 -1 85 -9.5t53 -16.5l14 -8v-12zM272 72
v396q-97 -26 -97 -194q0 -158 97 -202z" />
    <glyph glyph-name="sterling.osf" horiz-adv-x="548" 
d="M526 105q-18 -61 -43 -94q-31 -41 -85 -41q-40 0 -105 22l-124 42q-20 8 -38 8q-36 -60 -81 -60q-30 0 -30 27q0 22 23.5 40t59.5 25q14 44 14 149v108h-73v52h73v50q0 108 32 160q56 91 198 91q99 0 159 -34v-13l-45 -70h-14q-3 12 -11 25.5t-33 29.5t-59 16
q-57 0 -80 -35q-20 -29 -20 -101v-119h176v-52h-176v-57q0 -96 -55 -158q-23 -25 -38 -34q38 16 74 16q33 0 73 -9l87 -21q30 -7 47 -7q24 0 38.5 12t29.5 44z" />
    <glyph glyph-name="yen.osf" horiz-adv-x="540" 
d="M454 185h-125v-26q0 -87 15 -107q17 -25 74 -27v-28q-75 4 -161 4l-143 -4v28q47 0 67 22q22 24 22 109v29h-126v41h126v66h-126v42h112l-118 215q-34 62 -52.5 80.5t-43.5 20.5v25q48 -4 120 -4q103 0 131 4v-25q-50 0 -50 -36q0 -15 31 -71l50 -92q2 -4 11 -20
t18 -32.5t14 -26.5q11 18 40 72l56 105q27 49 27 66q0 35 -46 35v25q52 -4 104 -4q36 0 84 4v-25q-26 -2 -45.5 -20t-53.5 -75l-130 -221h118v-42h-125v-66h125v-41z" />
    <glyph glyph-name="florin.osf" horiz-adv-x="500" 
d="M530 696l-44 -69h-9l-3 11q-3 11 -8 20t-13 20t-23 17.5t-34 6.5q-20 0 -34.5 -9t-22.5 -19.5t-15 -37.5t-9.5 -45t-8.5 -59q-4 -40 -10 -81h102l-5 -37h-102l-31 -241q-21 -167 -37.5 -240.5t-46.5 -116.5q-44 -64 -121 -64q-76 0 -111 30v10l38 60h9l3 -12
q4 -13 8.5 -24t20 -20.5t37.5 -9.5q35 0 52 36q17 38 39 216q40 326 46 375h-61l3 18q36 4 52 25q4 6 7.5 13t5.5 17t3 16t3 19.5t3 18.5q14 91 47 135q46 60 139 60q98 0 131 -29v-10z" />
    <glyph glyph-name="dollar.tosf" 
d="M487 184q0 -159 -175 -185v-62h-41v58q-11 -1 -24 -1q-99 0 -159 21v23l-4 105h29q2 -36 23 -62q31 -39 103 -39q12 0 32 2v239l-56 36q-62 41 -89 80t-27 106q0 68 42.5 114.5t129.5 57.5v54h41v-51h9q38 0 76.5 -3t57.5 -6l19 -3q-2 -27 -2 -61l2 -68h-28q-2 38 -27 63
q-30 30 -96 30h-11v-221l49 -31q32 -20 48 -32.5t37.5 -36.5t31 -55t9.5 -72zM271 438v188q-64 -19 -64 -87q0 -36 14.5 -57t49.5 -44zM374 148q0 38 -14.5 61t-47.5 46v-201q62 25 62 94z" />
    <glyph glyph-name="Euro.tosf" 
d="M548 636l-45 -68h-15q0 3 -1.5 7.5t-8.5 17t-17 22t-29.5 17t-44.5 7.5q-126 0 -141 -211h237v-46h-239q-1 -14 -1 -43q0 -6 0.5 -19t0.5 -20h239v-46h-238q12 -219 137 -219q81 0 105 75h14l44 -67v-14q-5 -4 -16.5 -10.5t-55.5 -17.5t-99 -11q-49 0 -89 11.5t-78 39
t-63 81.5t-33 132h-57v46h54q0 5 -0.5 15t-0.5 16q0 33 2 51h-55v46h61q8 52 25.5 95.5t49 81t82.5 58.5t118 21q50 0 89.5 -8.5t54.5 -17.5l14 -9v-13z" />
    <glyph glyph-name="cent.tosf" 
d="M513 470l-48 -80h-15q-15 39 -35.5 57.5t-53.5 21.5v-407q20 -2 32 -2q26 0 51 6.5t37 13.5l12 6l15 -21q-5 -7 -15.5 -17t-48.5 -29.5t-83 -25.5v-63h-44v61q-93 2 -160 63.5t-67 185.5q0 114 59 188.5t168 85.5v65h44v-63q47 -1 85 -9.5t52 -16.5l15 -8v-12zM317 72
v396q-97 -26 -97 -194q0 -158 97 -202z" />
    <glyph glyph-name="sterling.tosf" 
d="M547 105q-18 -61 -43 -94q-31 -41 -85 -41q-40 0 -105 22l-124 42q-20 8 -38 8q-36 -60 -81 -60q-30 0 -30 27q0 22 23.5 40t59.5 25q14 44 14 149v108h-73v52h73v50q0 108 32 160q56 91 198 91q99 0 159 -34v-13l-45 -70h-14q-3 12 -11 25.5t-33 29.5t-59 16
q-57 0 -80 -35q-20 -29 -20 -101v-119h176v-52h-176v-57q0 -96 -55 -158q-23 -25 -38 -34q38 16 74 16q33 0 73 -9l87 -21q30 -7 47 -7q24 0 38.5 12t29.5 44z" />
    <glyph glyph-name="yen.tosf" 
d="M466 185h-125v-26q0 -87 15 -107q17 -25 74 -27v-28q-75 4 -161 4l-143 -4v28q47 0 67 22q22 24 22 109v29h-126v41h126v66h-126v42h112l-118 215q-34 62 -52.5 80.5t-43.5 20.5v25q48 -4 120 -4q103 0 131 4v-25q-50 0 -50 -36q0 -15 31 -71l50 -92q2 -4 11 -20
t18 -32.5t14 -26.5q11 18 40 72l56 105q27 49 27 66q0 35 -46 35v25q52 -4 104 -4q36 0 84 4v-25q-26 -2 -45.5 -20t-53.5 -75l-130 -221h118v-42h-125v-66h125v-41z" />
    <glyph glyph-name="florin.tosf" 
d="M567 696l-44 -69h-9l-3 11q-3 11 -8 20t-13 20t-23 17.5t-34 6.5q-20 0 -34.5 -9t-22.5 -19.5t-15 -37.5t-9.5 -45t-8.5 -59q-4 -40 -10 -81h102l-5 -37h-102l-31 -241q-21 -167 -37.5 -240.5t-46.5 -116.5q-44 -64 -121 -64q-76 0 -111 30v10l38 60h9l4 -12
q3 -13 7.5 -24t20 -20.5t37.5 -9.5q35 0 52 36q17 38 39 216q40 326 46 375h-61l3 18q36 4 52 25q4 6 7.5 13t5.5 17t3 16t3 19.5t3 18.5q14 91 47 135q46 60 139 60q98 0 131 -29v-10z" />
    <glyph glyph-name="hyphen.case" horiz-adv-x="243" 
d="M229 287h-217v80h217v-80z" />
    <glyph glyph-name="idotaccent" horiz-adv-x="328" 
d="M241 640q0 -65 -75 -65q-33 0 -53 16t-20 46q0 65 75 65q33 0 53 -16t20 -46zM298 -2q-53 4 -128 4l-135 -4v25q29 0 50 25q13 15 16.5 43t3.5 103v135q0 96 -12 113q-16 23 -56 23v26q4 -1 23 0t49 3.5t55 6.5q50 9 61 14l7 -5q-2 -19 -2 -203v-146q0 -58 3.5 -80
t14.5 -35q18 -21 50 -23v-25z" />
    <glyph glyph-name="zero.num" horiz-adv-x="388" 
d="M360 496q0 -22 -2 -42t-12 -51t-26.5 -53t-50.5 -38t-80 -16q-50 0 -84 19.5t-49.5 51.5t-21.5 61t-6 61q0 22 2 42.5t12 51.5t27 53.5t51 39t79 16.5q41 0 71.5 -14t47 -34t26.5 -48.5t13 -51.5t3 -48zM271 491q0 96 -17 132t-58 36q-43 0 -60.5 -42.5t-17.5 -122.5
q0 -96 17.5 -130t58.5 -34q44 0 60.5 40t16.5 121z" />
    <glyph glyph-name="one.num" horiz-adv-x="277" 
d="M247 299q-4 0 -37 1t-55 1q-19 0 -52 -1t-38 -1v22q27 3 40 16q9 9 11 28.5t2 71.5v170q0 11 -10 11q-5 0 -25 -4l-34 -6v27q65 20 87 30q22 9 50 30l11 -6q-3 -135 -3 -140v-134q0 -58 8 -74q11 -16 45 -20v-22z" />
    <glyph glyph-name="two.num" horiz-adv-x="349" 
d="M295 414q-6 -42 -6 -108h-243v32q4 4 21.5 19.5t24.5 21.5t22 20t23.5 23.5t19.5 23.5t19 27q29 47 29 98q0 76 -70 76q-44 0 -69 -41l-18 10q30 76 122 76q60 0 89.5 -33t29.5 -74q0 -83 -75 -144q-34 -28 -101 -79h88q46 0 58 12q10 10 13 40h23z" />
    <glyph glyph-name="three.num" horiz-adv-x="350" 
d="M300 413q0 -50 -33.5 -83.5t-106.5 -33.5q-40 0 -71 14.5t-44 30.5l13 18q34 -25 73 -25q49 0 68.5 26t19.5 57q0 35 -20.5 54.5t-54.5 19.5q-5 0 -13.5 -1t-11.5 -1v29h15q75 0 75 70q0 60 -59 60q-44 0 -69 -43l-19 11q30 76 117 76q107 0 107 -91q0 -26 -11 -45.5
t-28 -28.5t-27 -12.5t-19 -5.5q5 0 13 -1t24.5 -6.5t29 -15t22.5 -28.5t10 -45z" />
    <glyph glyph-name="four.num" horiz-adv-x="366" 
d="M330 298q-45 3 -85 3q-35 0 -92 -3v23q12 0 20 2t16 9t12 23.5t4 41.5h-167v34q42 64 111 153t98 110l36 -3q-2 -46 -2 -140v-101h50v-53h-50q0 -45 7.5 -59.5t41.5 -16.5v-23zM205 450v156q-10 -17 -39 -57l-72 -99h111z" />
    <glyph glyph-name="five.num" horiz-adv-x="330" 
d="M296 428q0 -58 -36 -95t-110 -37q-79 0 -118 41l13 18q29 -22 76 -22q42 0 66.5 22.5t24.5 62.5q0 81 -86 81q-27 0 -57 -10l-10 6l18 190h197v-63h-165l-8 -84q24 8 58 8q66 0 101.5 -35.5t35.5 -82.5z" />
    <glyph glyph-name="six.num" horiz-adv-x="344" 
d="M323 424q0 -54 -35.5 -91t-105.5 -37q-81 0 -114 50t-33 139q0 60 18 103t48 64.5t59 30.5t60 9q29 0 52.5 -6t33.5 -12l9 -5l-8 -23q-21 11 -65 11q-59 0 -90.5 -32.5t-31.5 -110.5q25 32 87 32q52 0 84 -30t32 -92zM238 418q0 43 -14.5 64.5t-50.5 21.5q-16 0 -29.5 -4
t-18.5 -8l-5 -4q0 -90 11.5 -125.5t48.5 -35.5q58 0 58 91z" />
    <glyph glyph-name="seven.num" horiz-adv-x="324" 
d="M303 647l-132 -346h-81v9q29 39 80 136t82 178h-109q-39 0 -57 -11.5t-21 -38.5h-23q4 51 4 91v20h257v-38z" />
    <glyph glyph-name="eight.num" horiz-adv-x="343" 
d="M318 404q0 -51 -37.5 -79.5t-107.5 -28.5q-72 0 -107 26t-35 69q0 16 4.5 29.5t12.5 23t16 17t18.5 13t17.5 8.5t15 6l8 2l-12 7q-33 19 -49.5 40t-16.5 57q0 46 33.5 72t96.5 26q68 0 98 -27t30 -59q0 -64 -80 -89l22 -12q21 -12 33 -20.5t26 -30.5t14 -50zM236 600
q0 60 -59 60q-30 0 -44.5 -13.5t-14.5 -34.5q0 -34 48 -62l36 -22q34 25 34 72zM241 386q1 21 -11.5 34.5t-43.5 32.5l-42 26q-42 -31 -42 -83q0 -31 17.5 -50t52.5 -19q34 0 51.5 16.5t17.5 42.5z" />
    <glyph glyph-name="nine.num" horiz-adv-x="344" 
d="M26 564q0 53 35.5 90.5t105.5 37.5q81 0 113.5 -49.5t32.5 -136.5q0 -65 -19 -110.5t-50 -65t-57.5 -27t-55.5 -7.5t-52.5 6t-32.5 12l-10 5l8 22q20 -10 64 -10q121 0 121 145q-25 -31 -87 -31q-52 0 -84 28.5t-32 90.5zM112 571q0 -43 14.5 -65t49.5 -22q16 0 29 4
t18 8l5 4q0 91 -11 126t-48 35q-31 0 -44 -22.5t-13 -67.5z" />
    <glyph glyph-name="zero.denom" horiz-adv-x="388" 
d="M360 189q0 -22 -2 -42t-12 -51t-26.5 -53t-50.5 -38t-80 -16q-50 0 -84 19.5t-49.5 51.5t-21.5 61t-6 61q0 22 2 42.5t12 51.5t27 53.5t51 39t79 16.5q41 0 71.5 -14t47 -34t26.5 -48.5t13 -51.5t3 -48zM271 184q0 96 -17 132t-58 36q-43 0 -60.5 -42.5t-17.5 -122.5
q0 -96 17.5 -130t58.5 -34q44 0 60.5 40t16.5 121z" />
    <glyph glyph-name="one.denom" horiz-adv-x="277" 
d="M247 0q-4 0 -37 1t-55 1q-19 0 -52 -1t-38 -1v22q27 3 40 16q9 9 11 28.5t2 71.5v170q0 11 -10 11q-5 0 -25 -4l-34 -6v27q65 20 87 30q22 9 50 30l11 -6q-3 -135 -3 -140v-134q0 -58 8 -74q11 -16 45 -20v-22z" />
    <glyph glyph-name="two.denom" horiz-adv-x="349" 
d="M295 108q-6 -42 -6 -108h-243v32q4 4 21.5 19.5t24.5 21.5t22 20t23.5 23.5t19.5 23.5t19 27q29 47 29 98q0 76 -70 76q-44 0 -69 -41l-18 10q30 76 122 76q60 0 89.5 -33t29.5 -74q0 -83 -75 -144q-34 -28 -101 -79h88q46 0 58 12q10 10 13 40h23z" />
    <glyph glyph-name="three.denom" horiz-adv-x="350" 
d="M300 106q0 -50 -33.5 -83.5t-106.5 -33.5q-40 0 -71 14.5t-44 30.5l13 18q34 -25 73 -25q49 0 68.5 26t19.5 57q0 35 -20.5 54.5t-54.5 19.5q-5 0 -13.5 -1t-11.5 -1v29h15q75 0 75 70q0 60 -59 60q-44 0 -69 -43l-19 11q30 76 117 76q107 0 107 -91q0 -26 -11 -45.5
t-28 -28.5t-27 -12.5t-19 -5.5q5 0 13 -1t24.5 -6.5t29 -15t22.5 -28.5t10 -45z" />
    <glyph glyph-name="four.denom" horiz-adv-x="366" 
d="M330 -2q-45 3 -85 3q-35 0 -92 -3v23q12 0 20 2t16 9t12 23.5t4 41.5h-167v34q42 64 111 153t98 110l36 -3q-2 -46 -2 -140v-101h50v-53h-50q0 -45 7.5 -59.5t41.5 -16.5v-23zM205 150v156q-10 -17 -39 -57l-72 -99h111z" />
    <glyph glyph-name="five.denom" horiz-adv-x="330" 
d="M296 121q0 -58 -36 -95t-110 -37q-79 0 -118 41l13 18q29 -22 76 -22q42 0 66.5 22.5t24.5 62.5q0 81 -86 81q-27 0 -57 -10l-10 6l18 190h197v-63h-165l-8 -84q24 8 58 8q66 0 101.5 -35.5t35.5 -82.5z" />
    <glyph glyph-name="six.denom" horiz-adv-x="344" 
d="M323 117q0 -54 -35.5 -91t-105.5 -37q-81 0 -114 50t-33 139q0 60 18 103t48 64.5t59 30.5t60 9q29 0 52.5 -6t33.5 -11l9 -6l-8 -23q-21 11 -65 11q-59 0 -90.5 -32.5t-31.5 -110.5q25 32 87 32q52 0 84 -30t32 -92zM238 111q0 43 -14.5 64.5t-50.5 21.5q-16 0 -29.5 -4
t-18.5 -8l-5 -4q0 -90 11.5 -125.5t48.5 -35.5q58 0 58 91z" />
    <glyph glyph-name="seven.denom" horiz-adv-x="324" 
d="M303 341l-132 -346h-81v9q29 39 80 136t82 178h-109q-39 0 -57 -11.5t-21 -38.5h-23q4 51 4 91v20h257v-38z" />
    <glyph glyph-name="eight.denom" horiz-adv-x="343" 
d="M318 97q0 -51 -37.5 -79.5t-107.5 -28.5q-72 0 -107 26t-35 69q0 16 4.5 29.5t12.5 23t16 17t18.5 13t17.5 8.5t15 5l8 3l-12 7q-33 19 -49.5 40t-16.5 57q0 46 33.5 72t96.5 26q68 0 98 -27t30 -59q0 -64 -80 -89l22 -12q21 -12 33 -20.5t26 -30.5t14 -50zM236 293
q0 60 -59 60q-30 0 -44.5 -13.5t-14.5 -34.5q0 -34 48 -62l36 -22q34 25 34 72zM241 79q1 21 -11.5 34.5t-43.5 32.5l-42 26q-42 -32 -42 -83q0 -31 17.5 -50t52.5 -19q34 0 51.5 16.5t17.5 42.5z" />
    <glyph glyph-name="nine.denom" horiz-adv-x="344" 
d="M26 257q0 53 35.5 90.5t105.5 37.5q81 0 113.5 -49.5t32.5 -136.5q0 -65 -19 -110.5t-50 -65t-57.5 -27t-55.5 -7.5t-52.5 6t-32.5 11l-10 6l8 22q20 -10 64 -10q121 0 121 145q-25 -31 -87 -31q-52 0 -84 28.5t-32 90.5zM112 264q0 -43 14.5 -65t49.5 -22q16 0 29 4
t18 8l5 4q0 91 -11 126t-48 35q-31 0 -44 -22.5t-13 -67.5z" />
    <glyph glyph-name="commaaccent" horiz-adv-x="500" 
d="M310 -123q0 -51 -30 -89.5t-65 -59.5l-16 15q39 39 39 76q0 19 -22 39t-22 41q0 24 15 37t39 13q25 0 43.5 -17.5t18.5 -54.5z" />
    <glyph glyph-name="revcommaaccent" horiz-adv-x="500" 
d="M188 633q0 51 29.5 89.5t64.5 59.5l17 -16q-39 -36 -39 -75q0 -19 22 -39t22 -41q0 -24 -15.5 -37t-38.5 -13q-25 0 -43.5 17.5t-18.5 54.5z" />
    <glyph glyph-name="tilde.cap" horiz-adv-x="500" 
d="M393 867l19 -8q-40 -112 -103 -112q-26 0 -62 15l-35 15q-33 12 -50 12q-31 0 -55 -42l-19 9q39 108 103 108q20 0 61 -15l35 -14q34 -13 50 -12q31 0 56 44z" />
    <glyph glyph-name="ring.cap" horiz-adv-x="500" 
d="M365 806q0 -48 -32 -77.5t-83 -29.5q-54 0 -85 29.5t-31 77.5q0 47 32.5 76t85.5 29q49 0 81 -29t32 -76zM298 806q0 71 -48 71q-49 0 -49 -71q0 -73 51 -73q46 0 46 73z" />
    <glyph glyph-name="circumflex.cap" horiz-adv-x="500" 
d="M279 874l127 -145l-15 -15l-138 74l-134 -74l-15 15l126 145l7 3h36z" />
    <glyph glyph-name="acute.cap" horiz-adv-x="500" 
d="M352 832l-6 -17l-207 -101l-14 17l148 147l9 2z" />
    <glyph glyph-name="grave.cap" horiz-adv-x="500" 
d="M128 816l-5 17l70 47l9 -1l148 -148l-14 -16z" />
    <glyph glyph-name="dieresis.cap" horiz-adv-x="500" 
d="M408 795q0 -28 -17 -44.5t-45 -16.5q-27 0 -43.5 16.5t-16.5 43.5q0 28 17.5 44.5t44.5 16.5t43.5 -16t16.5 -44zM213 795q0 -29 -16.5 -45t-45.5 -16q-26 0 -42.5 16.5t-16.5 43.5q0 28 16.5 44.5t45.5 16.5q27 0 43 -16t16 -44z" />
    <glyph glyph-name="caron.cap" horiz-adv-x="500" 
d="M231 727l-127 144l15 15l138 -73l134 73l15 -15l-126 -144l-7 -3h-36z" />
    <glyph glyph-name="macron.cap" horiz-adv-x="500" 
d="M395 760h-291v71h291v-71z" />
    <glyph glyph-name="dotaccent.cap" horiz-adv-x="500" 
d="M312 797q0 -30 -16.5 -46t-46.5 -16q-28 0 -44 16.5t-16 44.5q0 30 16.5 46t45.5 16q28 0 44.5 -16t16.5 -45z" />
    </font>
</defs>
</svg>
