<svg id="Layer_1" data-name="Layer 1" xmlns="http://www.w3.org/2000/svg" xmlns:xlink="http://www.w3.org/1999/xlink" viewBox="0 0 512 512"><defs><linearGradient id="linear-gradient" x1="174.97" y1="256" x2="337.04" y2="256" gradientUnits="userSpaceOnUse"><stop offset="0.49" stop-color="#fff"/><stop offset="0.5" stop-color="#d1d1d1"/></linearGradient></defs><title>smartphone-flat</title><circle cx="256" cy="256" r="240.92" fill="#c8ce2f"/><path d="M256,15.08c133.06,0,240.92,107.87,240.92,240.93S389.06,496.92,256,496.92,15.08,389.05,15.08,256,122.94,15.08,256,15.08M256,0C114.84,0,0,114.84,0,256S114.84,512,256,512,512,397.16,512,256,397.16,0,256,0Z" fill="#fff"/><path d="M178.32,386.83l124.9,105.44C409.73,471.1,491,379.74,496.61,268.43L332.83,124Z" fill="#a4a826"/><path d="M337,134.57a14.29,14.29,0,0,0-14.25-14.25H189.21A14.29,14.29,0,0,0,175,134.57V377.44a14.29,14.29,0,0,0,14.25,14.24H322.79A14.29,14.29,0,0,0,337,377.44Z" fill="url(#linear-gradient)"/><polyline points="256 347.71 328.78 347.71 328.78 134.14 256 134.14" fill="#a4a826"/><polyline points="256 134.14 183.22 134.14 183.22 347.71 256 347.71" fill="#c8ce2f"/><circle cx="256" cy="367.81" r="12.56" fill="#c8ce2f"/></svg>