<svg id="Layer_1" data-name="Layer 1" xmlns="http://www.w3.org/2000/svg" viewBox="0 0 512 512"><title>google-plus-flat</title><path d="M0,256C0,114.62,114.62,0,256,0S512,114.63,512,256,397.37,512,256,512,0,397.38,0,256Z" fill="#ff5242"/><path d="M208.79,239.67c0,.51-.07.92-.07,1.31,0,9.91,0,31.37,0,31.37h43.54c0,3.22-3.83,16.22-16,24.48-7.13,4.82-15.14,7.05-23.64,7.59A47.32,47.32,0,0,1,195,302.36a48.94,48.94,0,0,1-33.53-42.27,47,47,0,0,1,1-14.75c5.4-23.66,27.81-41.2,53.49-37.41,11.38,1.68,17.93,6.41,23.9,11.52,7.86-7.88,15.65-15.67,23.65-23.68-1.94-1.42-6.43-6-14.41-10.59a77.46,77.46,0,0,0-38.57-10.49c-2.6,0-5.19.13-7.78.22a64.33,64.33,0,0,0-13.4,2.1,81.53,81.53,0,0,0-61.62,74.29,76.92,76.92,0,0,0,1.72,21.89c4.58,20.15,15.15,36.39,31.82,48.58a79.29,79.29,0,0,0,43.41,15.39,86.71,86.71,0,0,0,26.66-2.64c16.3-4.26,29.83-12.77,40-26.3,14.72-19.6,18.29-44.72,13.95-68.58Z" fill="#fff"/><polygon points="383.62 240.75 356.07 240.75 356.07 213.19 356.07 212.37 355.25 212.37 334.68 212.37 333.86 212.37 333.86 213.19 333.86 240.75 306.31 240.75 305.5 240.75 305.5 241.56 305.5 262.11 305.5 262.94 306.31 262.94 333.86 262.94 333.86 290.49 333.86 291.3 334.68 291.3 355.25 291.3 356.07 291.3 356.07 290.49 356.07 262.94 383.62 262.94 384.43 262.94 384.43 262.11 384.43 241.56 384.43 240.75 383.62 240.75" fill="#fff"/></svg>