<svg id="Layer_1" data-name="Layer 1" xmlns="http://www.w3.org/2000/svg" viewBox="0 0 512 512"><title>mobile-smartphone-flat</title><path d="M0,256C0,114.62,114.62,0,256,0S512,114.63,512,256,397.37,512,256,512,0,397.38,0,256Z" fill="#6e6e6e"/><path d="M312,127.84H200c-9.9,0-17.93,7.06-17.93,15.77V368.39c0,8.71,8,15.78,17.93,15.78H312c9.9,0,17.93-7.06,17.93-15.78V143.61C329.94,134.9,321.92,127.84,312,127.84ZM253.1,367.63c-6.94,0-6.94-10.76,0-10.76S260,367.63,253.1,367.63ZM305.51,342H205.6V152.71h99.91Z" fill="#fff"/></svg>