<?xml version="1.0" encoding="UTF-8"?>
<svg width="53px" height="53px" viewBox="0 0 53 53" version="1.1" xmlns="http://www.w3.org/2000/svg" xmlns:xlink="http://www.w3.org/1999/xlink">
    <!-- Generator: Sketch 49.2 (51160) - http://www.bohemiancoding.com/sketch -->
    <title>Page 1</title>
    <desc>Created with Sketch.</desc>
    <defs></defs>
    <g id="Main-Page" stroke="none" stroke-width="1" fill="none" fill-rule="evenodd">
        <g transform="translate(-246.000000, -225.000000)" fill="#F6F4F0" id="Page-1">
            <path d="M272.5,225 C270.139192,225 268.225806,226.913385 268.225806,229.274194 L268.225806,247.225806 L250.274194,247.225806 C247.913385,247.225806 246,249.139192 246,251.5 C246,253.860808 247.913385,255.774194 250.274194,255.774194 L268.225806,255.774194 L268.225806,273.725806 C268.225806,276.086615 270.139192,278 272.5,278 C274.860808,278 276.774194,276.086615 276.774194,273.725806 L276.774194,255.774194 L294.725806,255.774194 C297.086615,255.774194 299,253.860808 299,251.5 C299,249.139192 297.086615,247.225806 294.725806,247.225806 L276.774194,247.225806 L276.774194,229.274194 C276.774194,226.913385 274.860808,225 272.5,225 Z"></path>
        </g>
    </g>
</svg>