<?xml version="1.0" encoding="UTF-8"?>
<svg width="19px" height="19px" viewBox="0 0 19 19" version="1.1" xmlns="http://www.w3.org/2000/svg" xmlns:xlink="http://www.w3.org/1999/xlink">
    <!-- Generator: Sketch 49.2 (51160) - http://www.bohemiancoding.com/sketch -->
    <title>Page 1</title>
    <desc>Created with Sketch.</desc>
    <defs></defs>
    <g id="Main-Page" stroke="none" stroke-width="1" fill="none" fill-rule="evenodd">
        <g transform="translate(-150.000000, -174.000000)" fill="#797575" id="Page-1">
            <path d="M167,180.293326 L167,190.571429 C167,191.912447 165.912447,193 164.571429,193 L152.428571,193 C151.087553,193 150,191.912447 150,190.571429 L150,178.428571 C150,177.087553 151.087553,176 152.428571,176 L162.705897,176 L160.27888,178.428571 L152.428571,178.428571 L152.428571,190.571429 L164.571429,190.571429 L164.571429,182.722674 L167,180.293326 Z M164.750492,176 L164,176.750157 L166.25017,179 L167,178.250505 L164.750492,176 Z M166.74983,174 L166,174.749661 L168.25017,177 L169,176.249678 L166.74983,174 Z M155,184.50033 L157.500189,187 L165,179.500424 L162.499811,177 L155,184.50033 Z M155,188 L157,188 L155,186 L155,188 Z"></path>
        </g>
    </g>
</svg>